SplineFontDB: 3.0
FontName: CMUTypewriter-Bold
FullName: CMU Typewriter Text Bold
FamilyName: CMU Typewriter Text
Weight: Bold
Copyright: Converted by Andrey V. Panov from TeX fonts
UComments: "2009-6-18: Created." 
Version: 0.7.0
ItalicAngle: 0
UnderlinePosition: -100
UnderlineWidth: 50
Ascent: 775
Descent: 225
LayerCount: 2
Layer: 0 0 "+BBcEMAQ0BD0EOAQ5 +BD8EOwQwBD0A"  1
Layer: 1 0 "+BB8ENQRABDUENAQ9BDgEOQAA +BD8EOwQwBD0A"  0
NeedsXUIDChange: 1
XUID: [1067 9639268]
FSType: 0
OS2Version: 0
OS2_WeightWidthSlopeOnly: 0
OS2_UseTypoMetrics: 1
CreationTime: 1245316127
ModificationTime: 1245316780
PfmFamily: 17
TTFWeight: 700
TTFWidth: 5
LineGap: 200
VLineGap: 90
Panose: 2 0 8 9 0 0 0 0 0 0
OS2TypoAscent: 0
OS2TypoAOffset: 1
OS2TypoDescent: 0
OS2TypoDOffset: 1
OS2TypoLinegap: 200
OS2WinAscent: 866
OS2WinAOffset: 0
OS2WinDescent: 230
OS2WinDOffset: 0
HheadAscent: 866
HheadAOffset: 0
HheadDescent: -230
HheadDOffset: 0
Lookup: 1 0 0 "Case substitutions"  {"Case substitutions subtable"  } ['case' ('cyrl' <'dflt' > 'grek' <'dflt' > 'latn' <'dflt' > ) ]
Lookup: 3 0 0 "Greek alternatives"  {"Greek alternatives subtable"  } ['salt' ('grek' <'dflt' > ) ]
Lookup: 1 0 0 "Greek substitutions"  {"Greek substitutions subtable"  } ['locl' ('grek' <'dflt' > ) ]
Lookup: 4 0 0 "Latin Dutch ligatures"  {"Latin Dutch ligatures subtable"  } ['dlig' ('latn' <'NLD ' > ) ]
Lookup: 4 0 0 "Latin ligatures excepting Turkic"  {"Latin ligatures excepting Turkic subtable"  } ['dlig' ('latn' <'dflt' 'NLD ' 'VIT ' > ) ]
Lookup: 4 0 0 "Latin ligatures"  {"Latin ligatures subtable"  } ['dlig' ('latn' <'dflt' 'NLD ' 'VIT ' 'TRK ' 'AZE ' > ) ]
Lookup: 4 0 0 "Cyrillic ligatures"  {"Cyrillic ligatures subtable"  } ['dlig' ('cyrl' <'dflt' 'MKD ' 'SRB ' > ) ]
Lookup: 3 0 0 "Latin alternatives"  {"Latin alternatives subtable"  } ['salt' ('latn' <'dflt' > ) ]
Lookup: 3 0 0 "Stilistic set 01"  {"Stilistic set 01 subtable"  } ['ss01' ('latn' <'dflt' > 'grek' <'dflt' > 'cyrl' <'dflt' > ) ]

StartChar: .notdef
Encoding: 0 0 0
Width: 525
Flags: HW
HStem: 10 60<105 420> 705 60<105 420>
VStem: 10 60<112 663> 455 60<112 663>
DStem2: 105 705 70 663 0.508289 -0.861187<18.3797 309.738 396.718 688.585> 70 112 105 70 0.508289 0.861187<0 291.358 378.338 670.205>
LayerCount: 2
Fore
SplineSet
10 10 m 1
 10 765 l 1
 515 765 l 1
 515 10 l 1
 10 10 l 1
70 112 m 1
 232 388 l 1
 70 663 l 1
 70 112 l 1
105 70 m 1
 420 70 l 1
 262 337 l 1
 105 70 l 1
105 705 m 1
 262 438 l 1
 420 705 l 1
 105 705 l 1
292 388 m 1
 455 112 l 1
 455 663 l 1
 292 388 l 1
EndSplineSet
EndChar

StartChar: SF100000
Encoding: 9472 9472 1
Width: 525
Flags: HW
HStem: 240 70<0 525>
LayerCount: 2
Fore
SplineSet
-0 240 m 1
 -0 310 l 1
 525 310 l 1
 525 240 l 1
 -0 240 l 1
EndSplineSet
EndChar

StartChar: SF110000
Encoding: 9474 9474 2
Width: 525
Flags: HW
VStem: 227 70<-355 837>
LayerCount: 2
Fore
SplineSet
227 -355 m 1
 227 837 l 1
 297 837 l 1
 297 -355 l 1
 227 -355 l 1
EndSplineSet
EndChar

StartChar: SF010000
Encoding: 9484 9484 3
Width: 525
Flags: HW
HStem: 240 70<297 525>
VStem: 227 70<-355 240>
LayerCount: 2
Fore
SplineSet
227 310 m 1
 525 310 l 1
 525 240 l 1
 297 240 l 1
 297 -355 l 1
 227 -355 l 1
 227 310 l 1
EndSplineSet
EndChar

StartChar: SF030000
Encoding: 9488 9488 4
Width: 525
Flags: HW
HStem: 240 70<0 227>
VStem: 227 70<-355 240>
LayerCount: 2
Fore
SplineSet
0 240 m 1
 0 310 l 1
 297 310 l 1
 297 -355 l 1
 227 -355 l 1
 227 240 l 1
 0 240 l 1
EndSplineSet
EndChar

StartChar: SF020000
Encoding: 9492 9492 5
Width: 525
Flags: HW
HStem: 240 70<297 525>
VStem: 227 70<310 837>
LayerCount: 2
Fore
SplineSet
227 240 m 1
 227 837 l 1
 297 837 l 1
 297 310 l 1
 525 310 l 1
 525 240 l 1
 227 240 l 1
EndSplineSet
EndChar

StartChar: SF040000
Encoding: 9496 9496 6
Width: 525
Flags: HW
HStem: 240 70<0 227>
VStem: 227 70<310 837>
LayerCount: 2
Fore
SplineSet
0 240 m 1
 0 310 l 1
 227 310 l 1
 227 837 l 1
 297 837 l 1
 297 240 l 1
 0 240 l 1
EndSplineSet
EndChar

StartChar: SF080000
Encoding: 9500 9500 7
Width: 525
Flags: HW
HStem: 240 70<297 525>
VStem: 227 70<-355 240 310 837>
LayerCount: 2
Fore
SplineSet
227 -355 m 1
 227 837 l 1
 297 837 l 1
 297 310 l 1
 525 310 l 1
 525 240 l 1
 297 240 l 1
 297 -355 l 1
 227 -355 l 1
EndSplineSet
EndChar

StartChar: SF090000
Encoding: 9508 9508 8
Width: 525
Flags: HW
HStem: 240 70<0 227>
VStem: 227 70<-355 240 310 837>
LayerCount: 2
Fore
SplineSet
0 240 m 1
 0 310 l 1
 227 310 l 1
 227 837 l 1
 297 837 l 1
 297 -355 l 1
 227 -355 l 1
 227 240 l 1
 0 240 l 1
EndSplineSet
EndChar

StartChar: SF060000
Encoding: 9516 9516 9
Width: 525
Flags: HW
HStem: 240 70<0 227 297 525>
VStem: 227 70<-355 240>
LayerCount: 2
Fore
SplineSet
0 240 m 1
 0 310 l 1
 525 310 l 1
 525 240 l 1
 297 240 l 1
 297 -355 l 1
 227 -355 l 1
 227 240 l 1
 0 240 l 1
EndSplineSet
EndChar

StartChar: SF070000
Encoding: 9524 9524 10
Width: 525
Flags: HW
HStem: 240 70<0 227 297 525>
VStem: 227 70<310 837>
LayerCount: 2
Fore
SplineSet
0 240 m 1
 0 310 l 1
 227 310 l 1
 227 837 l 1
 297 837 l 1
 297 310 l 1
 525 310 l 1
 525 240 l 1
 0 240 l 1
EndSplineSet
EndChar

StartChar: SF050000
Encoding: 9532 9532 11
Width: 525
Flags: HW
HStem: 240 70<0 227 297 525>
VStem: 227 70<-355 240 310 837>
LayerCount: 2
Fore
SplineSet
-0 240 m 1
 -0 310 l 1
 227 310 l 1
 227 837 l 1
 297 837 l 1
 297 310 l 1
 525 310 l 1
 525 240 l 1
 297 240 l 1
 297 -355 l 1
 227 -355 l 1
 227 240 l 1
 -0 240 l 1
EndSplineSet
EndChar

StartChar: SF510000
Encoding: 9554 9554 14
Width: 525
Flags: HW
HStem: 160 70<297 525> 320 70<297 525>
VStem: 227 70<-355 160 230 320>
LayerCount: 2
Fore
SplineSet
227 -355 m 1
 227 390 l 1
 525 390 l 1
 525 320 l 1
 297 320 l 1
 297 230 l 1
 525 230 l 1
 525 160 l 1
 297 160 l 1
 297 -355 l 1
 227 -355 l 1
EndSplineSet
EndChar

StartChar: SF520000
Encoding: 9555 9555 15
Width: 525
Flags: HW
HStem: 240 70<217 307 377 525>
VStem: 147 70<-355 240> 307 70<-355 240>
LayerCount: 2
Fore
SplineSet
147 310 m 1
 525 310 l 1
 525 240 l 1
 377 240 l 1
 377 -355 l 1
 307 -355 l 1
 307 240 l 1
 217 240 l 1
 217 -355 l 1
 147 -355 l 1
 147 310 l 1
EndSplineSet
EndChar

StartChar: SF390000
Encoding: 9556 9556 16
Width: 525
Flags: HW
HStem: 160 70<377 525> 320 70<217 525>
VStem: 147 70<-355 320> 307 70<-355 160>
LayerCount: 2
Fore
SplineSet
147 -355 m 1
 147 390 l 1
 525 390 l 1
 525 320 l 1
 217 320 l 1
 217 -355 l 1
 147 -355 l 1
307 230 m 1
 525 230 l 1
 525 160 l 1
 377 160 l 1
 377 -355 l 1
 307 -355 l 1
 307 230 l 1
EndSplineSet
EndChar

StartChar: SF220000
Encoding: 9557 9557 17
Width: 525
Flags: HW
HStem: 160 70<0 227> 320 70<0 227>
VStem: 227 70<-355 160 230 320>
LayerCount: 2
Fore
SplineSet
0 160 m 1
 0 230 l 1
 227 230 l 1
 227 320 l 1
 0 320 l 1
 0 390 l 1
 297 390 l 1
 297 -355 l 1
 227 -355 l 1
 227 160 l 1
 0 160 l 1
EndSplineSet
EndChar

StartChar: SF210000
Encoding: 9558 9558 18
Width: 525
Flags: HW
HStem: 240 70<0 147 217 307>
VStem: 147 70<-355 240> 307 70<-355 240>
LayerCount: 2
Fore
SplineSet
0 240 m 1
 0 310 l 1
 377 310 l 1
 377 -355 l 1
 307 -355 l 1
 307 240 l 1
 217 240 l 1
 217 -355 l 1
 147 -355 l 1
 147 240 l 1
 0 240 l 1
EndSplineSet
EndChar

StartChar: SF250000
Encoding: 9559 9559 19
Width: 525
Flags: HW
HStem: 160 70<0 147> 320 70<0 307>
VStem: 147 70<-355 160> 307 70<-355 320>
LayerCount: 2
Fore
SplineSet
0 160 m 1
 0 230 l 1
 217 230 l 1
 217 -355 l 1
 147 -355 l 1
 147 160 l 1
 0 160 l 1
0 320 m 1
 0 390 l 1
 377 390 l 1
 377 -355 l 1
 307 -355 l 1
 307 320 l 1
 0 320 l 1
EndSplineSet
EndChar

StartChar: SF500000
Encoding: 9560 9560 20
Width: 525
Flags: HW
HStem: 160 70<297 525> 320 70<297 525>
VStem: 227 70<230 320 390 837>
LayerCount: 2
Fore
SplineSet
227 160 m 1
 227 837 l 1
 297 837 l 1
 297 390 l 1
 525 390 l 1
 525 320 l 1
 297 320 l 1
 297 230 l 1
 525 230 l 1
 525 160 l 1
 227 160 l 1
EndSplineSet
EndChar

StartChar: SF490000
Encoding: 9561 9561 21
Width: 525
Flags: HW
HStem: 240 70<217 307 377 525>
VStem: 147 70<310 837> 307 70<310 837>
LayerCount: 2
Fore
SplineSet
147 240 m 1
 147 837 l 1
 217 837 l 1
 217 310 l 1
 307 310 l 1
 307 837 l 1
 377 837 l 1
 377 310 l 1
 525 310 l 1
 525 240 l 1
 147 240 l 1
EndSplineSet
EndChar

StartChar: SF380000
Encoding: 9562 9562 22
Width: 525
Flags: HW
HStem: 160 70<217 525> 320 70<377 525>
VStem: 147 70<230 837> 307 70<390 837>
LayerCount: 2
Fore
SplineSet
147 160 m 1
 147 837 l 1
 217 837 l 1
 217 230 l 1
 525 230 l 1
 525 160 l 1
 147 160 l 1
307 320 m 1
 307 837 l 1
 377 837 l 1
 377 390 l 1
 525 390 l 1
 525 320 l 1
 307 320 l 1
EndSplineSet
EndChar

StartChar: SF280000
Encoding: 9563 9563 23
Width: 525
Flags: HW
HStem: 160 70<0 227> 320 70<0 227>
VStem: 227 70<230 320 390 837>
LayerCount: 2
Fore
SplineSet
0 160 m 1
 0 230 l 1
 227 230 l 1
 227 320 l 1
 0 320 l 1
 0 390 l 1
 227 390 l 1
 227 837 l 1
 297 837 l 1
 297 160 l 1
 0 160 l 1
EndSplineSet
EndChar

StartChar: SF270000
Encoding: 9564 9564 24
Width: 525
Flags: HW
HStem: 240 70<0 147 217 307>
VStem: 147 70<310 837> 307 70<310 837>
LayerCount: 2
Fore
SplineSet
0 240 m 1
 0 310 l 1
 147 310 l 1
 147 837 l 1
 217 837 l 1
 217 310 l 1
 307 310 l 1
 307 837 l 1
 377 837 l 1
 377 240 l 1
 0 240 l 1
EndSplineSet
EndChar

StartChar: SF260000
Encoding: 9565 9565 25
Width: 525
Flags: HW
HStem: 160 70<0 307> 320 70<0 147>
VStem: 147 70<390 837> 307 70<230 837>
LayerCount: 2
Fore
SplineSet
0 160 m 1
 0 230 l 1
 307 230 l 1
 307 837 l 1
 377 837 l 1
 377 160 l 1
 0 160 l 1
0 320 m 1
 0 390 l 1
 147 390 l 1
 147 837 l 1
 217 837 l 1
 217 320 l 1
 0 320 l 1
EndSplineSet
EndChar

StartChar: SF360000
Encoding: 9566 9566 26
Width: 525
Flags: HW
HStem: 160 70<297 525> 320 70<297 525>
VStem: 227 70<-355 160 230 320 390 837>
LayerCount: 2
Fore
SplineSet
227 -355 m 1
 227 837 l 1
 297 837 l 1
 297 390 l 1
 525 390 l 1
 525 320 l 1
 297 320 l 1
 297 230 l 1
 525 230 l 1
 525 160 l 1
 297 160 l 1
 297 -355 l 1
 227 -355 l 1
EndSplineSet
EndChar

StartChar: SF370000
Encoding: 9567 9567 27
Width: 525
Flags: HW
HStem: 240 70<377 525>
VStem: 147 70<-355 837> 307 70<-355 240 310 837>
LayerCount: 2
Fore
SplineSet
307 -355 m 1
 307 837 l 1
 377 837 l 1
 377 310 l 1
 525 310 l 1
 525 240 l 1
 377 240 l 1
 377 -355 l 1
 307 -355 l 1
EndSplineSet
Refer: 2 9474 S 1 0 0 1 -80 0 2
EndChar

StartChar: SF420000
Encoding: 9568 9568 28
Width: 525
Flags: HW
HStem: 160 70<377 525> 320 70<377 525>
VStem: 147 70<-355 837> 307 218<160 230 320 390> 307 70<-355 160 390 837>
LayerCount: 2
Fore
SplineSet
307 230 m 1xf0
 525 230 l 1
 525 160 l 1xf0
 377 160 l 1
 377 -355 l 1
 307 -355 l 1xe8
 307 230 l 1xf0
307 320 m 1xf0
 307 837 l 1
 377 837 l 1
 377 390 l 1xe8
 525 390 l 1
 525 320 l 1
 307 320 l 1xf0
EndSplineSet
Refer: 2 9474 S 1 0 0 1 -80 0 2
EndChar

StartChar: SF190000
Encoding: 9569 9569 29
Width: 525
Flags: HW
HStem: 160 70<0 227> 320 70<0 227>
VStem: 227 70<-355 160 230 320 390 837>
LayerCount: 2
Fore
SplineSet
0 160 m 1
 0 230 l 1
 227 230 l 1
 227 320 l 1
 0 320 l 1
 0 390 l 1
 227 390 l 1
 227 837 l 1
 297 837 l 1
 297 -355 l 1
 227 -355 l 1
 227 160 l 1
 0 160 l 1
EndSplineSet
EndChar

StartChar: SF200000
Encoding: 9570 9570 30
Width: 525
Flags: HW
HStem: 240 70<0 147>
VStem: 147 70<-355 240 310 837> 307 70<-355 837>
LayerCount: 2
Fore
SplineSet
0 240 m 1
 0 310 l 1
 147 310 l 1
 147 837 l 1
 217 837 l 1
 217 -355 l 1
 147 -355 l 1
 147 240 l 1
 0 240 l 1
EndSplineSet
Refer: 2 9474 S 1 0 0 1 80 0 2
EndChar

StartChar: SF230000
Encoding: 9571 9571 31
Width: 525
Flags: HW
HStem: 160 70<0 147> 320 70<0 147>
VStem: 0 217<160 230 320 390> 147 70<-355 160 390 837> 307 70<-355 837>
LayerCount: 2
Fore
SplineSet
0 160 m 1
 0 230 l 1
 217 230 l 1xe8
 217 -355 l 1
 147 -355 l 1
 147 160 l 1xd8
 0 160 l 1
0 320 m 1xe8
 0 390 l 1xe8
 147 390 l 1
 147 837 l 1
 217 837 l 1xd8
 217 320 l 1
 0 320 l 1xe8
EndSplineSet
Refer: 2 9474 S 1 0 0 1 80 0 2
EndChar

StartChar: SF470000
Encoding: 9572 9572 32
Width: 525
Flags: HW
HStem: 160 70<0 227 297 525> 320 70<0 525>
VStem: 227 70<-355 160>
LayerCount: 2
Fore
SplineSet
0 160 m 1
 0 230 l 1
 525 230 l 1
 525 160 l 1
 297 160 l 1
 297 -355 l 1
 227 -355 l 1
 227 160 l 1
 0 160 l 1
EndSplineSet
Refer: 1 9472 S 1 0 0 1 0 80 2
EndChar

StartChar: SF480000
Encoding: 9573 9573 33
Width: 525
Flags: HW
HStem: 240 70<0 147 217 307 377 525>
VStem: 147 70<-355 240> 307 70<-355 240>
LayerCount: 2
Fore
SplineSet
0 240 m 1
 0 310 l 1
 525 310 l 1
 525 240 l 1
 377 240 l 1
 377 -355 l 1
 307 -355 l 1
 307 240 l 1
 217 240 l 1
 217 -355 l 1
 147 -355 l 1
 147 240 l 1
 0 240 l 1
EndSplineSet
EndChar

StartChar: SF410000
Encoding: 9574 9574 34
Width: 525
Flags: HW
HStem: 160 70<0 147 377 525> 320 70<0 525>
VStem: 147 70<-355 160> 307 70<-355 160>
LayerCount: 2
Fore
SplineSet
0 160 m 1
 0 230 l 1
 217 230 l 1
 217 -355 l 1
 147 -355 l 1
 147 160 l 1
 0 160 l 1
307 230 m 1
 525 230 l 1
 525 160 l 1
 377 160 l 1
 377 -355 l 1
 307 -355 l 1
 307 230 l 1
EndSplineSet
Refer: 1 9472 S 1 0 0 1 0 80 2
EndChar

StartChar: SF450000
Encoding: 9575 9575 35
Width: 525
Flags: HW
HStem: 160 70<0 525> 320 70<0 227 297 525>
VStem: 227 70<390 837>
LayerCount: 2
Fore
SplineSet
0 320 m 1
 0 390 l 1
 227 390 l 1
 227 837 l 1
 297 837 l 1
 297 390 l 1
 525 390 l 1
 525 320 l 1
 0 320 l 1
EndSplineSet
Refer: 1 9472 S 1 0 0 1 0 -80 2
EndChar

StartChar: SF460000
Encoding: 9576 9576 36
Width: 525
Flags: HW
HStem: 240 70<0 147 217 307 377 525>
VStem: 147 70<310 837> 307 70<310 837>
LayerCount: 2
Fore
SplineSet
0 240 m 1
 0 310 l 1
 147 310 l 1
 147 837 l 1
 217 837 l 1
 217 310 l 1
 307 310 l 1
 307 837 l 1
 377 837 l 1
 377 310 l 1
 525 310 l 1
 525 240 l 1
 0 240 l 1
EndSplineSet
EndChar

StartChar: SF400000
Encoding: 9577 9577 37
Width: 525
Flags: HW
HStem: 160 70<0 525> 320 70<0 147 377 525>
VStem: 147 70<390 837> 307 70<390 837>
LayerCount: 2
Fore
SplineSet
0 320 m 1
 0 390 l 1
 147 390 l 1
 147 837 l 1
 217 837 l 1
 217 320 l 1
 0 320 l 1
307 320 m 1
 307 837 l 1
 377 837 l 1
 377 390 l 1
 525 390 l 1
 525 320 l 1
 307 320 l 1
EndSplineSet
Refer: 1 9472 S 1 0 0 1 0 -80 2
EndChar

StartChar: SF540000
Encoding: 9578 9578 38
Width: 525
Flags: HW
HStem: 160 70<0 227 297 525> 320 70<0 227 297 525>
VStem: 227 70<-355 160 230 320 390 837>
LayerCount: 2
Fore
SplineSet
0 160 m 1
 0 230 l 1
 227 230 l 1
 227 320 l 1
 0 320 l 1
 0 390 l 1
 227 390 l 1
 227 837 l 1
 297 837 l 1
 297 390 l 1
 525 390 l 1
 525 320 l 1
 297 320 l 1
 297 230 l 1
 525 230 l 1
 525 160 l 1
 297 160 l 1
 297 -355 l 1
 227 -355 l 1
 227 160 l 1
 0 160 l 1
EndSplineSet
EndChar

StartChar: SF530000
Encoding: 9579 9579 39
Width: 525
Flags: HW
HStem: 240 70<0 147 217 307 377 525>
VStem: 147 70<-355 240 310 837> 307 70<-355 240 310 837>
LayerCount: 2
Fore
SplineSet
-0 240 m 1
 -0 310 l 1
 147 310 l 1
 147 837 l 1
 217 837 l 1
 217 310 l 1
 307 310 l 1
 307 837 l 1
 377 837 l 1
 377 310 l 1
 525 310 l 1
 525 240 l 1
 377 240 l 1
 377 -355 l 1
 307 -355 l 1
 307 240 l 1
 217 240 l 1
 217 -355 l 1
 147 -355 l 1
 147 240 l 1
 -0 240 l 1
EndSplineSet
EndChar

StartChar: uni262D
Encoding: 9773 9773 40
Width: 525
Flags: HW
TeX: 117 0
HStem: 0 20G<30.5 60.5 462.5 467> 39 76<244.267 355.503> 102 51<98.531 128.337>
VStem: 89 43<98.6716 137.734> 431 65<186.303 382.211>
DStem2: 84 357 128 301 0.626941 0.779067<0 63.6069 102.652 165.701>
LayerCount: 2
Fore
SplineSet
18 18 m 0
 18 64 89 102 89 128 c 0
 89 148 93 153 104 153 c 0xb8
 115 153 118 159 132 180 c 1
 175 152 232 115 298 115 c 0
 336 115 356 128 356 129 c 0
 356 135 311 186 178 363 c 1
 128 301 l 1
 84 357 l 1
 188 486 l 1
 264 470 l 1
 203 393 l 1
 373 190 l 1
 396 165 l 1
 401 165 431 218 431 295 c 0
 431 473 263 587 263 593 c 1
 301 593 496 478 496 267 c 0
 496 167 458 114 450 100 c 1
 493 46 496 44 496 38 c 0
 496 17 470 -1 464 -1 c 0xd8
 461 -1 462 -3 409 62 c 1
 387 51 366 39 328 39 c 0xd8
 225 39 147 138 136 138 c 0
 132 138 132 134 132 130 c 2
 132 118 l 2
 132 108 128 102 120 102 c 0
 91 102 84 0 37 0 c 0
 24 0 18 7 18 18 c 0
EndSplineSet
EndChar

StartChar: longs
Encoding: 383 383 41
Width: 525
Flags: HW
TeX: 108 0
HStem: 0 75<37.1817 177 260 400.074> 369 75<45.0939 177> 540 75<272.877 377.569>
VStem: 177 83<75 369 444 526.726>
AnchorPoint: "above" 351 611 basechar 0
AnchorPoint: "below" 218 0 basechar 0
LayerCount: 2
Fore
SplineSet
35 38 m 0
 35 69 52 75 73 75 c 2
 177 75 l 1
 177 369 l 1
 81 369 l 2
 61 369 43 377 43 404 c 0
 43 431 51 444 81 444 c 2
 177 444 l 1
 177 477 l 2
 177 587 274 615 351 615 c 0
 420 615 437 582 437 557 c 0
 437 521 405 514 396 514 c 0
 373 514 361 531 357 539 c 1
 351 539 344 540 338 540 c 0
 276 540 260 517 260 478 c 2
 260 75 l 1
 364 75 l 2
 396 75 402 59 402 36 c 0
 402 13 390 0 370 0 c 2
 72 0 l 2
 51 0 35 8 35 38 c 0
EndSplineSet
EndChar

StartChar: florin
Encoding: 402 402 42
Width: 525
Flags: HW
TeX: 102 0
HStem: -226 75<83.2792 145.68> 369 75<151.254 253 351 472.489> 540 75<366.386 440.619>
VStem: 440 85<501.369 539.314>
DStem2: 179 -38 294 115 0.179604 0.983739<-77.6162 413.672 505.054 606.541>
LayerCount: 2
Fore
SplineSet
-1 -157 m 0
 -1 -121 24 -106 45 -106 c 0
 67 -106 86 -120 84 -148 c 1
 95 -150 103 -151 110 -151 c 0
 151 -151 168 -84 179 -38 c 0
 197 38 244 307 253 369 c 1
 183 369 l 2
 159 369 147 381 147 400 c 0
 147 417 153 444 187 444 c 2
 267 444 l 1
 282 535 285 615 408 615 c 0
 456 615 525 604 525 546 c 0
 525 515 505 494 479 494 c 0
 463 494 439 504 440 537 c 1
 433 538 416 540 402 540 c 0
 361 540 369 534 351 444 c 1
 440 444 l 2
 475 444 477 422 477 412 c 0
 477 395 469 369 436 369 c 2
 338 369 l 1
 294 115 l 2
 278 23 258 -88 236 -132 c 0
 226 -154 194 -205 146 -221 c 0
 138 -224 123 -226 106 -226 c 0
 62 -226 -1 -212 -1 -157 c 0
EndSplineSet
EndChar

StartChar: uni03F5
Encoding: 1013 1013 43
Width: 525
Flags: HW
TeX: 117 0
HStem: -4 84<258.015 469.992> 172 84<144 411.677> 365 83<272.633 470.551>
LayerCount: 2
Fore
SplineSet
50 226 m 0
 50 377 216 446 432 448 c 1
 478 447 474 409 474 401 c 0
 474 399 475 397 475 395 c 0
 475 363 454 365 436 365 c 0
 216 360 163 296 144 256 c 1
 371 256 l 2
 407 256 416 236 416 209 c 0
 416 177 409 172 385 172 c 2
 143 172 l 1
 161 134 206 82 433 80 c 0
 467 79 474 58 474 34 c 0
 474 31 475 29 475 26 c 0
 475 1 462 -4 443 -4 c 2
 435 -4 l 1
 111 1 50 134 50 226 c 0
EndSplineSet
EndChar

StartChar: circumflex.cap
Encoding: 65536 -1 44
Width: 525
Flags: HW
HStem: 665 200
AnchorPoint: "above" 263 619 mark 0
LayerCount: 2
Fore
SplineSet
94 711 m 0
 94 734 116 743 218 836 c 0
 242 857 250 865 262 865 c 0
 284 865 288 850 396 757 c 0
 430 727 432 720 432 711 c 0
 432 694 408 665 386 665 c 2
 384 665 l 2
 370 665 335 703 262 773 c 1
 158 670 156 665 140 665 c 0
 118 665 94 694 94 711 c 0
EndSplineSet
EndChar

StartChar: dieresis.cap
Encoding: 65537 -1 45
Width: 525
Flags: HW
HStem: 674 120<115.014 205.932 318.714 409.416>
VStem: 100 120<688.004 779.065> 304 120<689.285 779.416>
AnchorPoint: "above" 262 619 mark 0
LayerCount: 2
Fore
SplineSet
100 734 m 0
 100 770 132 794 160 794 c 0
 192 794 220 769 220 734 c 0
 220 701 194 674 160 674 c 0
 128 674 100 699 100 734 c 0
304 734 m 0
 304 766 330 794 364 794 c 0
 394 794 424 770 424 734 c 0
 424 704 400 674 364 674 c 0
 334 674 304 700 304 734 c 0
EndSplineSet
EndChar

StartChar: caron.cap
Encoding: 65539 -1 47
Width: 525
Flags: HW
HStem: 622 187
VStem: 118 288
AnchorPoint: "above" 262 619 mark 0
LayerCount: 2
Fore
SplineSet
118 778 m 0
 118 796 134 809 150 809 c 0
 164 809 172 798 262 713 c 1
 362 807 360 809 376 809 c 0
 392 809 406 797 406 779 c 0
 406 763 411 772 292 640 c 0
 284 630 276 622 262 622 c 0
 246 622 240 633 222 651 c 1
 122 762 118 763 118 778 c 0
EndSplineSet
EndChar

StartChar: ring.cap
Encoding: 65540 -1 48
Width: 525
Flags: HW
HStem: 582 75<219.049 307.633> 791 75<219.422 306.144>
VStem: 146 59<670.169 777.151> 321 58<670.034 776.985>
AnchorPoint: "above" 262 619 mark 0
LayerCount: 2
Back
SplineSet
-3 571 m 0xd9
 -3 603 11 611 35 611 c 2
 187 611 l 1
 173 625 146 656 146 724 c 0
 146 811 193 866 263 866 c 0
 332 866 379 810 379 725 c 0xd6
 379 656 354 627 339 611 c 1
 486 611 l 2
 508 611 528 609 528 571 c 0
 528 537 503 535 491 535 c 2
 457 535 l 1
 457 215 l 2
 457 29 334 -8 263 -8 c 0
 186 -8 68 33 68 214 c 2
 68 535 l 1
 38 535 l 2
 16 535 -3 540 -3 571 c 0xd9
152 221 m 2xd9
 152 178 154 123 196 90 c 0
 214 75 239 67 263 67 c 0
 307 67 374 89 374 212 c 2
 374 535 l 1
 341 535 l 2xd9
 314 535 303 551 303 573 c 0
 303 578 303 584 305 590 c 1
 293 585 279 582 263 582 c 0xb9
 246 582 233 585 221 590 c 1
 222 584 222 578 222 572 c 0
 222 537 198 535 182 535 c 2
 152 535 l 1
 152 221 l 2xd9
205 723 m 0xb6
 205 684 228 657 263 657 c 0
 288 657 321 674 321 724 c 0
 321 764 297 791 262 791 c 0
 237 791 205 774 205 723 c 0xb6
EndSplineSet
Fore
SplineSet
146 724 m 0
 146 811 193 866 263 866 c 0
 332 866 379 810 379 725 c 0
 379 613 309 582 263 582 c 0
 216 582 146 614 146 724 c 0
205 723 m 0
 205 684 228 657 263 657 c 0
 288 657 321 674 321 724 c 0
 321 764 297 791 262 791 c 0
 237 791 205 774 205 723 c 0
EndSplineSet
EndChar

StartChar: breve.cap
Encoding: 65541 -1 49
Width: 525
Flags: HW
HStem: 657 78<195.952 330.484>
VStem: 79 77<772.291 858.513> 370 76<772.833 858.829>
AnchorPoint: "above" 262 619 mark 0
LayerCount: 2
Fore
SplineSet
79 827 m 0
 79 842 87 861 116 861 c 0
 159 861 153 831 156 814 c 0
 166 765 215 735 262 735 c 0
 321 735 366 775 370 825 c 0
 372 845 377 861 407 861 c 2
 411 861 l 2
 426 861 446 854 446 826 c 0
 446 745 374 657 263 657 c 0
 154 657 79 742 79 827 c 0
EndSplineSet
EndChar

StartChar: grave
Encoding: 96 96 50
Width: 525
Flags: HW
TeX: 610 0
VStem: 110 213<563.89 606.547>
LayerCount: 2
Fore
SplineSet
110 599 m 0
 110 619 127 641 152 641 c 2
 153 641 l 2
 158 641 162 640 290 610 c 1
 290 610 323 605 323 578 c 0
 323 571 320 526 288 526 c 2
 287 526 l 2
 282 526 278 527 150 557 c 0
 145 558 110 564 110 599 c 0
EndSplineSet
EndChar

StartChar: acute
Encoding: 180 180 51
Width: 525
Flags: HW
TeX: 610 0
HStem: 526 115
VStem: 201 212<563.99 606.547>
LayerCount: 2
Fore
SplineSet
201 578 m 0
 201 604 226 608 234 610 c 0
 345 636 358 641 372 641 c 0
 397 641 413 619 413 599 c 0
 413 565 380 559 372 557 c 0
 250 528 242 526 236 526 c 0
 202 526 201 576 201 578 c 0
EndSplineSet
EndChar

StartChar: circumflex
Encoding: 710 710 52
Width: 525
Flags: HW
TeX: 694 0
HStem: 535 163
LayerCount: 2
Fore
SplineSet
95 585 m 0
 95 605 113 614 120 618 c 0
 251 697 251 698 263 698 c 0
 275 698 272 697 407 616 c 0
 413 612 430 604 430 585 c 0
 430 572 412 535 388 535 c 0
 375 535 370 540 262 612 c 1
 149 536 149 536 137 536 c 0
 114 536 95 570 95 585 c 0
EndSplineSet
EndChar

StartChar: tilde
Encoding: 732 732 53
Width: 525
Flags: HW
TeX: 694 0
HStem: 468 85<284.974 340.73> 525 86<181.312 239.131>
LayerCount: 2
Fore
SplineSet
87 509 m 0
 87 523 96 530 111 544 c 0
 135 566 184 611 227 611 c 0x40
 281 611 287 553 304 553 c 0x80
 327 553 373 611 396 611 c 0x40
 418 611 436 585 436 570 c 0
 436 556 428 548 413 534 c 0
 353 479 320 468 297 468 c 0x80
 243 468 236 525 219 525 c 0x40
 194 525 152 468 127 468 c 0x80
 111 468 87 489 87 509 c 0
EndSplineSet
EndChar

StartChar: dieresis
Encoding: 168 168 54
Width: 525
Flags: HW
TeX: 610 0
HStem: 491 120<114.714 205.416 318.391 409.065>
VStem: 100 120<505.935 596.286> 304 120<505.714 596.065>
LayerCount: 2
Fore
SplineSet
100 551 m 0
 100 587 131 611 160 611 c 0
 196 611 220 581 220 551 c 0
 220 518 193 491 160 491 c 0
 130 491 100 516 100 551 c 0
304 551 m 0
 304 583 330 611 364 611 c 0
 394 611 424 586 424 551 c 0
 424 521 399 491 364 491 c 0
 333 491 304 516 304 551 c 0
EndSplineSet
EndChar

StartChar: ring
Encoding: 730 730 56
Width: 525
Flags: HW
TeX: 694 0
HStem: 491 43<237.462 285.807> 657 42<237.507 285.314>
VStem: 172 58<536.899 653.459> 293 59<537.292 653.731>
LayerCount: 2
Fore
SplineSet
172 595 m 0
 172 661 209 699 261 699 c 0
 321 699 352 652 352 595 c 0
 352 531 314 491 262 491 c 0
 208 491 172 533 172 595 c 0
230 594 m 0
 230 554 246 534 262 534 c 0
 274 534 293 547 293 595 c 0
 293 637 278 657 262 657 c 0
 249 657 230 644 230 594 c 0
EndSplineSet
EndChar

StartChar: caron
Encoding: 711 711 57
Width: 525
Flags: HW
TeX: 694 0
HStem: 508 93<238.073 285.448>
VStem: 119 287
LayerCount: 2
Fore
SplineSet
119 664 m 0
 119 680 132 694 149 694 c 0
 165 694 172 684 238 623 c 0
 246 616 254 609 262 601 c 1
 263 601 l 1
 271 609 279 616 344 676 c 0
 354 685 363 694 376 694 c 0
 391 694 406 682 406 664 c 0
 406 648 407 651 292 525 c 0
 285 517 276 508 263 508 c 0
 247 508 240 520 222 538 c 1
 126 644 119 647 119 664 c 0
EndSplineSet
EndChar

StartChar: breve
Encoding: 728 728 58
Width: 525
Flags: HW
TeX: 694 0
HStem: 514 78<184.053 337.856>
VStem: 78 77<621.316 691.238> 369 76<622.723 691.742>
LayerCount: 2
Fore
SplineSet
78 660 m 0
 78 675 86 694 115 694 c 0
 157 694 152 665 155 652 c 0
 165 609 221 592 262 592 c 0
 307 592 363 612 369 660 c 0
 371 674 374 694 407 694 c 2
 409 694 l 2
 438 694 445 676 445 660 c 0
 445 577 361 514 262 514 c 0
 155 514 78 583 78 660 c 0
EndSplineSet
EndChar

StartChar: macron
Encoding: 175 175 59
Width: 525
Flags: HW
TeX: 610 0
HStem: 542 77<74.0039 448.864>
LayerCount: 2
Fore
SplineSet
72 580 m 0
 72 596 72 619 110 619 c 2
 412 619 l 2
 445 619 451 601 451 581 c 0
 451 564 448 543 414 542 c 1
 108 542 l 1
 79 543 72 559 72 580 c 0
EndSplineSet
EndChar

StartChar: dotaccent
Encoding: 729 729 60
Width: 525
Flags: HW
TeX: 610 0
HStem: 491 120<242.985 333.609>
VStem: 229 119<505.004 596.996>
LayerCount: 2
Fore
SplineSet
229 551 m 0
 229 584 255 611 288 611 c 0
 319 611 348 586 348 551 c 0
 348 518 322 491 288 491 c 0
 257 491 229 516 229 551 c 0
EndSplineSet
EndChar

StartChar: cedilla
Encoding: 184 184 61
Width: 525
Flags: HW
TeX: 0 194
HStem: -210 75<123.992 310.104> -63 124<222.346 301.27>
VStem: 220 84<-0.724976 58.7324> 318 84<-119.481 -73.503>
LayerCount: 2
Fore
SplineSet
122 -175 m 0
 121 -145 133 -135 160 -135 c 2
 177 -135 l 2
 271 -135 318 -122 318 -100 c 0
 318 -65 246 -63 245 -63 c 0
 222 -58 220 -38 220 -26 c 0
 220 -13 220 0 220 13 c 0
 220 20 220 26 221 33 c 0
 224 59 247 61 259 61 c 2
 265 61 l 2
 280 61 304 60 304 23 c 2
 304 5 l 1
 376 -13 402 -57 402 -99 c 0
 402 -204 272 -209 189 -210 c 1
 160 -210 l 2
 130 -210 122 -192 122 -175 c 0
EndSplineSet
EndChar

StartChar: ogonek
Encoding: 731 731 62
Width: 525
Flags: HW
TeX: 0 222
HStem: -196 80<261.406 337.329>
VStem: 175 86<-114.174 -66.8808>
LayerCount: 2
Fore
SplineSet
175 -103 m 0
 175 -12 290 16 334 51 c 0
 342 57 350 66 364 66 c 0
 383 66 397 49 397 31 c 0
 397 -17 261 -54 261 -97 c 0
 261 -106 273 -116 292 -116 c 0
 349 -116 353 -51 388 -51 c 0
 409 -51 431 -70 431 -89 c 0
 431 -110 375 -196 287 -196 c 0
 216 -196 175 -146 175 -103 c 0
EndSplineSet
EndChar

StartChar: guilsinglleft
Encoding: 8249 8249 64
Width: 525
Flags: HW
TeX: 427 0
HStem: -0 21G<343.5 371.5>
VStem: 65 327
DStem2: 86 244 161 214 0.807267 0.590187<42.8394 336.428> 161 213 86 183 0.807653 -0.589658<0 281.418>
LayerCount: 2
Fore
SplineSet
65 214 m 0
 65 230 76 237 86 244 c 2
 324 418 l 2
 337 427 343 427 355 427 c 2
 356 427 l 2
 388 427 392 407 392 398 c 0
 392 380 375 370 367 364 c 2
 161 214 l 1
 161 213 l 1
 367 63 l 2
 375 57 392 49 392 30 c 0
 392 20 388 0 355 -0 c 0
 332 0 327 8 312 18 c 2
 86 183 l 2
 76 190 65 198 65 214 c 0
EndSplineSet
EndChar

StartChar: guilsinglright
Encoding: 8250 8250 65
Width: 525
Flags: HW
TeX: 427 0
HStem: 0 21G<153 175>
VStem: 131 327
DStem2: 212 409 157 364 0.807653 -0.589658<-56.9275 236.939> 157 63 200 9 0.807267 0.590187<-27.044 254.825>
LayerCount: 2
Fore
SplineSet
131 29 m 0
 131 48 148 57 157 63 c 2
 363 213 l 1
 363 214 l 1
 157 364 l 2
 148 370 131 380 131 399 c 0
 131 406 135 427 168 427 c 2
 169 427 l 2
 192 427 197 419 212 409 c 2
 438 244 l 2
 448 237 458 230 458 214 c 0
 458 198 448 190 438 183 c 2
 200 9 l 2
 187 0 181 0 169 0 c 0
 137 0 131 17 131 29 c 0
EndSplineSet
EndChar

StartChar: quotedblleft
Encoding: 8220 8220 66
Width: 525
Flags: HW
TeX: 610 0
HStem: 323 149<76.2233 142.287 425.881 490.764> 590 20G<108.5 131 456.5 479>
VStem: -6 169<361.598 448.566> 342 170<362.555 448.566>
LayerCount: 2
Fore
SplineSet
-6 433 m 0
 -6 546 94 610 123 610 c 0
 139 610 163 589 163 570 c 0
 163 532 106 548 76 471 c 1
 80 471 83 472 86 472 c 0
 140 472 163 432 163 397 c 0
 163 358 136 323 88 323 c 2
 87 323 l 2
 41 323 -6 364 -6 433 c 0
342 433 m 0
 342 546 442 610 471 610 c 0
 487 610 512 589 512 570 c 0
 512 532 454 548 424 471 c 1
 428 471 432 472 435 472 c 0
 489 472 512 432 512 397 c 0
 512 358 484 323 436 323 c 0
 381 324 342 375 342 433 c 0
EndSplineSet
EndChar

StartChar: quotedblright
Encoding: 8221 8221 67
Width: 525
Flags: HW
TeX: 610 0
HStem: 462 149<34.5379 99.2729 383.01 447.777>
VStem: 13 169<484.434 571.368> 361 169<484.434 572.209>
LayerCount: 2
Fore
SplineSet
13 364 m 0
 13 402 70 385 100 462 c 1
 90 462 l 2
 35 462 13 501 13 536 c 0
 13 575 40 611 88 611 c 2
 89 611 l 1
 145 610 182 559 182 500 c 0
 182 387 82 323 53 323 c 0
 37 323 13 345 13 364 c 0
361 364 m 0
 361 402 418 385 448 462 c 1
 438 462 l 2
 381 462 361 504 361 536 c 0
 361 575 389 611 437 611 c 0
 483 611 530 570 530 500 c 0
 530 387 431 323 402 323 c 0
 386 323 361 345 361 364 c 0
EndSplineSet
EndChar

StartChar: dotlessi
Encoding: 305 305 74
Width: 525
Flags: HW
TeX: 444 0
HStem: 0 75<73.4719 233 316 459.933> 369 75<80.8565 233>
VStem: 233 83<75 369>
AnchorPoint: "below" 274 0 basechar 0
AnchorPoint: "above" 274 450 basechar 0
LayerCount: 2
Fore
SplineSet
71 38 m 0
 71 68 85 75 110 75 c 2
 233 75 l 1
 233 369 l 1
 120 369 l 2
 105 369 79 369 79 404 c 0
 79 419 79 444 119 444 c 2
 280 444 l 2
 314 444 316 422 316 405 c 2
 316 75 l 1
 423 75 l 2
 454 75 463 58 462 38 c 0
 462 19 457 0 424 0 c 2
 108 0 l 2
 97 0 71 2 71 38 c 0
EndSplineSet
EndChar

StartChar: dotlessj
Encoding: 567 567 75
Width: 525
Flags: HW
TeX: 444 222
HStem: -226 75<130.845 256.866> 369 75<123.479 291>
VStem: 291 84<-115.047 369>
AnchorPoint: "below" 236 -222 basechar 0
AnchorPoint: "above" 333 450 basechar 0
LayerCount: 2
Fore
SplineSet
47 -155 m 0
 47 -129 66 -112 89 -112 c 0
 111 -112 125 -126 130 -145 c 1
 148 -150 168 -151 190 -151 c 2
 197 -151 l 2
 262 -151 291 -100 291 -35 c 2
 291 369 l 1
 160 369 l 2
 146 369 121 371 121 406 c 0
 121 442 147 444 159 444 c 2
 337 444 l 2
 376 444 375 416 375 405 c 2
 375 -36 l 2
 375 -153 292 -226 188 -226 c 2
 181 -226 l 2
 148 -226 102 -226 73 -205 c 0
 49 -187 47 -162 47 -155 c 0
EndSplineSet
EndChar

StartChar: ff
Encoding: 64256 64256 76
Width: 525
Flags: HW
TeX: 610 0
HStem: -0 75<4.11126 83 167 235.899 262.964 333 417 515.587> 369 75<26.1047 83 167 255.943 417 505.943> 540 75<188.095 332.388 425.642 511.019>
VStem: 2 236<2.00391 72.9881> 83 84<75 369 444 519.076> 333 84<75 369 444 523>
LayerCount: 2
Fore
SplineSet
2 38 m 0xf4
 2 74 27 75 41 75 c 0
 55 75 69 75 83 75 c 1
 83 369 l 1
 63 369 l 2
 26 369 24 391 24 406 c 0
 24 418 25 444 64 444 c 2
 83 444 l 1
 83 477 l 2
 83 504 83 557 165 591 c 0
 209 609 258 615 305 615 c 2
 308 615 l 2
 360 615 378 605 395 592 c 1
 428 608 453 615 491 615 c 0
 553 615 571 579 571 556 c 0
 571 533 554 514 529 514 c 0
 519 514 502 518 491 539 c 1
 487 539 483 540 479 540 c 0
 414 540 417 497 417 476 c 2
 417 444 l 1
 468 444 l 2
 483 444 508 443 508 407 c 0
 508 371 487 369 469 369 c 2
 417 369 l 1
 417 75 l 1
 477 75 l 2
 493 75 518 73 518 38 c 0
 518 1 492 0 480 -0 c 2
 301 -0 l 2
 285 0 261 3 261 35 c 0
 261 54 262 75 302 75 c 2
 333 75 l 1
 333 490 l 1
 337 523 l 1
 333 536 l 1
 320 539 304 540 289 540 c 2
 286 540 l 2
 244 540 189 533 171 502 c 0
 167 494 167 486 167 477 c 2
 167 444 l 1
 218 444 l 2
 233 444 258 443 258 407 c 0
 258 371 237 369 219 369 c 2
 167 369 l 1
 167 75 l 1xec
 199 75 l 2
 213 75 238 74 238 37 c 0
 238 1 212 0 200 -0 c 2
 42 -0 l 2
 28 0 2 0 2 38 c 0xf4
EndSplineSet
Ligature2: "Latin ligatures subtable" f f
EndChar

StartChar: fi
Encoding: 64257 64257 77
Width: 525
Flags: HW
TeX: 610 0
HStem: -0 75<6.03279 89 173 248.179 276.228 351 435 517.894> 369 75<28.1062 89 173 351> 488 127<347.905 401.784> 540 75<193.57 341>
VStem: 4 246<2.01192 72.9881> 89 84<75 369 444 518.575> 274 246<2.01192 72.9417> 341 93<495.265 538.045> 351 84<75 369>
LayerCount: 2
Fore
SplineSet
4 38 m 0xd8
 4 74 29 75 43 75 c 0
 58 75 74 75 89 75 c 1
 89 369 l 1
 65 369 l 2
 51 369 26 369 26 406 c 0
 26 444 52 444 65 444 c 2
 89 444 l 1
 89 483 l 2
 89 588 219 615 322 615 c 0xd4
 409 615 434 567 434 535 c 0
 434 504 409 488 387 488 c 0
 362 488 340 507 341 537 c 1xe5
 328 539 313 540 299 540 c 0
 256 540 194 533 176 501 c 0
 172 494 173 485 173 477 c 2
 173 444 l 1
 279 444 l 2
 287 444 293 446 301 446 c 2
 396 446 l 2
 438 446 435 419 435 402 c 2
 435 75 l 1xd480
 481 75 l 2
 494 75 520 74 520 38 c 0
 520 1 495 0 482 -0 c 2
 312 -0 l 2
 301 0 274 1 274 36 c 0xd2
 274 74 297 75 313 75 c 2
 351 75 l 1
 351 369 l 1
 173 369 l 1
 173 75 l 1xd480
 211 75 l 2
 224 75 251 74 250 37 c 1
 251 1 223 0 212 -0 c 2
 44 -0 l 2
 28 0 4 1 4 38 c 0xd8
EndSplineSet
Ligature2: "Latin ligatures excepting Turkic subtable" f i
EndChar

StartChar: fl
Encoding: 64258 64258 78
Width: 525
Flags: HW
TeX: 610 0
HStem: -0 75<6.03279 89 173 246.515 278.174 351 435 517.894> 369 75<28.1062 89 173 351> 540 75<197.132 351>
VStem: 4 245<2.26758 73.0345> 89 84<75 369 444 518.749> 276 244<2.01192 72.8906> 351 84<75 369 444 539.152>
LayerCount: 2
Fore
SplineSet
4 38 m 0xf0
 4 74 29 75 43 75 c 0
 58 75 74 75 89 75 c 1
 89 369 l 1
 65 369 l 2
 51 369 26 369 26 406 c 0
 26 444 52 444 65 444 c 2
 89 444 l 1
 89 476 l 2
 89 496 88 508 96 525 c 0
 110 556 158 612 314 615 c 1
 335 615 l 2
 377 615 383 610 393 610 c 2
 404 610 l 2
 429 610 435 592 435 572 c 2
 435 75 l 1
 481 75 l 2
 494 75 520 74 520 38 c 0
 520 1 495 0 482 -0 c 2
 314 -0 l 2
 303 0 276 1 276 35 c 0xe4
 276 75 298 75 315 75 c 2
 351 75 l 1
 351 369 l 1
 173 369 l 1
 173 75 l 1xea
 207 75 l 2
 225 75 249 75 249 38 c 0
 249 2 223 0 210 -0 c 2
 44 -0 l 2
 28 0 4 1 4 38 c 0xf0
173 444 m 1xea
 351 444 l 1
 351 538 l 1
 333 539 315 540 297 540 c 0
 215 540 185 517 176 501 c 0
 172 494 173 485 173 477 c 2
 173 444 l 1xea
EndSplineSet
Ligature2: "Latin ligatures subtable" f l
EndChar

StartChar: ffi
Encoding: 64259 64259 79
Width: 525
Flags: HW
TeX: 610 0
HStem: 0 75<-8.69203 46 129 165.014 184.855 221 304 339.877 360.521 396 479 533.795> 369 75<129 221 304 396> 539 76<139.957 231 314.759 421.5>
VStem: -11 178<2.15552 72.6094> 46 83<75 369 444 526.726> 221 83<75 369 444 526.767> 358 178<2.24281 73.1652> 385 93<495.603 537.556> 396 83<75 369>
LayerCount: 2
Fore
SplineSet
-11 41 m 0xf4
 -11 69 9 75 29 75 c 2
 46 75 l 1
 46 369 l 1
 25 373 17 384 17 408 c 0
 17 436 36 442 46 444 c 1
 46 477 l 2
 46 587 143 615 216 615 c 0
 246 615 263 606 281 589 c 1
 286 591 325 615 391 615 c 0
 452 615 478 569 478 536 c 0
 478 505 455 488 432 488 c 0
 416 488 384 499 385 538 c 1xed
 381 539 378 539 374 539 c 0
 309 539 304 500 304 484 c 2
 304 444 l 1
 353 444 l 1
 368 445 357 446 391 446 c 2
 439 446 l 2
 481 446 479 421 479 402 c 2
 479 75 l 1xe480
 498 75 l 2
 511 75 536 74 536 37 c 0
 536 28 536 0 499 0 c 2
 395 0 l 2
 384 0 358 1 358 39 c 0xe6
 358 62 370 75 393 75 c 2
 396 75 l 1
 396 369 l 1
 304 369 l 1
 304 75 l 1
 306 75 l 2
 320 75 342 72 342 37 c 1
 343 14 330 0 307 -0 c 2
 221 -0 l 2
 181 0 183 30 183 39 c 0
 182 56 190 75 221 75 c 1
 221 369 l 1
 129 369 l 1
 129 75 l 1xec80
 132 75 l 2
 155 75 167 62 167 39 c 0xf4
 167 26 168 0 129 0 c 2xec
 25 0 l 2
 -8 0 -11 22 -11 41 c 0xf4
129 444 m 1
 221 444 l 1
 221 492 l 2
 221 516 211 508 210 538 c 1
 206 539 203 539 199 539 c 0
 133 539 129 500 129 483 c 0xec
 129 470 129 457 129 444 c 1
EndSplineSet
Ligature2: "Latin ligatures excepting Turkic subtable" ff i
Ligature2: "Latin ligatures excepting Turkic subtable" f f i
EndChar

StartChar: ffl
Encoding: 64260 64260 80
Width: 525
Flags: HW
TeX: 610 0
HStem: 0 75<-8.55249 46 129 163.696 304 338.995 361.193 396 479 533.779> 369 75<129 221 304 396> 540 75<140.338 223.542 314.883 396>
VStem: -11 177<2.11908 72.7061> 46 83<75 369 444 527.647> 184 157<2.19727 72.7398> 221 83<75 369 444 527.513> 359 177<1.96533 72.9881> 396 83<75 369 444 539>
LayerCount: 2
Fore
SplineSet
-11 41 m 0xf0
 -11 59 -2 75 27 75 c 2
 46 75 l 1
 46 369 l 1
 26 373 17 385 17 407 c 2
 17 408 l 2
 17 436 36 442 46 444 c 1
 46 478 l 2
 46 588 142 615 217 615 c 0
 253 615 271 603 285 591 c 1
 294 596 328 615 392 615 c 0
 423 615 427 610 438 610 c 2
 443 610 l 2
 465 610 479 604 479 572 c 2
 479 75 l 1xe880
 498 75 l 2
 513 75 536 74 536 37 c 0
 536 8 518 0 500 0 c 2
 397 0 l 2
 378 0 359 4 359 38 c 0xe1
 359 71 381 75 396 75 c 1
 396 369 l 1
 304 369 l 1
 304 75 l 1xe280
 323 75 342 67 341 37 c 1
 342 20 334 0 305 0 c 2
 222 0 l 2
 204 0 184 5 184 39 c 0xe4
 184 69 202 74 221 75 c 1
 221 369 l 1
 129 369 l 1
 129 75 l 1xea
 131 75 l 2
 156 75 166 58 166 38 c 0
 166 7 149 0 128 0 c 2
 23 0 l 2
 -4 0 -11 18 -11 41 c 0xf0
129 444 m 1xea
 221 444 l 1
 221 482 l 2
 221 512 225 514 225 520 c 0
 225 523 224 528 220 539 c 1
 212 540 208 540 201 540 c 0
 125 540 129 491 129 478 c 2
 129 444 l 1xea
304 444 m 1
 396 444 l 1
 396 539 l 1
 378 539 l 2xe280
 301 539 304 496 304 478 c 2
 304 444 l 1
EndSplineSet
Ligature2: "Latin ligatures subtable" ff l
Ligature2: "Latin ligatures subtable" f f l
EndChar

StartChar: uni2423
Encoding: 9251 9251 81
Width: 525
Flags: HW
TeX: 444 111
HStem: -138 53<96 427>
VStem: 43 53<-85 239.638> 427 53<-85 239.577>
LayerCount: 2
Fore
SplineSet
43 -98 m 2
 43 210 l 1
 44 236 60 240 69 240 c 0
 94 240 96 220 96 207 c 2
 96 -85 l 1
 427 -85 l 1
 427 207 l 2
 427 219 430 240 454 240 c 0
 470 240 480 228 480 210 c 2
 480 -99 l 2
 480 -120 479 -138 442 -138 c 2
 78 -138 l 2
 42 -138 43 -119 43 -98 c 2
EndSplineSet
EndChar

StartChar: exclam
Encoding: 33 33 82
Width: 525
Flags: HW
TeX: 610 0
HStem: 0 149<210.25 313.625> 222 397<209.314 314.888>
VStem: 187 149<23.25 126.879 397 596.792>
LayerCount: 2
Fore
SplineSet
187 75 m 0
 187 120 224 149 262 149 c 0
 301 149 336 118 336 75 c 0
 336 37 306 0 262 0 c 0
 223 0 187 32 187 75 c 0
187 545 m 0
 187 591 225 619 262 619 c 0
 301 619 336 590 336 545 c 2
 336 526 l 1
 322 257 l 2
 320 227 304 222 284 222 c 0
 281 222 278 223 275 223 c 2
 247 223 l 2
 245 223 242 222 240 222 c 0
 200 222 202 248 201 267 c 2
 188 527 l 2
 188 533 187 539 187 545 c 0
EndSplineSet
EndChar

StartChar: quotedbl
Encoding: 34 34 83
Width: 525
Flags: HW
TeX: 610 0
HStem: 336 275<138.222 209.079 315.954 385.696>
VStem: 132 84<339.893 605.619> 308 84<339.596 605.638>
LayerCount: 2
Fore
SplineSet
132 564 m 0
 132 605 163 611 174 611 c 0
 188 611 216 602 216 565 c 0
 216 546 215 527 212 373 c 0
 211 354 204 336 175 336 c 0
 132 336 137 364 136 384 c 0
 133 528 132 546 132 564 c 0
308 565 m 0
 308 598 332 611 350 611 c 0
 364 611 392 602 392 565 c 0
 392 546 391 527 388 373 c 0
 387 338 366 336 348 336 c 2
 346 336 l 2
 308 336 308 353 308 565 c 0
EndSplineSet
EndChar

StartChar: numbersign
Encoding: 35 35 84
Width: 525
Flags: HW
TeX: 610 0
HStem: 0 21G<132 148 304 320> 156 76<39.0693 120 205 292 377 484.77> 379 76<39.4751 147 233 319 405 485.255> 590 20G<192.5 222.5 364.5 391>
VStem: 106 75<4.15176 152.196> 172 75<458.483 606.484> 278 75<4.15176 152.196> 344 75<458.53 606.296>
DStem2: 120 156 181 40 0.124329 0.992241<-120.286 0 85.9783 224.627 310.729 429.883> 292 156 353 40 0.124329 0.992241<-120.286 0 85.9783 224.627 310.729 430.921>
LayerCount: 2
Fore
SplineSet
35 194 m 0
 35 214 49 224 55 227 c 0
 64 232 75 232 85 232 c 2
 129 232 l 1
 147 379 l 1
 79 379 l 2
 38 379 35 409 35 416 c 0
 35 426 41 455 82 455 c 2
 157 455 l 1
 158 467 160 478 172 571 c 0
 172 573 175 610 210 610 c 0
 235 610 247 589 247 574 c 0
 247 560 243 530 233 455 c 1
 329 455 l 1
 330 467 332 478 344 571 c 0xf5
 344 573 347 610 382 610 c 0
 400 610 419 595 419 575 c 0xf5
 419 562 415 531 405 455 c 1
 440 455 l 2
 450 455 461 455 470 450 c 0
 482 443 489 431 489 417 c 0
 489 397 475 387 469 384 c 0
 460 379 449 379 439 379 c 2
 395 379 l 1
 377 232 l 1
 445 232 l 2
 486 232 489 202 489 195 c 0
 489 185 484 156 443 156 c 2
 367 156 l 1
 366 144 365 133 353 40 c 0
 348 5 325 0 315 0 c 0
 293 0 278 19 278 36 c 0
 278 47 281 74 292 156 c 1
 195 156 l 1
 194 144 193 133 181 40 c 0
 176 5 153 0 143 0 c 0
 121 0 106 19 106 36 c 0xfa
 106 47 109 74 120 156 c 1
 85 156 l 2
 75 156 64 156 55 161 c 0
 43 168 35 180 35 194 c 0
205 232 m 1xf0
 301 232 l 1
 319 379 l 1
 223 379 l 1
 205 232 l 1xf0
EndSplineSet
EndChar

StartChar: dollar
Encoding: 36 36 85
Width: 525
Flags: HW
TeX: 694 83
HStem: -2 77<178.736 224 300 350.225> 537 76<170.325 224 300 349.051>
VStem: 58 79<116.611 211.745 403.02 505.703> 224 76<-80.6584 0.866699 75 267 368 536 609.936 691.403> 387 79<109.925 227.229 411.358 500.826>
CounterMasks: 1 38
LayerCount: 2
Fore
SplineSet
58 172 m 0
 58 208 86 217 100 217 c 0
 123 217 137 202 141 184 c 0
 145 165 134 98 224 75 c 1
 224 283 l 1
 110 304 58 376 58 448 c 0
 58 487 76 592 224 613 c 1
 224 652 l 2
 224 669 225 694 260 694 c 0
 302 694 300 667 300 651 c 2
 300 613 l 1
 446 595 466 494 466 452 c 0
 466 421 445 406 424 406 c 0
 407 406 391 415 385 434 c 0
 379 453 393 518 300 536 c 1
 300 353 l 1
 419 329 466 246 466 175 c 0
 466 75 394 10 300 -2 c 1
 300 -40 l 2
 300 -55 301 -83 262 -83 c 0
 222 -83 224 -54 224 -41 c 2
 224 -2 l 1
 121 10 58 82 58 172 c 0
137 452 m 0
 137 418 163 383 224 368 c 1
 224 537 l 1
 144 523 137 471 137 452 c 0
300 75 m 1
 382 91 387 152 387 171 c 0
 387 209 361 250 300 267 c 1
 300 75 l 1
EndSplineSet
EndChar

StartChar: percent
Encoding: 37 37 86
Width: 525
Flags: HW
TeX: 694 83
HStem: -83 77<386.349 417.832> 105 78<385.914 417.827> 428 77<107.322 137.6> 616 78<106.267 137.827>
VStem: 35 68<505.769 615.732> 142 68<505.771 615.732> 315 67<-5.23086 104.732> 422 68<-5.2287 104.732>
DStem2: 87 -18 166 -45 0.373051 0.927811<-24.1149 754.934>
LayerCount: 2
Fore
SplineSet
35 561 m 0
 35 665 87 694 122 694 c 0
 157 694 210 665 210 561 c 0
 210 457 158 428 123 428 c 0
 88 428 35 457 35 561 c 0
81 -42 m 0
 81 -33 84 -26 87 -18 c 2
 357 653 l 2
 363 668 373 694 402 694 c 0
 423 694 443 678 443 653 c 0
 443 643 440 636 437 629 c 2
 166 -45 l 2
 161 -58 151 -83 122 -83 c 0
 103 -83 81 -67 81 -42 c 0
103 563 m 0
 103 526 113 505 123 505 c 0
 135 505 142 532 142 559 c 0
 142 597 132 616 122 616 c 0
 112 616 103 599 103 563 c 0
315 50 m 0
 315 154 367 183 402 183 c 0
 437 183 490 154 490 50 c 0
 490 -54 437 -83 402 -83 c 0
 367 -83 315 -54 315 50 c 0
382 52 m 0
 382 15 392 -6 402 -6 c 0
 414 -6 422 21 422 48 c 0
 422 86 412 105 402 105 c 0
 392 105 382 88 382 52 c 0
EndSplineSet
EndChar

StartChar: ampersand
Encoding: 38 38 87
Width: 525
Flags: HW
TeX: 610 0
HStem: -8 75<122.509 201.884 342.546 414.115> 369 75<408.549 487.899> 543 76<176.788 233.799>
VStem: 27 84<75.2363 215.892> 97 67<368.395 531.482> 243 68<418.496 538.788> 329 161<373.379 441.421>
LayerCount: 2
Fore
SplineSet
27 145 m 0xf6
 27 227 69 263 123 313 c 1
 103 371 97 427 97 465 c 0xee
 97 554 142 619 210 619 c 0
 286 619 311 536 311 475 c 0
 311 438 304 381 205 288 c 1
 224 252 l 1
 268 178 l 1
 298 239 320 307 345 373 c 1
 334 381 329 394 329 407 c 0
 329 421 334 444 367 444 c 2
 453 444 l 2
 487 444 490 422 490 406 c 0
 491 372 464 369 453 369 c 2
 415 369 l 1
 415 369 367 220 313 116 c 1
 325 103 358 68 389 68 c 0
 434 68 399 137 453 137 c 0
 466 137 486 131 486 103 c 0
 486 68 464 -8 392 -8 c 0
 337 -8 296 33 272 57 c 1
 241 20 198 -8 149 -8 c 0
 65 -7 27 75 27 145 c 0xf6
111 147 m 0xf6
 111 122 116 67 153 67 c 0
 170 67 196 76 228 114 c 1
 228 115 l 1
 204 150 167 212 154 238 c 1
 131 214 111 201 111 147 c 0xf6
164 467 m 0
 164 427 172 386 177 367 c 1
 193 382 243 432 243 475 c 0
 243 495 237 543 209 543 c 0xee
 191 543 164 523 164 467 c 0
EndSplineSet
EndChar

StartChar: quoteright
Encoding: 8217 8217 88
Width: 525
Flags: HW
TeX: 610 0
HStem: 461 150<208.564 289.514>
VStem: 187 179<482.375 559.727>
LayerCount: 2
Fore
SplineSet
174 294 m 0
 174 314 194 321 204 327 c 0
 227 340 281 378 290 466 c 1
 282 464 273 461 262 461 c 0
 219 461 187 493 187 536 c 0
 187 573 213 611 262 611 c 0
 324 611 366 551 366 477 c 0
 366 334 244 253 216 253 c 0
 202 253 174 274 174 294 c 0
EndSplineSet
EndChar

StartChar: parenleft
Encoding: 40 40 89
Width: 525
Flags: HW
TeX: 694 83
VStem: 166 84<173.771 440.185>
LayerCount: 2
Fore
SplineSet
166 306 m 0
 166 460 240 602 366 684 c 0
 380 693 385 694 398 694 c 2
 400 694 l 2
 431 694 436 676 436 665 c 0
 436 647 422 640 411 632 c 0
 306 558 250 437 250 306 c 0
 250 174 309 49 416 -24 c 0
 426 -31 436 -38 436 -54 c 0
 436 -63 433 -82 402 -83 c 1
 398 -83 l 2
 380 -83 374 -78 365 -72 c 0
 240 10 166 152 166 306 c 0
EndSplineSet
EndChar

StartChar: parenright
Encoding: 41 41 90
Width: 525
Flags: HW
TeX: 694 83
VStem: 274 84<173.11 439.177>
LayerCount: 2
Fore
SplineSet
87 -54 m 0
 87 -34 108 -25 117 -18 c 0
 220 56 274 180 274 306 c 0
 274 438 215 562 108 635 c 0
 102 639 87 647 87 665 c 0
 87 672 91 694 124 694 c 2
 125 694 l 2
 139 694 142 694 159 683 c 0
 290 597 358 452 358 306 c 0
 358 152 283 9 158 -73 c 0
 144 -82 138 -83 125 -83 c 0
 93 -83 87 -66 87 -54 c 0
EndSplineSet
EndChar

StartChar: asterisk
Encoding: 42 42 91
Width: 525
Flags: HW
TeX: 527 0
HStem: 359 76<70.9155 95 428 452.107>
VStem: 225 74<87.4526 249.94 361.06 523.547>
LayerCount: 2
Fore
SplineSet
67 214 m 0
 67 237 84 245 95 251 c 2
 198 305 l 1
 198 306 l 1
 95 359 l 2
 84 364 67 375 67 397 c 0
 67 418 85 435 105 435 c 0
 119 435 120 433 230 361 c 1
 230 363 225 457 225 489 c 2
 225 500 l 1
 229 514 243 527 262 527 c 0
 304 527 299 483 299 483 c 1
 299 444 294 361 294 361 c 1
 397 428 404 435 417 435 c 0
 439 435 456 418 456 397 c 0
 456 375 439 365 428 359 c 2
 325 306 l 1
 325 305 l 1
 428 251 l 2
 439 245 456 236 456 214 c 0
 456 193 438 175 418 175 c 0
 404 175 404 178 294 250 c 1
 294 248 299 153 299 121 c 2
 299 111 l 1
 295 97 281 84 262 84 c 0
 220 84 224 128 224 128 c 1
 224 167 230 250 230 250 c 1
 126 182 119 175 106 175 c 0
 89 175 67 188 67 214 c 0
EndSplineSet
EndChar

StartChar: plus
Encoding: 43 43 92
Width: 525
Flags: HW
TeX: 530 -80
HStem: 268 75<41.193 224 300 482.084>
VStem: 224 76<84.9517 268 343 526.048>
LayerCount: 2
Fore
SplineSet
37 305 m 0
 37 323 51 339 69 342 c 0
 76 343 84 343 91 343 c 2
 224 343 l 1
 224 484 l 2
 224 525 251 530 262 530 c 0
 280 530 296 517 299 498 c 0
 300 491 300 484 300 477 c 2
 300 343 l 1
 433 343 l 2
 440 343 448 343 455 342 c 0
 473 339 486 323 486 305 c 0
 486 295 482 268 442 268 c 2
 300 268 l 1
 300 127 l 2
 300 85 273 81 262 81 c 0
 244 81 228 94 225 113 c 0
 224 120 224 127 224 134 c 2
 224 268 l 1
 82 268 l 2
 41 268 37 296 37 305 c 0
EndSplineSet
EndChar

StartChar: comma
Encoding: 44 44 93
Width: 525
Flags: HW
TeX: 149 138
HStem: -138 21G<207 232.5> 0 149<208.486 273.21>
VStem: 187 170<23.0507 110.331>
LayerCount: 2
Fore
SplineSet
175 -97 m 0
 175 -54 241 -83 275 1 c 1
 272 1 268 0 265 0 c 0
 211 0 187 38 187 75 c 0
 187 116 216 149 262 149 c 0
 310 149 357 108 357 39 c 0
 357 -77 250 -138 215 -138 c 0
 199 -138 175 -116 175 -97 c 0
EndSplineSet
EndChar

StartChar: hyphen
Encoding: 45 45 94
Width: 525
Flags: HW
TeX: 444 0
HStem: 185 75<89.0456 434.88>
LayerCount: 2
Fore
SplineSet
87 219 m 0
 87 232 86 260 126 260 c 2
 399 260 l 2
 429 260 437 243 437 223 c 0
 437 213 438 186 401 185 c 1
 122 185 l 1
 93 186 87 204 87 219 c 0
EndSplineSet
EndChar

StartChar: period
Encoding: 46 46 95
Width: 525
Flags: HW
TeX: 149 0
HStem: 0 149<209.875 313.625>
VStem: 187 149<23.25 126.25>
LayerCount: 2
Fore
SplineSet
187 75 m 0
 187 113 218 149 262 149 c 0
 301 149 336 118 336 75 c 0
 336 37 306 0 262 0 c 0
 223 0 187 32 187 75 c 0
EndSplineSet
EndChar

StartChar: slash
Encoding: 47 47 96
Width: 525
Flags: HW
TeX: 694 83
DStem2: 66 -20 133 -55 0.428708 0.903443<-26.4958 782.732>
LayerCount: 2
Fore
SplineSet
58 -46 m 0
 58 -36 62 -28 66 -20 c 2
 386 656 l 2
 391 666 401 694 428 694 c 0
 450 694 466 675 466 657 c 0
 466 648 463 639 459 632 c 2
 133 -55 l 2
 128 -66 118 -83 96 -83 c 0
 77 -83 58 -67 58 -46 c 0
EndSplineSet
EndChar

StartChar: zero
Encoding: 48 48 97
Width: 525
Flags: HW
TeX: 610 0
HStem: -8 75<203.823 319.955> 544 75<199.351 322.758>
VStem: 42 84<169.818 448.79> 398 84<170.24 449.47>
LayerCount: 2
Fore
SplineSet
42 306 m 0
 42 548 171 619 262 619 c 0
 354 619 482 547 482 306 c 0
 482 60 350 -8 262 -8 c 0
 174 -8 42 59 42 306 c 0
126 315 m 0
 126 120 207 67 262 67 c 0
 316 67 398 121 398 315 c 0
 398 500 313 544 261 544 c 0
 207 544 126 496 126 315 c 0
EndSplineSet
Substitution2: "LGC old numerals subtable" zerooldstyle
EndChar

StartChar: one
Encoding: 49 49 98
Width: 525
Flags: HW
TeX: 610 0
HStem: -0 75<104.749 234 318 446.959> 422 78<100.012 193.788> 599 20G<273.5 298.5>
VStem: 234 84<75 460> 249 69<555.153 616.602>
LayerCount: 2
Fore
SplineSet
97 460 m 0
 97 502 128 495 151 500 c 0
 197 511 230 552 249 592 c 0
 255 606 263 619 284 619 c 0xe8
 313 619 318 598 318 580 c 2xe8
 318 75 l 1
 411 75 l 2
 441 75 450 57 449 38 c 0
 449 21 445 0 412 -0 c 2
 136 -0 l 1
 112 1 102 19 102 37 c 0
 102 54 109 75 141 75 c 2
 234 75 l 1
 234 460 l 1xf0
 195 431 157 422 134 422 c 0
 104 422 97 439 97 460 c 0
EndSplineSet
Substitution2: "LGC old numerals subtable" oneoldstyle
EndChar

StartChar: two
Encoding: 50 50 99
Width: 525
Flags: HW
TeX: 610 0
HStem: -0 75<183 388> 544 75<171.139 321.683>
VStem: 52 84<412.833 508.267> 388 84<75 120.942 343.685 485.165>
LayerCount: 2
Fore
SplineSet
52 36 m 0
 52 58 58 63 69 73 c 0
 302 267 388 322 388 420 c 0
 388 506 304 544 233 544 c 0
 169 544 139 494 136 455 c 0
 136 453 137 408 94 408 c 0
 78 408 52 417 52 454 c 0
 52 530 126 619 249 619 c 0
 373 619 472 540 472 421 c 0
 472 293 361 223 183 75 c 1
 388 75 l 1
 388 84 l 2
 388 121 410 123 428 123 c 2
 430 123 l 2
 449 123 472 122 472 84 c 2
 472 43 l 2
 472 28 473 0 433 -0 c 2
 91 -0 l 2
 75 0 53 2 52 36 c 0
EndSplineSet
Substitution2: "LGC old numerals subtable" twooldstyle
EndChar

StartChar: three
Encoding: 51 51 100
Width: 525
Flags: HW
TeX: 610 0
HStem: -8 75<164.652 346.974> 292 80<178.232 322.269> 544 75<169.41 342.057>
VStem: 43 83<99.0541 177.915> 73 85<464.321 527.831> 367 84<414.744 520.445> 396 84<115.268 245.808>
LayerCount: 2
Fore
SplineSet
43 138 m 0
 43 169 65 183 85 183 c 0
 108 183 123 166 126 147 c 0
 128 136 124 107 168 86 c 0
 185 78 215 67 262 67 c 0
 367 67 396 133 396 180 c 0
 396 223 375 292 251 292 c 2xf2
 207 292 l 2
 190 292 174 301 174 330 c 0
 174 374 209 367 267 372 c 0
 320 376 367 420 367 474 c 0
 367 502 348 544 263 544 c 0
 239 544 169 541 158 508 c 0
 156 503 156 458 114 458 c 0
 86 458 73 479 73 505 c 0
 73 551 114 619 263 619 c 0
 387 619 451 553 451 474 c 0xec
 451 449 444 381 372 331 c 1
 460 296 480 225 480 179 c 0
 480 79 405 -8 262 -8 c 0
 137 -8 43 50 43 138 c 0
EndSplineSet
Substitution2: "LGC old numerals subtable" threeoldstyle
EndChar

StartChar: four
Encoding: 52 52 101
Width: 525
Flags: HW
TeX: 610 0
HStem: -0 75<216.136 316 384 483.959> 168 75<115 316 384 493.264> 599 20G<283 364>
VStem: 316 68<75 168 243 560>
DStem2: 45 269 115 243 0.535361 0.844623<15.5151 390.548>
LayerCount: 2
Fore
SplineSet
29 207 m 0
 29 214 29 221 29 228 c 0
 29 249 32 247 45 269 c 2
 251 594 l 2
 265 616 272 619 294 619 c 2
 346 619 l 2
 382 619 384 598 384 575 c 2
 384 243 l 1
 459 243 l 2
 490 243 495 225 495 206 c 0
 495 192 494 169 458 168 c 1
 384 168 l 1
 384 75 l 1
 439 75 l 2
 442 75 445 76 448 76 c 0
 478 76 487 57 486 38 c 0
 486 22 483 0 447 -0 c 2
 252 -0 l 2
 236 0 214 2 214 38 c 0
 214 68 231 76 252 76 c 0
 255 76 258 75 261 75 c 2
 316 75 l 1
 316 168 l 1
 67 168 l 2
 50 168 29 170 29 207 c 0
115 243 m 1
 316 243 l 1
 316 560 l 1
 115 243 l 1
EndSplineSet
Substitution2: "LGC old numerals subtable" fouroldstyle
EndChar

StartChar: five
Encoding: 53 53 102
Width: 525
Flags: HW
TeX: 610 0
HStem: -8 75<167.011 332.544> 310 76<184.543 344.199> 535 76<164 434.593>
VStem: 52 86<93.3105 175.143> 80 84<360 535> 388 84<121.114 264.13>
LayerCount: 2
Fore
SplineSet
52 137 m 0
 52 163 71 181 94 181 c 0
 138 181 136 134 138 125 c 0xf4
 147 92 189 67 245 67 c 0
 324 67 388 108 388 190 c 0
 388 239 364 310 273 310 c 0
 205 310 173 283 159 267 c 0
 143 248 139 248 119 248 c 0
 79 248 80 274 80 294 c 2
 80 572 l 1
 79 610 106 611 119 611 c 2
 397 611 l 2
 416 611 437 608 437 574 c 0xec
 437 561 435 535 400 535 c 2
 164 535 l 1
 164 360 l 1xec
 203 381 246 386 274 386 c 0
 399 386 472 300 472 189 c 0
 472 71 379 -8 245 -8 c 0
 135 -8 52 55 52 137 c 0
EndSplineSet
Substitution2: "LGC old numerals subtable" fiveoldstyle
EndChar

StartChar: six
Encoding: 54 54 103
Width: 525
Flags: HW
TeX: 610 0
HStem: -8 75<194.059 341.981> 323 75<187.822 345.158> 544 75<234.086 368.959>
VStem: 45 92<144.478 369.563> 369 85<480.651 538.91> 395 84<119.213 273.414>
LayerCount: 2
Fore
SplineSet
45 301 m 0
 45 546 205 619 321 619 c 0
 427 619 454 559 454 519 c 0
 454 484 425 475 412 475 c 0
 370 475 369 521 369 522 c 0xf8
 364 540 342 544 319 544 c 0
 253 544 142 502 130 340 c 1
 168 374 219 398 286 398 c 0
 347 398 389 381 424 344 c 0
 464 303 479 258 479 195 c 0xf4
 479 121 454 68 391 25 c 0
 348 -4 301 -8 265 -8 c 0
 177 -8 45 35 45 301 c 0
137 220 m 0
 137 171 161 67 264 67 c 0
 307 67 333 77 360 103 c 0
 386 128 395 153 395 197 c 0
 395 224 394 267 343 304 c 0
 331 312 313 323 268 323 c 0xf4
 192 323 137 273 137 220 c 0
EndSplineSet
Substitution2: "LGC old numerals subtable" sixoldstyle
EndChar

StartChar: seven
Encoding: 55 55 104
Width: 525
Flags: HW
TeX: 610 0
HStem: -8 21G<197.5 213> 488 139<45.1052 124.736> 535 76<127 364>
VStem: 43 84<490.604 535> 161 82<-2.70236 187.201>
LayerCount: 2
Fore
SplineSet
43 532 m 2
 43 587 l 2
 43 604 44 627 82 627 c 0xd8
 127 627 110 612 134 611 c 1
 440 611 l 2
 456 611 480 608 480 574 c 0
 480 537 464 548 398 466 c 0
 230 257 250 42 243 21 c 0
 238 6 223 -8 203 -8 c 0xb8
 192 -8 161 -3 161 42 c 0
 163 213 227 392 364 535 c 1
 127 535 l 1xb8
 127 527 l 2
 127 490 105 488 87 488 c 2
 83 488 l 2
 42 488 43 515 43 532 c 2
EndSplineSet
Substitution2: "LGC old numerals subtable" sevenoldstyle
EndChar

StartChar: eight
Encoding: 56 56 105
Width: 525
Flags: HW
TeX: 610 0
HStem: -8 75<180.86 345.813> 292 75<179.875 343.05> 544 75<179.817 344.242>
VStem: 43 84<115.048 245.543> 58 84<402.633 508.693> 382 83<401.586 509.537> 396 84<113.607 245.331>
LayerCount: 2
Fore
SplineSet
43 179 m 0
 43 240 73 297 166 330 c 1
 90 352 58 406 58 457 c 0
 58 543 125 619 261 619 c 0
 420 619 465 523 465 457 c 0xec
 465 406 435 356 357 330 c 1
 446 303 480 239 480 179 c 0
 480 75 403 -8 262 -8 c 0
 117 -8 43 78 43 179 c 0
127 180 m 0xf2
 127 102 195 67 262 67 c 0
 340 67 396 109 396 179 c 0
 396 247 344 292 262 292 c 0
 177 292 127 245 127 180 c 0xf2
142 456 m 0
 142 395 203 367 262 367 c 0xec
 326 367 382 397 382 456 c 0
 382 517 321 544 262 544 c 0
 198 544 142 515 142 456 c 0
EndSplineSet
Substitution2: "LGC old numerals subtable" eightoldstyle
EndChar

StartChar: nine
Encoding: 57 57 106
Width: 525
Flags: HW
TeX: 610 0
HStem: -8 75<156.029 298.073> 212 76<177.111 335.405> 544 75<181.001 330.317>
VStem: 45 84<338.125 492.184> 70 85<72.0903 130.349> 387 92<240.836 470.894>
LayerCount: 2
Fore
SplineSet
45 416 m 0
 45 488 69 541 132 584 c 0
 148 595 185 619 265 619 c 0
 351 619 479 577 479 310 c 0
 479 62 326 -8 215 -8 c 0
 95 -8 70 52 70 92 c 0
 70 127 98 136 111 136 c 0
 153 136 155 90 155 89 c 0xec
 157 81 165 67 216 67 c 0
 285 67 379 107 394 271 c 1
 356 237 305 212 237 212 c 0
 171 212 141 234 128 243 c 0
 46 301 45 381 45 416 c 0
129 414 m 2
 129 372 139 345 165 320 c 0
 191 295 218 288 253 288 c 0
 336 288 387 340 387 391 c 0
 387 441 362 544 264 544 c 0xf4
 167 544 129 481 129 422 c 2
 129 414 l 2
EndSplineSet
Substitution2: "LGC old numerals subtable" nineoldstyle
EndChar

StartChar: less
Encoding: 60 60 109
Width: 525
Flags: HW
TeX: 570 -41
DStem2: 85 345 163 306 0.834465 0.551062<43.5968 408.654> 163 305 85 266 0.833729 -0.552174<0 364.991>
LayerCount: 2
Fore
SplineSet
56 305 m 0
 56 329 77 340 85 345 c 2
 403 555 l 2
 409 559 418 565 430 565 c 0
 449 565 468 549 468 527 c 0
 468 503 444 492 433 484 c 2
 163 306 l 1
 163 305 l 1
 433 126 l 2
 445 118 468 108 468 83 c 0
 468 65 453 46 430 46 c 0
 414 46 402 57 390 64 c 2
 85 266 l 2
 77 271 56 281 56 305 c 0
EndSplineSet
EndChar

StartChar: equal
Encoding: 61 61 110
Width: 525
Flags: HW
TeX: 424 -186
HStem: 190 75<40.9978 482.6> 346 75<40.5859 482.965>
LayerCount: 2
Fore
SplineSet
37 228 m 0
 37 248 52 261 69 264 c 0
 76 265 84 265 91 265 c 2
 443 265 l 2
 483 265 486 236 486 228 c 0
 486 217 482 190 440 190 c 2
 82 190 l 1
 43 191 37 217 37 228 c 0
EndSplineSet
Refer: 335 8722 S 1 0 0 1 0 78 2
EndChar

StartChar: greater
Encoding: 62 62 111
Width: 525
Flags: HW
TeX: 570 -41
DStem2: 134 547 91 484 0.833729 -0.552174<-42.661 322.33> 91 126 121 56 0.834465 0.551062<-41.1116 323.945>
LayerCount: 2
Fore
SplineSet
56 83 m 0
 56 107 80 118 91 126 c 2
 361 305 l 1
 361 306 l 1
 91 484 l 2
 79 492 56 503 56 528 c 0
 56 550 75 565 94 565 c 0
 110 565 122 554 134 547 c 2
 439 345 l 2
 447 340 468 329 468 305 c 0
 468 281 447 271 439 266 c 2
 121 56 l 2
 115 52 106 46 94 46 c 0
 75 46 56 61 56 83 c 0
EndSplineSet
EndChar

StartChar: question
Encoding: 63 63 112
Width: 525
Flags: HW
TeX: 610 0
HStem: 0 120<200.935 291.065> 449 21G<91.5 124> 540 75<161.31 360.265>
VStem: 61 85<454.461 522.454> 186 120<14.7144 105.286> 198 96<201.608 325.656> 378 84<471.736 519.947>
LayerCount: 2
Fore
SplineSet
61 493 m 0
 61 542 101 615 252 615 c 0
 311 615 430 610 458 519 c 0
 461 509 462 499 462 490 c 0
 462 368 294 396 294 253 c 2
 294 242 l 2
 294 219 291 200 258 200 c 2
 233 200 l 2
 200 200 198 223 198 236 c 2xf6
 198 257 l 2
 198 295 203 376 336 448 c 0
 353 457 371 464 377 484 c 0
 378 486 378 489 378 491 c 0
 378 515 346 540 252 540 c 0
 220 540 156 534 146 499 c 0
 144 493 145 449 103 449 c 0
 80 449 61 467 61 493 c 0
186 60 m 0
 186 90 211 120 246 120 c 0
 278 120 306 95 306 60 c 0
 306 30 281 0 246 0 c 0xfa
 210 0 186 29 186 60 c 0
EndSplineSet
EndChar

StartChar: at
Encoding: 64 64 113
Width: 525
Flags: HW
TeX: 610 0
HStem: -4 75<217.312 385.649> 105 75<284.512 379.642> 431 75<284.292 379.881> 539 76<218.759 363.827>
VStem: 43 68<186.068 421.836> 184 68<215.974 396.244> 412 68<215.151 392.358>
LayerCount: 2
Fore
SplineSet
43 306 m 0
 43 520 175 615 303 615 c 0
 445 615 480 483 480 329 c 2
 480 313 l 2
 480 142 387 105 332 105 c 0
 254 105 184 171 184 305 c 0
 184 460 273 506 332 506 c 0
 350 506 364 503 383 496 c 1
 368 521 342 539 303 539 c 0
 220 539 111 481 111 306 c 0
 111 122 226 71 303 71 c 0
 391 71 394 117 440 117 c 0
 461 117 480 112 480 89 c 0
 480 61 404 -4 305 -4 c 0
 183 -4 43 82 43 306 c 0
252 305 m 0
 252 205 300 180 332 180 c 0
 364 180 412 206 412 305 c 0
 412 405 364 431 332 431 c 0
 300 431 252 405 252 305 c 0
EndSplineSet
EndChar

StartChar: A
Encoding: 65 65 114
Width: 525
Flags: HW
TeX: 610 0
HStem: 0 75<28.8209 89 175 226.515 295.964 349 430.572 494.971> 150 75<207 317> 599 20G<227.5 298.5>
VStem: 27 202<2.82129 73.2827> 294 203<2.48848 72.6686>
DStem2: 89 75 175 75 0.214453 0.976734<18.4429 94.9148 171.816 419.076> 424 125 317 225 0.214453 -0.976734<-367.382 -120.62 -43.9336 32.7528>
AnchorPoint: "ogonek" 395 0 basechar 0
AnchorPoint: "below" 262 0 basechar 0
AnchorPoint: "above" 264 619 basechar 0
LayerCount: 2
Fore
SplineSet
27 38 m 1
 26 75 54 75 65 75 c 2
 89 75 l 1
 98 119 l 1
 199 576 l 2
 204 597 208 619 247 619 c 0
 258 619 269 619 280 619 c 0
 317 619 322 591 325 576 c 2
 424 125 l 2
 428 109 432 91 435 75 c 1
 457 75 l 2
 468 75 498 75 497 38 c 0
 497 22 494 0 458 0 c 2
 334 0 l 2
 318 0 294 3 294 35 c 0
 294 46 292 75 333 75 c 2
 349 75 l 1
 333 150 l 1
 190 150 l 1
 175 75 l 1
 190 75 l 2
 203 75 229 75 229 38 c 0
 229 30 229 0 190 0 c 2
 65 0 l 2
 34 0 26 18 27 38 c 1
207 225 m 1
 317 225 l 1
 306 289 264 462 262 541 c 1
 255 444 214 266 207 225 c 1
EndSplineSet
EndChar

StartChar: B
Encoding: 66 66 115
Width: 525
Flags: HW
TeX: 610 0
HStem: -0 75<18.096 84 168 361.609> 280 75<168 342.99> 535 76<18.3269 84 168 350.727>
VStem: 84 84<75 280 355 535> 378 83<390.65 511.199> 398 84<109.069 245.471>
AnchorPoint: "below" 214 0 basechar 0
AnchorPoint: "above" 214 619 basechar 0
LayerCount: 2
Fore
SplineSet
16 40 m 0
 16 73 42 75 53 75 c 2
 84 75 l 1
 84 535 l 1
 57 535 l 2
 40 535 16 536 16 572 c 0
 16 586 18 611 53 611 c 2
 288 611 l 2
 427 611 461 515 461 454 c 0xf8
 461 405 442 349 364 320 c 1
 442 302 482 244 482 169 c 0
 482 101 448 0 309 -0 c 2
 53 -0 l 1
 15 1 16 28 16 40 c 0
168 75 m 1
 287 75 l 2
 382 75 398 135 398 172 c 0xf4
 398 220 378 280 295 280 c 2
 168 280 l 1
 168 75 l 1
168 355 m 1
 267 355 l 2
 360 355 378 417 378 453 c 0xf8
 378 488 360 535 289 535 c 2
 168 535 l 1
 168 355 l 1
EndSplineSet
EndChar

StartChar: C
Encoding: 67 67 116
Width: 525
Flags: HW
TeX: 610 0
HStem: -8 75<219.78 361.716> 406 213<416.511 482.105> 544 75<219.684 355.041>
VStem: 40 84<180.657 432.774> 392 92<411.312 507.259> 400 84<105.907 193.525>
AnchorPoint: "below" 280 0 basechar 0
AnchorPoint: "above" 279 619 basechar 0
LayerCount: 2
Fore
SplineSet
40 305 m 0
 40 549 183 619 279 619 c 0xb4
 329 619 368 603 404 578 c 1
 421 604 427 619 452 619 c 0
 488 619 484 583 484 580 c 2xd4
 484 448 l 2
 484 431 485 407 445 407 c 0
 443 407 440 406 436 406 c 0
 395 406 403 437 392 467 c 0xd8
 382 496 354 544 295 544 c 0
 227 544 124 491 124 306 c 0
 124 119 227 67 296 67 c 0
 353 67 395 106 400 161 c 0
 403 197 423 195 439 195 c 2
 445 195 l 2
 462 195 484 194 484 162 c 0xb4
 484 74 397 -8 280 -8 c 0
 151 -8 40 96 40 305 c 0
EndSplineSet
EndChar

StartChar: D
Encoding: 68 68 117
Width: 525
Flags: HW
TeX: 610 0
HStem: -0 75<16.7479 78 162 321> 535 76<17.1023 78 162 314.629>
VStem: 78 84<75 535> 402 84<175.328 433.372>
AnchorPoint: "below" 215 0 basechar 0
AnchorPoint: "above" 215 619 basechar 0
LayerCount: 2
Fore
SplineSet
15 40 m 0
 15 72 41 76 52 76 c 0
 54 76 55 75 56 75 c 2
 78 75 l 1
 78 535 l 1
 54 535 l 2
 33 535 15 543 15 571 c 0
 15 584 15 611 54 611 c 2
 260 611 l 2
 441 611 486 435 486 302 c 0
 486 166 439 0 260 -0 c 2
 53 -0 l 2
 14 0 15 27 15 40 c 0
162 75 m 1
 242 75 l 2
 370 75 402 202 402 302 c 0
 402 403 370 535 242 535 c 2
 162 535 l 1
 162 75 l 1
EndSplineSet
EndChar

StartChar: E
Encoding: 69 69 118
Width: 525
Flags: HW
TeX: 610 0
HStem: -0 185<420.861 500.815> -0 75<19.8928 89 173 419> 279 75<173 290> 535 76<19.9012 89 173 397>
VStem: 89 84<75 279 354 535> 290 84<224.531 279 354 408.692> 397 83<443.426 535> 419 84<75 183.081>
AnchorPoint: "ogonek" 260 0 basechar 0
AnchorPoint: "below" 260 0 basechar 0
AnchorPoint: "above" 260 619 basechar 0
LayerCount: 2
Fore
SplineSet
18 41 m 0
 18 74 45 75 57 75 c 2
 89 75 l 1
 89 535 l 1
 60 535 l 2
 41 535 18 537 18 572 c 0
 18 585 18 611 58 611 c 2
 442 611 l 2
 481 611 480 586 480 570 c 2
 480 477 l 1
 481 443 455 441 444 441 c 2
 440 441 l 2
 396 441 397 461 397 487 c 2
 397 535 l 1
 173 535 l 1
 173 354 l 1
 290 354 l 1
 290 372 l 1
 289 409 313 411 328 411 c 2x7e
 333 411 l 2
 371 411 374 391 374 371 c 2
 374 260 l 2
 374 224 350 222 335 222 c 2
 331 222 l 2
 289 222 290 248 290 262 c 2
 290 279 l 1
 173 279 l 1
 173 75 l 1
 419 75 l 1x7d
 419 149 l 1
 420 184 441 185 463 185 c 0
 476 185 503 185 503 149 c 2
 503 43 l 2
 503 22 501 0 464 -0 c 2xbd
 55 -0 l 2
 16 0 18 30 18 41 c 0
EndSplineSet
EndChar

StartChar: F
Encoding: 70 70 119
Width: 525
Flags: HW
TeX: 610 0
HStem: 0 75<22.8118 95 178 268.965> 268 75<178 300> 535 76<23.0583 95 178 406>
VStem: 95 83<75 268 343 535> 300 84<213.531 268 343 397.692> 406 84<443.725 535>
AnchorPoint: "below" 256 0 basechar 0
AnchorPoint: "above" 256 619 basechar 0
LayerCount: 2
Fore
SplineSet
21 40 m 0
 21 73 47 75 58 75 c 2
 95 75 l 1
 95 535 l 1
 59 535 l 2
 45 535 21 537 21 572 c 0
 21 589 22 611 60 611 c 2
 452 611 l 2
 491 611 490 586 490 570 c 2
 490 478 l 1
 491 444 465 441 454 441 c 2
 450 441 l 2
 406 441 406 461 406 487 c 2
 406 535 l 1
 178 535 l 1
 178 343 l 1
 300 343 l 1
 300 361 l 1
 299 398 323 400 338 400 c 2
 343 400 l 2
 381 400 384 380 384 360 c 2
 384 249 l 2
 384 213 360 211 345 211 c 2
 341 211 l 2
 299 211 300 237 300 251 c 2
 300 268 l 1
 178 268 l 1
 178 75 l 1
 231 75 l 2
 246 75 272 74 271 38 c 1
 272 9 255 0 232 0 c 2
 60 0 l 2
 23 0 21 20 21 40 c 0
EndSplineSet
EndChar

StartChar: G
Encoding: 71 71 120
Width: 525
Flags: HW
TeX: 610 0
HStem: -8 75<203.909 319.106> -1 21G<395.5 431.5> 193 75<283.094 362 449 493.774> 543 76<204.051 325.237>
VStem: 37 84<171.417 435.423> 362 87<118.701 193 409.373 503.272>
AnchorPoint: "below" 259 0 basechar 0
AnchorPoint: "above" 259 619 basechar 0
LayerCount: 2
Fore
SplineSet
37 306 m 0
 37 550 170 619 259 619 c 0
 306 619 341 603 372 581 c 1
 392 614 397 619 416 619 c 0
 452 619 449 584 449 580 c 2
 449 443 l 2
 449 428 447 407 410 407 c 2
 406 407 l 2
 391 407 376 407 368 424 c 0
 363 435 356 543 270 543 c 0
 210 543 121 490 121 305 c 0
 121 120 210 67 269 67 c 0xbc
 344 67 358 170 362 193 c 1
 324 193 l 2
 323 193 321 192 320 192 c 0
 304 192 281 194 281 230 c 0
 281 263 299 268 319 268 c 2
 454 268 l 2
 477 268 496 267 496 227 c 0
 496 199 478 192 457 192 c 0
 454 192 452 193 449 193 c 1
 449 40 l 2
 449 26 451 -1 412 -1 c 2x7c
 402 -1 l 2x7c
 389 -1 368 1 365 31 c 1
 337 7 302 -8 259 -8 c 0
 170 -8 37 62 37 306 c 0
EndSplineSet
EndChar

StartChar: H
Encoding: 72 72 121
Width: 525
Flags: HW
TeX: 610 0
HStem: 0 75<17.1052 80 164 227.752 296.105 360 443 506.752> 280 75<164 360> 535 76<17.4851 80 164 227.895 296.577 360 443 506.838>
VStem: 15 215<2.70251 72.6006 537.577 608.456> 80 84<75 280 355 535> 294 215<2.70251 72.6006 537.548 608.456> 360 83<75 280 355 535>
AnchorPoint: "below" 262 0 basechar 0
AnchorPoint: "above" 262 619 basechar 0
LayerCount: 2
Fore
SplineSet
15 36 m 0xf0
 15 50 14 75 55 75 c 2
 80 75 l 1
 80 535 l 1xe8
 54 535 l 2
 41 535 15 535 15 573 c 0
 15 610 43 611 55 611 c 2
 191 611 l 2
 212 611 230 603 230 575 c 0xf0
 230 562 231 535 190 535 c 2
 164 535 l 1
 164 355 l 1
 360 355 l 1
 360 535 l 1xea
 334 535 l 2
 321 535 294 535 294 573 c 0
 294 610 322 611 334 611 c 2
 470 611 l 2
 491 611 509 603 509 575 c 0xe4
 509 561 509 535 468 535 c 2
 443 535 l 1
 443 75 l 1xe2
 471 75 l 2
 481 75 509 74 509 40 c 0
 509 24 507 0 469 0 c 2
 333 0 l 2
 312 0 294 8 294 36 c 0xe4
 294 50 293 75 334 75 c 2
 360 75 l 1
 360 280 l 1
 164 280 l 1
 164 75 l 1xea
 192 75 l 2
 202 75 230 74 230 40 c 0
 230 24 228 0 190 0 c 2
 54 0 l 2
 33 0 15 8 15 36 c 0xf0
EndSplineSet
EndChar

StartChar: I
Encoding: 73 73 122
Width: 525
Flags: HW
TeX: 610 0
HStem: -0 75<73.228 220 304 449.95> 535 76<73.0494 220 304 449.825>
VStem: 220 84<75 535>
AnchorPoint: "ogonek" 262 0 basechar 0
AnchorPoint: "below" 262 0 basechar 0
AnchorPoint: "above" 262 619 basechar 0
LayerCount: 2
Fore
SplineSet
71 38 m 0
 71 73 94 75 110 75 c 2
 220 75 l 1
 220 535 l 1
 110 535 l 2
 73 535 71 558 71 575 c 0
 72 610 96 611 109 611 c 2
 415 611 l 2
 448 611 452 591 452 573 c 0
 452 538 430 535 414 535 c 2
 304 535 l 1
 304 75 l 1
 414 75 l 2
 445 75 452 62 452 37 c 0
 452 5 431 0 414 -0 c 2
 108 -0 l 2
 91 0 71 4 71 38 c 0
EndSplineSet
EndChar

StartChar: J
Encoding: 74 74 123
Width: 525
Flags: HW
TeX: 610 0
HStem: -8 75<165.866 307.946> 535 76<203.301 324 407 475.933>
VStem: 76 85<79.4889 137.573> 324 83<85.7391 535>
AnchorPoint: "below" 277 0 basechar 0
AnchorPoint: "above" 366 619 basechar 0
LayerCount: 2
Fore
SplineSet
76 100 m 0
 76 124 93 143 118 143 c 0
 159 143 160 99 161 96 c 0
 168 76 206 67 241 67 c 0
 318 67 324 113 324 136 c 2
 324 535 l 1
 238 535 l 2
 225 535 201 537 201 573 c 0
 201 610 226 611 240 611 c 2
 439 611 l 2
 470 611 479 593 478 573 c 1
 478 536 453 535 440 535 c 2
 407 535 l 1
 407 139 l 2
 407 21 313 -8 241 -8 c 0
 142 -8 76 35 76 100 c 0
EndSplineSet
EndChar

StartChar: K
Encoding: 75 75 124
Width: 525
Flags: HW
TeX: 610 0
HStem: 0 75<21.4851 82 150 210.954 436 492.863> 535 76<21.2479 82 150 210.732 403.859 482.826>
VStem: 19 194<2.26758 72.7946 537.544 608.423> 82 68<75 218.311 302 535> 302 183<537.26 608.996> 325 170<2.26498 72.5193>
DStem2: 150 302 161 205 0.619753 0.784797<0 48.9201 122.327 296.892> 279 356 234 298 0.487752 -0.872982<28.6842 284.328>
AnchorPoint: "below" 257 0 basechar 0
AnchorPoint: "above" 257 619 basechar 0
LayerCount: 2
Fore
SplineSet
19 38 m 0xe0
 19 75 45 75 58 75 c 2
 82 75 l 1
 82 535 l 1xd0
 57 535 l 2
 47 535 19 537 19 571 c 0
 19 584 19 611 59 611 c 2
 175 611 l 2
 212 611 213 585 213 573 c 0xe0
 213 536 186 535 173 535 c 2
 150 535 l 1
 150 302 l 1
 334 535 l 1
 310 537 302 556 302 574 c 0
 302 609 326 611 342 611 c 2
 447 611 l 2
 458 611 485 611 485 573 c 0
 485 537 463 535 445 535 c 0
 442 535 439 535 436 535 c 0
 420 535 421 535 410 522 c 2
 279 356 l 1
 436 75 l 1xd8
 456 75 l 2
 470 75 495 75 495 38 c 0
 495 0 469 0 450 -0 c 2
 363 -0 l 2
 323 0 325 28 325 39 c 0
 324 58 334 73 359 75 c 1
 234 298 l 1
 226 289 220 280 161 205 c 0
 150 191 150 190 150 175 c 2
 150 75 l 1xd4
 173 75 l 2
 189 75 213 72 213 40 c 0
 213 28 214 0 174 0 c 2
 56 0 l 2
 46 0 19 1 19 38 c 0xe0
EndSplineSet
EndChar

StartChar: L
Encoding: 76 76 125
Width: 525
Flags: HW
TeX: 610 0
HStem: 0 75<25.6765 101 185 405> 535 76<25.9953 101 185 279.791>
VStem: 101 84<75 535> 405 84<75 183.329>
AnchorPoint: "below" 256 0 basechar 0
AnchorPoint: "above" 256 619 basechar 0
LayerCount: 2
Fore
SplineSet
24 39 m 0
 22 74 49 75 66 75 c 2
 101 75 l 1
 101 535 l 1
 66 535 l 2
 48 535 24 536 24 573 c 0
 24 605 41 611 62 611 c 2
 242 611 l 2
 263 611 282 603 282 575 c 0
 282 536 261 535 240 535 c 2
 185 535 l 1
 185 75 l 1
 405 75 l 1
 405 149 l 1
 406 184 426 185 443 185 c 2
 447 185 l 2
 466 185 489 185 489 149 c 2
 489 41 l 2
 489 20 486 0 449 0 c 2
 61 0 l 2
 22 0 24 30 24 39 c 0
EndSplineSet
EndChar

StartChar: M
Encoding: 77 77 126
Width: 525
Flags: HW
TeX: 610 0
HStem: 0 75<13.986 65 133 183.985 339.671 391 459 509.985> 535 76<14.2676 65 459 509.594>
VStem: 12 174<2.56421 72.8306 543.418 598.755> 65 68<75 535> 338 174<2.56421 72.8306 541.979 598.534> 391 68<75 535>
AnchorPoint: "below" 262 0 basechar 0
AnchorPoint: "above" 262 619 basechar 0
LayerCount: 2
Fore
SplineSet
12 38 m 0xe0
 12 48 12 75 48 75 c 2
 65 75 l 1
 65 535 l 1xd0
 49 535 l 2
 13 535 12 562 12 574 c 0
 12 587 13 611 50 611 c 2
 129 611 l 2
 172 611 177 578 183 560 c 0
 210 475 256 332 262 274 c 1
 265 321 310 462 341 561 c 0
 347 580 353 611 395 611 c 2
 474 611 l 2
 492 611 512 608 512 571 c 0xe8
 512 548 499 535 475 535 c 2
 459 535 l 1
 459 75 l 1xc4
 475 75 l 2
 504 75 513 59 512 38 c 0
 512 27 512 0 473 0 c 2
 375 0 l 2
 336 0 338 29 338 38 c 0xc8
 338 48 338 75 374 75 c 2
 391 75 l 1
 391 515 l 1
 390 541 l 1
 386 481 306 235 302 228 c 0
 294 214 282 204 262 204 c 0
 222 204 217 237 202 285 c 0
 170 386 139 489 133 541 c 1
 133 75 l 1xd4
 149 75 l 2
 178 75 187 59 186 38 c 0
 186 27 186 0 147 0 c 2
 50 0 l 2
 11 0 12 29 12 38 c 0xe0
EndSplineSet
EndChar

StartChar: N
Encoding: 78 78 127
Width: 525
Flags: HW
TeX: 610 0
HStem: 0 75<23.1094 86 154 217.752> 535 76<23.3071 86 305.185 369 437 499.891>
VStem: 21 199<2.70251 72.6349> 86 68<75 535> 303 199<537.406 608.604> 369 68<70 535>
DStem2: 203 569 205 374 0.325826 -0.94543<12.1215 523.485>
AnchorPoint: "below" 262 0 basechar 0
AnchorPoint: "above" 262 619 basechar 0
LayerCount: 2
Fore
SplineSet
21 36 m 0xe0
 21 51 21 75 61 75 c 2
 86 75 l 1
 86 535 l 1xd0
 60 535 l 2
 47 535 21 536 21 573 c 0
 21 609 45 611 59 611 c 2
 150 611 l 2
 192 611 199 580 203 569 c 2
 325 215 l 1
 358 114 363 100 369 70 c 1
 369 535 l 1xe4
 342 535 l 2
 330 535 303 536 303 573 c 0
 303 611 330 611 343 611 c 2
 464 611 l 2
 494 611 502 593 502 575 c 0xc8
 502 560 502 535 462 535 c 2
 437 535 l 1
 437 38 l 2xc4
 437 22 434 0 398 -0 c 2
 375 -0 l 2
 329 0 327 22 303 90 c 2
 205 374 l 1
 172 473 161 507 154 541 c 1
 154 75 l 1xd8
 182 75 l 2
 192 75 220 74 220 40 c 0
 220 24 218 0 180 0 c 2
 59 0 l 2
 29 0 21 18 21 36 c 0xe0
EndSplineSet
EndChar

StartChar: O
Encoding: 79 79 128
Width: 525
Flags: HW
TeX: 610 0
HStem: -8 75<171.348 352.525> 544 75<169.579 351.625>
VStem: 56 84<99.8753 514.706> 384 84<102.572 512.269>
AnchorPoint: "ogonek" 256 0 basechar 0
AnchorPoint: "below" 256 0 basechar 0
AnchorPoint: "above" 261 619 basechar 0
LayerCount: 2
Fore
SplineSet
56 275 m 2
 56 313 l 2
 56 460 62 544 91 579 c 0
 124 619 201 619 246 619 c 2
 261 619 l 2
 428 619 454 598 465 453 c 0
 469 404 468 354 468 305 c 0
 468 12 452 -8 264 -8 c 0
 259 -8 254 -8 249 -8 c 0
 115 -8 87 18 72 75 c 0
 58 129 56 222 56 275 c 2
140 316 m 2
 140 94 143 67 263 67 c 0
 382 67 380 104 384 272 c 1
 384 330 l 2
 384 521 374 544 269 544 c 0
 151 544 140 533 140 323 c 2
 140 316 l 2
EndSplineSet
EndChar

StartChar: P
Encoding: 80 80 129
Width: 525
Flags: HW
TeX: 610 0
HStem: 0 75<20.1062 89 173 241.154> 230 75<173 349.853> 535 76<20.2148 89 173 346.627>
VStem: 18 225<2.4917 73.0488> 89 84<75 230 305 535> 397 83<351.869 489.131>
AnchorPoint: "below" 214 0 basechar 0
AnchorPoint: "above" 214 619 basechar 0
LayerCount: 2
Fore
SplineSet
18 38 m 0xf4
 18 75 44 75 57 75 c 2
 89 75 l 1
 89 535 l 1
 57 535 l 2
 36 535 18 543 18 572 c 0xf4
 18 584 19 611 55 611 c 2
 289 611 l 2
 441 611 480 499 480 421 c 0
 480 340 441 230 285 230 c 2
 173 230 l 1
 173 75 l 1xec
 205 75 l 2
 216 75 243 74 243 40 c 0
 243 26 244 0 203 0 c 2
 57 0 l 2
 42 0 18 1 18 38 c 0xf4
173 305 m 1
 267 305 l 2
 376 305 397 377 397 420 c 0xec
 397 461 378 535 265 535 c 2
 173 535 l 1
 173 305 l 1
EndSplineSet
EndChar

StartChar: Q
Encoding: 81 81 130
Width: 525
Flags: HW
TeX: 610 138
HStem: -139 21G<383.5 437.5> -8 75<171.219 266> 544 75<169.188 353.873>
VStem: 56 84<98.1448 512.653> 384 84<99.6387 510.755>
DStem2: 353 86 266 67 0.443269 -0.896389<-105.481 -21.533 89.8851 218.335>
AnchorPoint: "below" 262 -222 basechar 0
AnchorPoint: "above" 262 619 basechar 0
LayerCount: 2
Fore
SplineSet
56 284 m 2
 56 337 l 1
 59 590 70 619 255 619 c 2
 270 619 l 2
 324 619 401 619 434 577 c 0
 460 543 468 457 468 333 c 2
 468 292 l 2
 468 59 447 27 394 6 c 1
 441 -87 454 -108 454 -119 c 0
 454 -127 448 -139 427 -139 c 0
 416 -139 405 -139 394 -139 c 0
 373 -139 366 -135 356 -115 c 0
 314 -29 308 -19 303 -8 c 1
 285 -8 267 -8 249 -8 c 0
 96 -8 76 26 64 113 c 0
 59 147 56 198 56 284 c 2
140 304 m 2
 140 94 146 67 256 67 c 2
 266 67 l 1
 243 116 228 138 228 151 c 0
 228 158 232 171 257 171 c 2
 294 171 l 1
 313 170 310 170 353 86 c 1
 370 102 384 124 384 275 c 2
 384 332 l 2
 384 543 363 544 252 544 c 0
 152 544 142 519 140 348 c 1
 140 304 l 2
EndSplineSet
EndChar

StartChar: R
Encoding: 82 82 131
Width: 525
Flags: HW
TeX: 610 0
HStem: -8 21G<410 461> 0 75<17.1052 80 164 227.752> 268 75<164 298.217> 535 76<17.3148 80 164 310.046>
VStem: 15 215<2.70251 72.6006> 80 84<75 268 343 535> 322 84<71.6243 244.702> 349 84<379.629 499.538> 432 90<67.6704 125.662>
AnchorPoint: "below" 214 0 basechar 0
AnchorPoint: "above" 214 619 basechar 0
LayerCount: 2
Fore
SplineSet
15 36 m 0x78
 15 50 14 75 55 75 c 2
 80 75 l 1
 80 535 l 1x74
 54 535 l 2
 41 535 15 535 15 573 c 0
 15 603 32 611 54 611 c 2
 237 611 l 2
 385 611 433 517 433 439 c 0x79
 433 380 406 328 360 299 c 1
 373 285 406 255 406 189 c 2x72
 406 133 l 2
 406 78 416 71 432 67 c 1
 444 97 427 131 481 131 c 0
 521 131 522 101 522 95 c 0
 522 47 490 -8 432 -8 c 0xb280
 388 -8 322 16 322 131 c 2
 322 205 l 1
 320 220 304 268 234 268 c 2
 164 268 l 1
 164 75 l 1x7680
 192 75 l 2
 202 75 230 74 230 40 c 0
 230 24 228 0 190 0 c 2
 54 0 l 2
 33 0 15 8 15 36 c 0x78
164 343 m 1
 224 343 l 2
 327 343 349 401 349 439 c 0x35
 349 478 328 536 224 536 c 0
 221 536 218 535 215 535 c 2
 164 535 l 1
 164 343 l 1
EndSplineSet
EndChar

StartChar: S
Encoding: 83 83 132
Width: 525
Flags: HW
TeX: 610 0
HStem: -8 75<186.966 356.459> 544 75<162.389 313.417>
VStem: 52 80<2.77856 32 406.145 513.617> 363 82<408.951 493.55> 372 73<578 613.968> 392 80<102.422 225.866>
AnchorPoint: "below" 285 0 basechar 0
AnchorPoint: "above" 236 619 basechar 0
LayerCount: 2
Fore
SplineSet
52 30 m 2
 52 167 l 1
 53 203 78 203 90 203 c 0
 164 203 114 158 159 109 c 0
 191 75 245 67 284 67 c 0
 370 67 392 124 392 165 c 0xe4
 392 218 354 245 338 253 c 0
 308 269 198 285 159 301 c 0
 123 316 52 362 52 454 c 0
 52 533 107 619 236 619 c 0
 317 619 361 586 372 578 c 1
 382 602 387 619 413 619 c 0
 439 619 445 602 445 581 c 2xe8
 445 444 l 2xf0
 445 429 444 407 407 407 c 2
 397 407 l 2
 385 407 369 410 363 429 c 0xf0
 359 441 358 544 235 544 c 0
 154 544 132 493 132 458 c 0
 132 412 172 384 201 375 c 0
 291 347 386 355 443 266 c 0
 459 242 472 211 472 170 c 0
 472 80 414 -8 285 -8 c 0
 189 -8 139 24 126 32 c 1
 118 15 113 -8 84 -8 c 0
 50 -8 52 22 52 30 c 2
EndSplineSet
EndChar

StartChar: T
Encoding: 84 84 133
Width: 525
Flags: HW
TeX: 610 0
HStem: -0 75<129.942 220 304 394.041> 441 170<28.3862 107.856 415.654 495.813> 535 76<110 220 304 414>
VStem: 26 84<443.064 535> 220 84<75 535> 414 84<443.342 535>
CounterMasks: 1 1c
AnchorPoint: "below" 262 0 basechar 0
AnchorPoint: "above" 262 619 basechar 0
LayerCount: 2
Fore
SplineSet
26 480 m 2
 26 573 l 2
 26 603 43 611 64 611 c 2
 461 611 l 2
 500 611 498 581 498 568 c 2
 498 483 l 2
 498 470 499 441 461 441 c 0
 459 441 457 441 455 441 c 0xdc
 416 441 414 461 414 481 c 0
 414 499 414 517 414 535 c 1
 304 535 l 1
 304 75 l 1xbc
 357 75 l 2
 372 75 396 74 396 38 c 0
 396 4 377 0 358 -0 c 2
 166 -0 l 2
 147 0 127 6 128 38 c 1
 127 74 152 75 167 75 c 2
 220 75 l 1
 220 535 l 1
 110 535 l 1xbc
 110 481 l 2
 110 444 92 441 66 441 c 2
 63 441 l 2
 51 441 26 442 26 480 c 2
EndSplineSet
EndChar

StartChar: U
Encoding: 85 85 134
Width: 525
Flags: HW
TeX: 610 0
HStem: -8 75<197.312 327.956> 535 76<-0.807129 68 152 219.891 305.399 374 457 525.607>
VStem: -3 225<537.268 608.571> 68 84<119.042 535> 303 225<537.012 608.732> 374 83<118.774 535>
AnchorPoint: "ogonek" 263 0 basechar 0
AnchorPoint: "below" 263 0 basechar 0
AnchorPoint: "above" 262 619 basechar 0
LayerCount: 2
Fore
SplineSet
-3 573 m 1
 -4 610 25 611 36 611 c 2
 183 611 l 2
 204 611 222 603 222 575 c 0xe0
 222 558 222 535 182 535 c 2
 152 535 l 1
 152 212 l 2
 152 90 219 67 263 67 c 0
 307 67 374 90 374 214 c 2
 374 535 l 1xd4
 342 535 l 2
 328 535 303 536 303 573 c 0
 303 610 329 611 341 611 c 2
 489 611 l 2
 501 611 528 610 528 573 c 0xc8
 528 536 503 535 490 535 c 2
 457 535 l 1
 457 215 l 2
 457 28 334 -8 263 -8 c 0
 189 -8 68 30 68 214 c 2
 68 535 l 1xd4
 57 535 46 535 35 535 c 0
 24 535 -4 536 -3 573 c 1
EndSplineSet
EndChar

StartChar: V
Encoding: 86 86 135
Width: 525
Flags: HW
TeX: 610 0
HStem: -5 21G<227.5 298.5> 535 76<20.3044 81.6293 163 215.081 309.015 361 447 503.891>
VStem: 18 199<537.479 608.744> 307 199<537.417 608.571>
DStem2: 163 535 77 535 0.224098 -0.974567<0 449.572>
AnchorPoint: "below" 264 0 basechar 0
AnchorPoint: "above" 261 619 basechar 0
LayerCount: 2
Fore
SplineSet
18 573 m 0
 18 605 35 611 56 611 c 2
 180 611 l 2
 205 611 218 597 217 573 c 0
 217 561 216 535 181 535 c 2
 163 535 l 1
 231 245 l 1
 249 161 l 1
 260 96 l 1
 262 70 l 1
 265 152 343 454 361 535 c 1
 344 535 l 2
 315 535 306 553 307 573 c 1
 306 597 320 611 344 611 c 2
 468 611 l 2
 488 611 506 603 506 575 c 0
 506 560 506 535 466 535 c 2
 447 535 l 1
 326 39 l 2
 322 24 317 -5 280 -5 c 0
 269 -5 258 -5 247 -5 c 0
 208 -5 203 19 198 38 c 2
 88 488 l 2
 84 504 80 519 77 535 c 1
 56 535 l 2
 27 535 18 551 18 573 c 0
EndSplineSet
EndChar

StartChar: W
Encoding: 87 87 136
Width: 525
Flags: HW
TeX: 610 0
HStem: -5 21G<152.5 173 332 370> 535 76<13.3137 50 118 180.808 343.125 405 470.362 509.436>
VStem: 11 172<537.049 608.747> 171 90<155.247 240.489> 341 171<537.479 608.256>
DStem2: 118 535 50 535 0.132813 -0.991141<0 414.991> 353 70 407 35 0.130865 0.9914<0 229.9>
AnchorPoint: "below" 261 0 basechar 0
AnchorPoint: "above" 261 619 basechar 0
LayerCount: 2
Fore
SplineSet
11 574 m 0
 11 589 13 611 49 611 c 2
 147 611 l 2
 183 611 183 583 183 572 c 0xe8
 184 537 160 535 146 535 c 2
 118 535 l 1
 156 237 l 1
 168 123 l 1
 170 92 l 1
 171 70 l 1
 173 177 215 341 215 341 c 1
 225 366 244 367 258 367 c 2
 263 367 l 2
 276 367 297 367 308 342 c 0
 314 328 348 169 352 99 c 0
 353 89 352 80 353 70 c 1
 362 234 386 381 405 535 c 1xd8
 396 535 387 535 378 535 c 0
 364 535 341 537 341 572 c 0
 341 600 351 611 387 611 c 2
 474 611 l 2
 485 611 512 611 512 572 c 1
 513 555 506 535 473 535 c 1
 468 495 462 455 457 415 c 2
 407 35 l 2
 402 -4 379 -5 361 -5 c 2
 355 -5 l 2
 309 -5 311 21 291 115 c 0
 264 241 264 260 261 297 c 1xd8
 259 225 211 22 211 22 c 1
 201 -5 178 -5 168 -5 c 2
 162 -5 l 2
 143 -5 122 -3 117 35 c 2
 50 535 l 1
 35 535 11 537 11 574 c 0
EndSplineSet
EndChar

StartChar: X
Encoding: 88 88 137
Width: 525
Flags: HW
TeX: 610 0
HStem: -0 75<28.826 95 185 225.197 297.235 335 426 493.034> 535 76<40.1113 107 201 236.858 267.635 307 398 463.693>
VStem: 38 201<537.48 608.396> 266 200<537.485 609.051> 295 200<2.09603 72.8398>
DStem2: 95 75 185 75 0.420184 0.907439<37.8165 214.655 386.581 506.501> 201 535 107 535 0.444094 -0.89598<0 122.531 291.427 471.659>
AnchorPoint: "below" 261 0 basechar 0
AnchorPoint: "above" 261 619 basechar 0
LayerCount: 2
Fore
SplineSet
27 38 m 1
 26 75 54 75 66 75 c 2
 95 75 l 1
 215 327 l 1
 107 535 l 1xe8
 78 535 l 2
 64 535 38 537 38 571 c 0
 38 607 54 611 88 611 c 2
 200 611 l 2
 217 611 239 610 239 572 c 1
 240 557 235 535 201 535 c 1
 257 426 l 1
 307 535 l 1
 264 535 266 561 266 574 c 0
 266 587 267 611 303 611 c 2
 428 611 l 2
 442 611 466 610 466 573 c 0xf0
 466 536 441 535 427 535 c 2
 398 535 l 1
 298 326 l 1
 426 75 l 1
 453 75 l 2
 483 75 495 68 495 37 c 0
 495 26 494 0 458 -0 c 2
 334 -0 l 2
 317 0 295 2 295 39 c 0
 295 72 318 75 335 75 c 1
 256 237 l 1
 185 75 l 1
 206 75 227 75 227 37 c 1
 228 20 220 0 191 -0 c 2
 65 -0 l 2
 34 0 26 17 27 38 c 1
EndSplineSet
EndChar

StartChar: Y
Encoding: 89 89 138
Width: 525
Flags: HW
TeX: 610 0
HStem: 0 75<157.105 220 304 367.125> 535 76<21.0119 86 178 216.786 306.643 346 439 502.894>
VStem: 19 200<536.954 609.036> 155 214<2.42921 72.6006> 220 84<75 244> 305 200<537.571 608.988>
DStem2: 178 535 86 535 0.415686 -0.909508<0 185.455>
AnchorPoint: "below" 262 0 basechar 0
AnchorPoint: "above" 262 619 basechar 0
LayerCount: 2
Fore
SplineSet
19 571 m 0
 19 587 20 611 57 611 c 2
 183 611 l 2
 203 611 219 603 219 573 c 0
 219 559 217 535 182 535 c 2
 178 535 l 1
 235 405 l 1
 250 364 l 1
 259 332 l 1
 262 314 l 1
 264 326 l 1
 276 369 282 391 346 535 c 1
 303 535 305 562 305 574 c 0
 304 591 311 611 342 611 c 2
 467 611 l 2
 479 611 505 610 505 573 c 0
 505 536 479 535 466 535 c 2
 439 535 l 1
 311 259 l 1
 305 244 l 1
 304 223 l 1
 304 75 l 1xec
 331 75 l 2
 341 75 369 74 369 40 c 0
 369 24 368 0 330 0 c 2
 194 0 l 2
 173 0 155 8 155 36 c 0xd0
 155 50 154 75 195 75 c 2
 220 75 l 1
 220 223 l 1
 219 244 l 1
 86 535 l 1xe8
 57 535 l 2
 46 535 19 536 19 571 c 0
EndSplineSet
EndChar

StartChar: Z
Encoding: 90 90 139
Width: 525
Flags: HW
TeX: 610 0
HStem: -0 189<399.234 478.807> -0 75<157 397> 535 76<143 367>
VStem: 59 84<443.268 535> 397 84<75 186.693>
DStem2: 74 100 157 75 0.558019 0.829828<25.5699 524.475>
AnchorPoint: "below" 264 0 basechar 0
AnchorPoint: "above" 264 619 basechar 0
LayerCount: 2
Fore
SplineSet
47 40 m 0
 47 64 52 67 74 100 c 2
 367 535 l 1
 143 535 l 1
 143 477 l 1
 144 443 117 441 104 441 c 2x78
 97 441 l 2
 84 441 59 442 59 479 c 2
 59 574 l 2
 59 590 62 611 98 611 c 2
 437 611 l 2
 475 611 477 589 477 572 c 0
 477 551 475 548 467 536 c 2
 157 75 l 1
 397 75 l 1x78
 397 150 l 2
 397 185 416 189 440 189 c 0
 459 189 481 187 481 150 c 2
 481 38 l 2
 481 5 462 0 443 -0 c 2xb8
 83 -0 l 1
 45 1 47 30 47 40 c 0
EndSplineSet
EndChar

StartChar: bracketleft
Encoding: 91 91 140
Width: 525
Flags: HW
TeX: 694 83
HStem: -83 75<293 481.99> 619 75<293 482.041>
VStem: 209 84<-8 619>
LayerCount: 2
Fore
SplineSet
209 -48 m 2
 209 655 l 2
 209 686 223 694 247 694 c 2
 445 694 l 2
 460 694 484 693 484 658 c 0
 484 620 466 619 439 619 c 2
 293 619 l 1
 293 -8 l 1
 439 -8 l 2
 464 -8 484 -8 484 -47 c 0
 484 -82 458 -83 447 -83 c 2
 247 -83 l 2
 240 -83 209 -84 209 -48 c 2
EndSplineSet
EndChar

StartChar: backslash
Encoding: 92 92 141
Width: 525
Flags: HW
TeX: 694 83
DStem2: 457 -18 66 631 0.427459 -0.904035<-780.355 28.6937>
LayerCount: 2
Fore
SplineSet
58 657 m 0
 58 679 78 694 96 694 c 0
 119 694 129 675 135 662 c 2
 457 -18 l 2
 461 -26 466 -35 466 -46 c 0
 466 -64 450 -83 428 -83 c 0
 404 -83 394 -63 388 -50 c 2
 66 631 l 2
 62 638 58 647 58 657 c 0
EndSplineSet
EndChar

StartChar: bracketright
Encoding: 93 93 142
Width: 525
Flags: HW
TeX: 694 83
HStem: -83 75<42.1423 232> 619 75<42.3982 232>
VStem: 232 83<-8 619>
LayerCount: 2
Fore
SplineSet
40 -45 m 0
 40 -10 62 -8 79 -8 c 2
 232 -8 l 1
 232 619 l 1
 79 619 l 2
 62 619 40 620 40 655 c 0
 40 691 61 694 79 694 c 2
 278 694 l 2
 308 694 315 677 315 659 c 2
 315 -38 l 2
 315 -40 316 -42 316 -44 c 0
 316 -75 302 -83 278 -83 c 2
 80 -83 l 2
 61 -83 40 -80 40 -45 c 0
EndSplineSet
EndChar

StartChar: asciicircum
Encoding: 94 94 143
Width: 525
Flags: HW
TeX: 610 0
HStem: 425 85<81.4193 157.189 362.791 442.26> 485 84<207.811 313.543>
LayerCount: 2
Fore
SplineSet
72 476 m 0
 72 496 87 503 105 510 c 0x80
 220 555 251 569 261 569 c 2
 262 569 l 2x40
 272 569 271 567 422 508 c 0
 436 503 451 496 451 476 c 0
 451 472 444 425 413 425 c 2
 411 425 l 2x80
 396 425 271 485 264 485 c 0x40
 245 485 132 425 111 425 c 0
 81 425 72 470 72 476 c 0
EndSplineSet
EndChar

StartChar: underscore
Encoding: 95 95 144
Width: 525
Flags: HW
TeX: 0 113
HStem: -114 84<61.5312 462.469>
LayerCount: 2
Fore
SplineSet
56 -72 m 0
 56 -60 62 -30 105 -30 c 2
 419 -30 l 2
 461 -30 468 -60 468 -72 c 0
 468 -83 462 -114 419 -114 c 2
 105 -114 l 2
 62 -114 56 -83 56 -72 c 0
EndSplineSet
EndChar

StartChar: quoteleft
Encoding: 8216 8216 145
Width: 525
Flags: HW
TeX: 610 0
HStem: 323 149<233.486 314.265>
VStem: 157 179<373.656 451.137>
LayerCount: 2
Fore
SplineSet
157 456 m 0
 157 599 280 680 308 680 c 0
 324 680 349 657 349 639 c 0
 349 619 330 612 320 606 c 0
 298 593 242 555 233 467 c 1
 242 470 252 472 262 472 c 0
 306 472 336 438 336 397 c 0
 336 360 310 323 261 323 c 0
 199 323 157 382 157 456 c 0
EndSplineSet
EndChar

StartChar: a
Encoding: 97 97 146
Width: 525
Flags: HW
TeX: 444 0
HStem: -4 75<155.746 308.102> -0 81<432.429 519.781> 211 64<187.992 347> 375 75<157.748 316.138>
VStem: 47 84<95.9225 171.706> 347 84<104.706 211 275 344.581>
AnchorPoint: "ogonek" 389 0 basechar 0
AnchorPoint: "affricate-below" 525 -222 basechar 0
AnchorPoint: "affricate-above" 525 611 basechar 0
AnchorPoint: "below" 234 0 basechar 0
AnchorPoint: "above" 234 450 basechar 0
LayerCount: 2
Fore
SplineSet
47 138 m 0
 47 247 215 275 347 275 c 1
 347 305 350 375 231 375 c 0
 159 375 169 369 159 355 c 0
 151 344 138 338 125 338 c 0
 102 338 83 356 83 380 c 0
 83 442 155 450 234 450 c 0
 327 450 431 416 431 277 c 2
 431 81 l 1
 475 67 524 93 524 37 c 0
 524 3 498 0 488 -0 c 2x7c
 465 -0 l 2x7c
 408 0 368 7 352 43 c 1
 333 30 285 -4 203 -4 c 0xbc
 104 -4 47 71 47 138 c 0
131 138 m 0
 131 100 174 71 225 71 c 0
 259 71 347 84 347 157 c 0xbc
 347 175 347 193 347 211 c 1
 217 209 131 182 131 138 c 0
EndSplineSet
EndChar

StartChar: b
Encoding: 98 98 147
Width: 525
Flags: HW
TeX: 610 0
HStem: -4 75<221.172 350.655> 373 75<221.509 356.096> 535 76<5.9889 89>
VStem: 89 84<2.60388 48 123.716 327.134 397 535> 409 84<134.687 315.298>
AnchorPoint: "affricate-below" 525 -222 basechar 0
AnchorPoint: "affricate-above" 525 611 basechar 0
AnchorPoint: "below" 290 0 basechar 0
AnchorPoint: "above" 290 611 basechar 0
LayerCount: 2
Fore
SplineSet
4 573 m 1
 3 607 28 611 44 611 c 2
 131 611 l 2
 174 611 173 589 173 570 c 2
 173 397 l 1
 206 425 247 448 304 448 c 0
 411 448 493 366 493 223 c 0
 493 61 385 -4 292 -4 c 0
 239 -4 203 18 173 48 c 1
 173 40 l 2
 173 23 171 0 137 -0 c 2
 128 -0 l 2
 114 0 89 3 89 37 c 2
 89 535 l 1
 40 535 l 2
 12 535 3 553 4 573 c 1
173 187 m 2
 173 154 206 71 279 71 c 0
 357 71 409 129 409 222 c 0
 409 337 343 373 289 373 c 0
 224 373 173 317 173 278 c 2
 173 187 l 2
EndSplineSet
EndChar

StartChar: c
Encoding: 99 99 148
Width: 525
Flags: HW
TeX: 444 0
HStem: -4 75<222.497 363.558> 375 75<211.568 370.013>
VStem: 65 84<140.411 310.439> 381 84<87.7243 144.993>
AnchorPoint: "affricate-below" 525 -222 basechar 0
AnchorPoint: "affricate-above" 525 611 basechar 0
AnchorPoint: "below" 290 0 basechar 0
AnchorPoint: "above" 298 450 basechar 0
LayerCount: 2
Fore
SplineSet
65 222 m 0
 65 348 143 450 295 450 c 2
 302 450 l 2
 360 450 454 448 454 380 c 0
 454 356 436 338 412 338 c 0
 398 338 377 346 371 370 c 1
 350 375 325 375 300 375 c 0
 179 375 149 291 149 223 c 0
 149 123 222 71 310 71 c 0
 335 71 365 79 381 120 c 0
 391 146 403 147 419 147 c 2
 423 147 l 2
 438 147 465 146 465 118 c 0
 465 97 429 -4 290 -4 c 0
 155 -4 65 88 65 222 c 0
EndSplineSet
EndChar

StartChar: d
Encoding: 100 100 149
Width: 525
Flags: HW
TeX: 610 0
HStem: -4 75<168.119 297.277 435 516.379> 373 75<172.07 308.691> 535 76<268.488 351>
VStem: 31 84<127.549 310.995> 351 84<129.318 331.571 401 535>
AnchorPoint: "affricate-below" 525 -222 basechar 0
AnchorPoint: "affricate-above" 525 611 basechar 0
AnchorPoint: "below" 276 0 basechar 0
AnchorPoint: "above" 233 611 basechar 0
LayerCount: 2
Fore
SplineSet
31 220 m 0
 31 393 146 448 230 448 c 0
 283 448 323 426 351 401 c 1
 351 535 l 1
 304 535 l 2
 288 535 266 538 266 574 c 1
 265 590 272 610 301 611 c 1
 397 611 l 2
 436 611 435 585 435 566 c 2
 435 75 l 1
 480 75 l 2
 518 75 520 51 520 37 c 0
 521 20 513 0 483 -0 c 2
 385 -0 l 2
 369 0 351 7 351 37 c 2
 351 54 l 1
 321 23 280 -4 222 -4 c 0
 111 -4 31 86 31 220 c 0
115 222 m 0
 115 107 181 71 235 71 c 0
 315 71 352 160 351 191 c 1
 351 279 l 2
 351 318 308 373 245 373 c 0
 167 373 115 315 115 222 c 0
EndSplineSet
EndChar

StartChar: e
Encoding: 101 101 150
Width: 525
Flags: HW
TeX: 444 0
HStem: -4 75<208.379 359.454> 183 69<135 378> 375 75<193.449 336.19>
AnchorPoint: "ogonek" 283 0 basechar 0
AnchorPoint: "affricate-below" 525 -222 basechar 0
AnchorPoint: "affricate-above" 525 611 basechar 0
AnchorPoint: "below" 283 0 basechar 0
AnchorPoint: "above" 269 450 basechar 0
LayerCount: 2
Fore
SplineSet
47 224 m 0
 47 361 139 450 269 450 c 0
 337 450 463 424 464 218 c 0
 464 185 438 183 425 183 c 2
 135 183 l 1
 161 94 240 71 302 71 c 0
 318 71 352 74 374 111 c 0
 389 135 384 147 422 147 c 2
 425 147 l 2
 436 147 463 146 463 116 c 0
 463 82 408 -4 283 -4 c 0
 142 -4 47 87 47 224 c 0
133 252 m 1
 378 252 l 1
 372 339 329 375 269 375 c 0
 192 375 142 326 133 252 c 1
EndSplineSet
EndChar

StartChar: f
Encoding: 102 102 151
Width: 525
Flags: HW
TeX: 610 0
HStem: -0 75<37.1357 177 260 399.68> 369 75<44.9653 177 260 413.68> 540 75<272.429 389.614>
VStem: 177 83<75 369 444 526.726>
AnchorPoint: "affricate-below" 525 -222 basechar 0
AnchorPoint: "affricate-above" 525 611 basechar 0
AnchorPoint: "above" 353 611 basechar 0
AnchorPoint: "below" 218 0 basechar 0
LayerCount: 2
Fore
SplineSet
35 38 m 0
 35 73 57 75 73 75 c 2
 177 75 l 1
 177 369 l 1
 81 369 l 2
 51 369 43 386 43 404 c 0
 43 424 47 444 81 444 c 2
 177 444 l 1
 177 477 l 2
 177 587 274 615 353 615 c 0
 421 615 437 580 437 557 c 0
 437 532 417 514 396 514 c 0
 386 514 369 518 358 539 c 1
 349 540 344 540 337 540 c 0
 257 540 260 494 260 478 c 2
 260 444 l 1
 376 444 l 2
 392 444 416 443 416 405 c 0
 416 374 396 369 376 369 c 2
 260 369 l 1
 260 75 l 1
 365 75 l 2
 376 75 402 75 402 37 c 0
 402 2 378 0 362 -0 c 2
 72 -0 l 2
 57 0 35 3 35 38 c 0
EndSplineSet
EndChar

StartChar: g
Encoding: 103 103 152
Width: 525
Flags: HW
TeX: 444 222
HStem: -227 67<147.198 378.083> -3 70<140.855 395.033> 118 67<172.806 291.512> 353 99<431.314 495.765> 381 67<173.504 293.743>
VStem: 29 70<-121.488 -23.2742> 60 84<214.724 350.794> 71 63<73.9923 140.763> 322 84<215.189 351.738> 425 70<-121.691 -29.7353>
AnchorPoint: "affricate-below" 525 -222 basechar 0
AnchorPoint: "affricate-above" 525 611 basechar 0
AnchorPoint: "below" 263 -222 basechar 0
AnchorPoint: "above" 232 450 basechar 0
LayerCount: 2
Fore
SplineSet
29 -79 m 0xf4c0
 29 -29 53 17 93 42 c 1
 77 65 71 90 71 111 c 0xf1c0
 71 125 73 151 92 180 c 1
 92 182 l 1
 73 208 60 242 60 283 c 0
 60 381 129 448 234 448 c 0xeac0
 265 448 302 442 336 420 c 1
 337 420 l 1
 360 438 396 452 435 452 c 0
 479 452 510 429 510 395 c 0
 510 370 490 353 468 353 c 0
 445 353 434 370 430 377 c 1
 408 375 l 1
 384 370 l 1
 400 339 406 315 406 283 c 0
 406 184 335 118 233 118 c 0
 194 118 164 127 138 141 c 1
 135 131 134 123 134 116 c 0xf1c0
 134 98 142 67 185 67 c 2
 273 67 l 2
 350 67 404 57 444 28 c 0
 478 3 495 -37 495 -80 c 0
 495 -139 445 -227 263 -227 c 0
 77 -227 29 -138 29 -79 c 0xf4c0
99 -76 m 0xe4c0
 99 -109 129 -160 264 -160 c 0
 366 -160 425 -126 425 -78 c 0
 425 -8 341 -3 267 -3 c 2
 187 -3 l 2
 110 -3 99 -51 99 -76 c 0xe4c0
144 283 m 0
 144 232 170 185 233 185 c 0
 288 185 322 223 322 284 c 0
 322 335 296 381 233 381 c 0xeac0
 194 381 144 360 144 283 c 0
EndSplineSet
EndChar

StartChar: h
Encoding: 104 104 153
Width: 525
Flags: HW
TeX: 610 0
HStem: 0 75<6.31372 89 173 255.894 285.879 352 435 517.972> 373 75<224.241 338.597> 535 76<6.26758 89>
VStem: 89 84<75 319.544 392 535> 284 236<2.26758 72.594> 352 83<75 360.145>
AnchorPoint: "affricate-below" 525 -222 basechar 0
AnchorPoint: "affricate-above" 525 611 basechar 0
AnchorPoint: "below" 262 0 basechar 0
AnchorPoint: "above" 262 611 basechar 0
LayerCount: 2
Fore
SplineSet
4 37 m 0
 4 73 28 75 43 75 c 0
 58 75 74 75 89 75 c 1
 89 535 l 1
 42 535 l 2
 5 535 4 560 4 575 c 0
 5 604 22 611 43 611 c 2
 135 611 l 2
 175 611 173 583 173 569 c 2
 173 392 l 1
 209 427 252 448 305 448 c 0
 428 448 435 352 435 288 c 2
 435 75 l 1xf4
 482 75 l 2
 495 75 520 73 520 38 c 0
 520 1 495 0 483 0 c 2
 323 0 l 2
 312 0 284 1 284 35 c 0xf8
 284 50 283 75 324 75 c 2
 352 75 l 1
 352 287 l 2
 352 337 347 373 289 373 c 0
 246 373 173 343 173 231 c 2
 173 75 l 1xf4
 219 75 l 2
 232 75 258 74 258 38 c 0
 258 8 243 0 219 0 c 2
 42 0 l 2
 10 0 4 17 4 37 c 0
EndSplineSet
EndChar

StartChar: i
Encoding: 105 105 154
Width: 525
Flags: HW
TeX: 610 0
HStem: 0 75<73.4719 233 316 459.933> 369 75<80.8565 233> 520 91<204.777 307.791>
VStem: 197 119<528.79 601.681> 233 83<75 369>
AnchorPoint: "above" 274 591 basechar 0
AnchorPoint: "ogonek" 267 0 basechar 0
AnchorPoint: "affricate-below" 525 -222 basechar 0
AnchorPoint: "affricate-above" 525 611 basechar 0
AnchorPoint: "below" 274 0 basechar 0
LayerCount: 2
Fore
SplineSet
197 565 m 0
 197 583 209 611 257 611 c 0
 292 611 316 592 316 565 c 0
 316 547 304 520 256 520 c 0xf0
 210 520 197 547 197 565 c 0
EndSplineSet
Refer: 74 305 S 1 0 0 1 0 0 3
EndChar

StartChar: j
Encoding: 106 106 155
Width: 525
Flags: HW
TeX: 610 222
HStem: -226 75<130.845 256.866> 369 75<123.479 291> 520 91<262.912 367.02>
VStem: 255 120<528.79 601.681> 291 84<-115.047 369>
AnchorPoint: "affricate-below" 525 -222 basechar 0
AnchorPoint: "affricate-above" 525 611 basechar 0
AnchorPoint: "below" 236 -222 basechar 0
LayerCount: 2
Fore
SplineSet
255 565 m 0
 255 583 268 611 316 611 c 0
 351 611 375 592 375 565 c 0
 375 547 362 520 314 520 c 0xf0
 268 520 255 547 255 565 c 0
EndSplineSet
Refer: 75 567 S 1 0 0 1 0 0 3
EndChar

StartChar: k
Encoding: 107 107 156
Width: 525
Flags: HW
TeX: 610 0
HStem: -0 75<16.1204 104 172 258.972 296.793 344 428 504.807> 369 75<238.521 304 380.146 482.535> 535 76<16.4214 104>
VStem: 104 68<75 157.842 233 535> 236 249<371.049 441.74> 295 212<2.11868 72.7852>
DStem2: 293 259 245 210 0.591554 -0.806266<11.1124 178.522>
AnchorPoint: "affricate-below" 525 -222 basechar 0
AnchorPoint: "affricate-above" 525 611 basechar 0
AnchorPoint: "below" 260 0 basechar 0
AnchorPoint: "above" 260 611 basechar 0
LayerCount: 2
Fore
SplineSet
14 38 m 1
 13 74 40 75 54 75 c 0
 71 75 87 75 104 75 c 1
 104 535 l 1
 54 535 l 2
 35 535 14 537 14 575 c 1
 15 606 35 611 52 611 c 2
 132 611 l 2
 148 611 172 610 172 572 c 2
 172 233 l 1
 304 369 l 1
 273 369 l 2
 260 369 236 371 236 408 c 1
 235 443 262 444 277 444 c 2
 446 444 l 2
 460 444 485 442 485 406 c 0
 485 371 459 369 449 369 c 2xf8
 412 369 l 1
 397 368 402 370 293 259 c 1
 428 75 l 1
 465 75 l 2
 482 75 507 74 507 38 c 0
 507 5 488 0 469 -0 c 2
 332 -0 l 2
 292 0 295 32 295 37 c 0xf4
 295 47 294 76 334 76 c 0
 337 76 341 75 344 75 c 1
 245 210 l 1
 174 137 173 140 172 125 c 1
 172 75 l 1
 222 75 l 2
 236 75 262 74 261 38 c 1
 262 4 238 0 221 -0 c 2
 54 -0 l 2
 38 0 13 3 14 38 c 1
EndSplineSet
EndChar

StartChar: l
Encoding: 108 108 157
Width: 525
Flags: HW
TeX: 610 0
HStem: 0 75<52.1489 220 304 471.779> 535 76<52.4885 220>
VStem: 220 84<75 535>
AnchorPoint: "affricate-below" 525 -222 basechar 0
AnchorPoint: "affricate-above" 525 611 basechar 0
AnchorPoint: "below" 262 0 basechar 0
AnchorPoint: "above" 262 611 basechar 0
LayerCount: 2
Fore
SplineSet
50 36 m 1
 50 74 72 75 90 75 c 2
 220 75 l 1
 220 535 l 1
 88 535 l 2
 72 535 50 537 50 575 c 0
 50 604 68 611 89 611 c 2
 266 611 l 2
 305 611 304 582 304 570 c 2
 304 75 l 1
 435 75 l 2
 449 75 474 75 474 38 c 0
 474 2 451 0 436 0 c 2
 88 0 l 2
 77 0 51 0 50 36 c 1
EndSplineSet
EndChar

StartChar: m
Encoding: 109 109 158
Width: 525
Flags: HW
TeX: 444 0
HStem: -0 75<-9.03183 46 114 167.972 189.707 229 297 351.344 372.707 412 479 533.895> 373 75<-7.70843 46 148.192 220.892 331.289 404.216>
VStem: -11 181<2.19257 73.0488> 46 68<75 333.627> 188 166<2.88649 72.5157> 229 68<75 332.422> 371 165<2.32635 72.5215> 412 67<75 368.156>
AnchorPoint: "affricate-below" 525 -222 basechar 0
AnchorPoint: "affricate-above" 525 611 basechar 0
AnchorPoint: "below" 262 0 basechar 0
AnchorPoint: "above" 262 450 basechar 0
LayerCount: 2
Fore
SplineSet
-11 38 m 0xe0
 -11 52 -9 75 26 75 c 0
 33 75 39 75 46 75 c 1
 46 369 l 1xd0
 28 369 l 2
 -12 369 -11 396 -11 410 c 0xe0
 -11 426 -4 444 26 444 c 2
 67 444 l 2
 68 444 72 445 76 445 c 0
 89 445 112 441 114 410 c 1
 136 431 164 448 204 448 c 0
 257 448 276 408 283 394 c 1
 320 445 372 448 387 448 c 0
 413 448 449 437 467 391 c 0
 478 361 479 329 479 297 c 2
 479 75 l 1xd1
 496 75 l 2
 537 75 536 49 536 37 c 0
 536 2 510 0 499 -0 c 2
 409 -0 l 2
 369 0 371 29 371 39 c 0xc2
 370 67 388 75 412 75 c 1
 412 291 l 2
 412 329 410 373 375 373 c 0
 330 373 297 318 297 232 c 2
 297 75 l 1xc5
 315 75 l 2
 326 75 354 74 354 38 c 0
 354 19 346 0 314 -0 c 2
 226 -0 l 2
 186 0 188 29 188 39 c 0xc8
 187 67 205 75 229 75 c 1
 229 291 l 2
 229 329 227 373 192 373 c 0
 145 373 114 315 114 232 c 2
 114 75 l 1xd4
 132 75 l 2
 145 75 170 75 170 38 c 0
 170 22 167 0 133 -0 c 2
 27 -0 l 2
 -6 0 -11 19 -11 38 c 0xe0
EndSplineSet
EndChar

StartChar: n
Encoding: 110 110 159
Width: 525
Flags: HW
TeX: 444 0
HStem: -0 75<6.31372 89 173 255.894 285.879 352 435 517.972> 369 75<6.50524 89 219.953 342.182>
VStem: 89 84<75 319.1> 284 236<2.26758 72.594> 352 83<75 360.145>
AnchorPoint: "affricate-below" 525 -222 basechar 0
AnchorPoint: "affricate-above" 525 611 basechar 0
AnchorPoint: "below" 262 0 basechar 0
AnchorPoint: "above" 262 450 basechar 0
LayerCount: 2
Fore
SplineSet
4 37 m 0
 4 73 28 75 43 75 c 0
 58 75 74 75 89 75 c 1
 89 369 l 1
 44 369 l 2
 26 369 4 371 4 409 c 0
 4 425 11 444 40 444 c 2
 135 444 l 2
 149 444 173 441 173 408 c 2
 173 392 l 1
 209 427 252 448 305 448 c 0
 428 448 435 352 435 288 c 2
 435 75 l 1xe8
 482 75 l 2
 495 75 520 73 520 38 c 0
 520 1 495 0 483 -0 c 2
 323 -0 l 2
 312 0 284 1 284 35 c 0xf0
 284 50 283 75 324 75 c 2
 352 75 l 1
 352 287 l 2
 352 337 347 373 289 373 c 0
 246 373 173 342 173 231 c 2
 173 75 l 1xe8
 219 75 l 2
 232 75 258 74 258 38 c 0
 258 8 243 0 219 -0 c 2
 42 -0 l 2
 10 0 4 17 4 37 c 0
EndSplineSet
EndChar

StartChar: o
Encoding: 111 111 160
Width: 525
Flags: HW
TeX: 444 0
HStem: -4 75<194.918 328.713> 375 75<191.546 331.967>
VStem: 52 84<134.833 317.678> 388 84<136.54 316.27>
AnchorPoint: "ogonek" 261 0 basechar 0
AnchorPoint: "affricate-below" 525 -222 basechar 0
AnchorPoint: "affricate-above" 525 611 basechar 0
AnchorPoint: "below" 261 0 basechar 0
AnchorPoint: "above" 262 450 basechar 0
LayerCount: 2
Fore
SplineSet
52 222 m 0
 52 366 139 450 262 450 c 0
 385 450 472 363 472 222 c 0
 472 82 386 -4 261 -4 c 0
 137 -4 52 84 52 222 c 0
136 231 m 0
 136 108 210 71 262 71 c 0
 333 71 388 128 388 230 c 0
 388 320 336 375 262 375 c 0
 203 375 136 336 136 231 c 0
EndSplineSet
EndChar

StartChar: p
Encoding: 112 112 161
Width: 525
Flags: HW
TeX: 444 222
HStem: -222 75<6.32031 89 173 255.894> -4 75<221.172 350.655> 369 75<6.12141 89 216.188 360.704>
VStem: 89 84<-147 48 123.716 327.134> 409 84<134.493 314.886>
AnchorPoint: "affricate-below" 525 -222 basechar 0
AnchorPoint: "affricate-above" 525 611 basechar 0
AnchorPoint: "below" 290 -222 basechar 0
AnchorPoint: "above" 290 450 basechar 0
LayerCount: 2
Fore
SplineSet
4 -187 m 0
 4 -148 26 -147 43 -147 c 0
 58 -147 74 -147 89 -147 c 1
 89 369 l 1
 43 369 l 2
 11 369 4 383 4 409 c 0
 4 443 30 444 46 444 c 2
 132 444 l 2
 170 444 173 424 173 405 c 2
 173 397 l 1
 206 425 247 448 304 448 c 0
 411 448 493 364 493 223 c 0
 493 60 385 -4 292 -4 c 0
 239 -4 203 18 173 48 c 1
 173 -147 l 1
 219 -147 l 2
 232 -147 258 -148 258 -184 c 0
 258 -214 243 -222 219 -222 c 2
 44 -222 l 2
 28 -222 4 -220 4 -187 c 0
173 187 m 2
 173 154 206 71 279 71 c 0
 357 71 409 129 409 222 c 0
 409 337 343 373 289 373 c 0
 223 373 173 317 173 278 c 2
 173 187 l 2
EndSplineSet
EndChar

StartChar: q
Encoding: 113 113 162
Width: 525
Flags: HW
TeX: 444 222
HStem: -222 75<284.228 372 455 542.972> -4 75<175.882 315.682> 373 75<179.22 318.533>
VStem: 33 84<132.275 310.665> 372 83<-147 52 124.076 314.729 391 445.874>
AnchorPoint: "affricate-below" 525 -222 basechar 0
AnchorPoint: "affricate-above" 525 611 basechar 0
AnchorPoint: "below" 244 -222 basechar 0
AnchorPoint: "above" 244 450 basechar 0
LayerCount: 2
Fore
SplineSet
33 222 m 0
 33 374 137 448 244 448 c 0
 301 448 337 426 372 391 c 1
 372 408 l 2
 372 447 393 448 412 448 c 2
 417 448 l 2
 457 448 455 422 455 405 c 2
 455 -147 l 1
 506 -147 l 2
 520 -147 546 -148 545 -184 c 1
 546 -219 521 -222 506 -222 c 2
 321 -222 l 2
 309 -222 282 -220 282 -186 c 0
 282 -148 305 -147 321 -147 c 0
 338 -147 355 -147 372 -147 c 1
 372 52 l 1
 339 23 297 -4 232 -4 c 0
 121 -4 33 79 33 222 c 0
117 222 m 0
 117 128 170 71 247 71 c 0
 318 71 372 134 372 175 c 2
 372 240 l 2
 372 296 331 373 257 373 c 0
 179 373 117 322 117 222 c 0
EndSplineSet
EndChar

StartChar: r
Encoding: 114 114 163
Width: 525
Flags: HW
TeX: 444 0
HStem: -0 75<26.0039 145 229 378.508> 369 75<25.7637 145 309.369 424.665>
VStem: 24 205<370.97 441.862> 145 84<75 278.764 365 369>
AnchorPoint: "affricate-below" 525 -222 basechar 0
AnchorPoint: "affricate-above" 525 611 basechar 0
AnchorPoint: "below" 202 0 basechar 0
AnchorPoint: "above" 242 450 basechar 0
LayerCount: 2
Fore
SplineSet
24 40 m 0xe0
 24 57 32 75 62 75 c 2
 145 75 l 1
 145 369 l 1xd0
 62 369 l 2
 24 369 24 393 24 410 c 0
 24 439 44 444 63 444 c 2
 193 444 l 2
 231 444 229 412 229 402 c 2xe0
 229 365 l 1
 262 409 320 448 393 448 c 0
 468 448 487 410 487 384 c 0
 487 360 469 342 446 342 c 0
 432 342 413 348 405 372 c 1
 402 372 398 373 395 373 c 0xd0
 312 373 229 307 229 173 c 2
 229 75 l 1xd0
 342 75 l 2
 355 75 381 75 381 36 c 0
 381 1 355 0 341 -0 c 2
 62 -0 l 2
 24 0 24 24 24 40 c 0xe0
EndSplineSet
EndChar

StartChar: s
Encoding: 115 115 164
Width: 525
Flags: HW
TeX: 444 0
HStem: -4 171<73.8735 137.806> -4 75<188.487 361.089> 305 145<365.42 428.095> 375 75<164.687 338.468>
VStem: 72 80<300.851 359.926> 379 80<91.0973 164.257>
AnchorPoint: "affricate-below" 525 -222 basechar 0
AnchorPoint: "affricate-above" 525 611 basechar 0
AnchorPoint: "below" 269 0 basechar 0
AnchorPoint: "above" 264 450 basechar 0
LayerCount: 2
Fore
SplineSet
72 32 m 2
 72 129 l 2
 72 163 87 167 119 167 c 0x8c
 131 167 144 165 152 151 c 0
 164 130 168 71 269 71 c 0
 315 71 379 79 379 130 c 0
 379 145 369 154 363 160 c 0
 308 206 176 180 104 250 c 0
 86 267 72 292 72 324 c 0
 72 375 102 450 264 450 c 0x5c
 310 450 338 444 365 433 c 1
 374 445 381 450 397 450 c 0
 411 450 430 444 430 415 c 2
 430 346 l 2
 430 306 414 305 391 305 c 2x2c
 383 305 l 2x2c
 308 305 396 375 261 375 c 0
 167 375 152 348 152 329 c 0
 152 314 168 302 183 296 c 0
 245 269 365 285 431 209 c 0
 448 189 459 164 459 134 c 0
 459 79 428 -4 269 -4 c 0x5c
 194 -4 160 19 144 28 c 1
 131 5 125 -4 104 -4 c 0
 89 -4 72 3 72 32 c 2
EndSplineSet
EndChar

StartChar: t
Encoding: 116 116 165
Width: 525
Flags: HW
TeX: 570 0
HStem: -4 75<244.194 342.177> 369 75<27.265 145 229 425.119>
VStem: 145 84<87.1118 369 444 569.034> 367 83<96.3287 179.077>
AnchorPoint: "affricate-below" 525 -222 basechar 0
AnchorPoint: "affricate-above" 525 611 basechar 0
AnchorPoint: "below" 247 0 basechar 0
AnchorPoint: "above" 187 571 basechar 0
LayerCount: 2
Fore
SplineSet
25 404 m 0
 25 416 25 444 63 444 c 2
 145 444 l 1
 145 534 l 2
 145 571 170 571 187 571 c 2
 192 571 l 2
 205 571 229 570 229 534 c 2
 229 444 l 1
 391 444 l 2
 420 444 428 423 428 406 c 0
 428 388 419 369 393 369 c 2
 229 369 l 1
 229 162 l 2
 229 122 230 71 296 71 c 0
 315 71 327 78 342 90 c 1
 372 129 361 140 367 159 c 0
 373 178 387 182 406 182 c 0
 424 182 450 179 450 147 c 0
 450 75 383 -4 282 -4 c 0
 245 -4 162 7 148 115 c 0
 146 132 145 148 145 165 c 2
 145 369 l 1
 63 369 l 2
 33 369 25 387 25 404 c 0
EndSplineSet
EndChar

StartChar: u
Encoding: 117 117 166
Width: 525
Flags: HW
TeX: 444 0
HStem: -4 75<177.113 321.332 435 516.801> 369 75<6.3269 89 268.694 352>
VStem: 89 84<79.8359 369> 266 169<370.968 441.247> 352 83<99.2252 369>
AnchorPoint: "ogonek" 393 0 basechar 0
AnchorPoint: "affricate-below" 525 -222 basechar 0
AnchorPoint: "affricate-above" 525 611 basechar 0
AnchorPoint: "below" 262 0 basechar 0
AnchorPoint: "above" 262 450 basechar 0
LayerCount: 2
Fore
SplineSet
4 406 m 0
 4 437 22 444 38 444 c 2
 136 444 l 2
 175 444 173 416 173 401 c 2
 173 115 l 2
 173 90 175 71 244 71 c 0
 313 71 346 106 351 134 c 0
 352 142 352 149 352 157 c 2
 352 369 l 1xe8
 305 369 l 2
 290 369 266 371 266 406 c 0
 266 423 273 444 305 444 c 2
 398 444 l 2
 431 444 435 424 435 406 c 2xf0
 435 75 l 1
 482 75 l 2
 521 75 520 48 520 38 c 0
 522 4 497 0 480 0 c 2
 390 0 l 2
 375 0 354 2 352 33 c 1
 314 7 274 -4 225 -4 c 0
 150 -4 89 15 89 113 c 2
 89 369 l 1
 56 369 l 2
 53 369 50 368 45 368 c 0
 28 368 4 372 4 406 c 0
EndSplineSet
EndChar

StartChar: v
Encoding: 118 118 167
Width: 525
Flags: HW
TeX: 444 0
HStem: -3 21G<243 283> 369 75<25.0939 102.013 167 231.101 291.941 356 420.266 497.442>
VStem: 23 210<370.951 441.572> 290 210<371.462 441.632>
DStem2: 167 369 107 332 0.298275 -0.95448<0 314.68> 262 69 322 36 0.30072 0.953712<0 314.381>
AnchorPoint: "affricate-below" 525 -222 basechar 0
AnchorPoint: "affricate-above" 525 611 basechar 0
AnchorPoint: "below" 262 0 basechar 0
AnchorPoint: "above" 261 450 basechar 0
LayerCount: 2
Fore
SplineSet
23 406 m 0
 23 439 41 444 61 444 c 2
 193 444 l 2
 210 444 235 440 233 406 c 1
 234 369 205 369 194 369 c 2
 167 369 l 1
 262 69 l 1
 356 369 l 1
 329 369 l 2
 319 369 290 370 290 404 c 0
 290 421 291 444 330 444 c 2
 462 444 l 2
 485 444 500 438 500 406 c 0
 500 372 473 369 463 369 c 0
 451 369 439 369 427 369 c 1
 424 358 420 346 416 335 c 2
 322 36 l 2
 312 4 295 -3 271 -3 c 2
 252 -3 l 2
 234 -3 212 0 201 33 c 2
 107 332 l 2
 103 344 99 357 96 369 c 1
 62 369 l 2
 48 369 23 369 23 406 c 0
EndSplineSet
EndChar

StartChar: w
Encoding: 119 119 168
Width: 525
Flags: HW
TeX: 444 0
HStem: -3 21G<160 199 320.5 369.5> 369 75<17.5391 71.2408 137 225.394 299.21 387 452.759 506.573>
VStem: 15 212<370.857 441.906> 180 85<70.2803 184.306> 297 212<371.307 441.604>
DStem2: 137 369 68 369 0.162482 -0.986711<0 302.013>
AnchorPoint: "affricate-below" 525 -222 basechar 0
AnchorPoint: "affricate-above" 525 611 basechar 0
AnchorPoint: "below" 262 0 basechar 0
AnchorPoint: "above" 262 450 basechar 0
LayerCount: 2
Fore
SplineSet
15 409 m 0
 15 426 22 444 52 444 c 2
 189 444 l 2
 220 444 228 426 227 406 c 1xe8
 228 370 203 369 188 369 c 0
 171 369 154 369 137 369 c 1
 176 111 l 1
 179 89 l 1
 180 70 l 1
 181 109 199 175 212 223 c 0
 223 265 242 267 263 267 c 0
 265 267 267 267 269 267 c 0
 311 267 314 239 323 207 c 0
 338 149 343 122 346 70 c 1
 353 176 372 271 387 369 c 1xd8
 335 369 l 2
 318 369 297 371 297 408 c 0
 297 426 305 444 335 444 c 2
 471 444 l 2
 485 444 509 442 509 405 c 0
 509 376 491 369 470 369 c 2
 456 369 l 1
 453 347 449 325 445 303 c 2
 401 35 l 2
 396 6 382 -3 357 -3 c 0
 352 -3 347 -3 342 -3 c 0
 299 -3 297 25 286 67 c 0
 267 143 266 171 265 197 c 1xd8
 265 132 237 28 228 15 c 0
 220 4 209 -3 189 -3 c 2
 168 -3 l 2
 152 -3 129 -2 123 35 c 2
 79 303 l 2
 75 325 71 347 68 369 c 1
 53 369 l 2
 41 369 15 369 15 409 c 0
EndSplineSet
EndChar

StartChar: x
Encoding: 120 120 169
Width: 525
Flags: HW
TeX: 444 0
HStem: -0 75<29.1796 128.996 191 235.909 285.928 330 406.188 492.95> 369 75<34.7637 122 202 241.779 272.524 314 378.219 479.715>
VStem: 27 211<2.20095 72.8542 373.614 439.364> 271 211<371.529 441.785> 284 211<2.02264 73.0007>
DStem2: 202 369 122 369 0.575354 -0.817905<0 98.8029 186.561 314.109> 260 289 292 230 0.559577 0.828779<0 96.5194>
AnchorPoint: "affricate-below" 525 -222 basechar 0
AnchorPoint: "affricate-above" 525 611 basechar 0
AnchorPoint: "below" 261 0 basechar 0
AnchorPoint: "above" 261 450 basechar 0
LayerCount: 2
Fore
SplineSet
27 39 m 0
 27 75 54 75 66 75 c 2
 102 75 l 2
 118 75 117 80 129 95 c 0
 207 202 216 216 226 229 c 1
 226 230 l 1
 122 369 l 1
 73 369 l 2
 58 369 33 371 33 404 c 0
 33 419 33 444 71 444 c 2
 207 444 l 2
 227 444 244 437 244 407 c 0
 244 371 221 369 206 369 c 2
 202 369 l 1
 260 289 l 1
 314 369 l 1
 273 369 271 388 271 407 c 0
 271 421 272 444 308 444 c 2
 443 444 l 2
 461 444 482 440 482 406 c 0
 483 370 454 369 443 369 c 2xf0
 406 369 l 2
 391 369 390 363 381 351 c 2
 292 230 l 1
 298 221 400 84 406 79 c 0
 410 76 415 75 420 75 c 2
 450 75 l 2
 451 75 453 76 457 76 c 0
 498 76 495 44 495 37 c 0
 495 4 474 0 457 0 c 2
 320 0 l 2
 286 0 284 25 284 37 c 0xe8
 284 74 306 75 325 75 c 2
 330 75 l 1
 259 181 l 1
 191 75 l 1
 199 75 l 2
 223 75 238 67 238 37 c 0
 238 22 236 0 201 -0 c 2
 65 -0 l 2
 32 0 27 19 27 39 c 0
EndSplineSet
EndChar

StartChar: y
Encoding: 121 121 170
Width: 525
Flags: HW
TeX: 444 222
HStem: -226 75<124 179.579> 369 75<28.1926 109.635 174 233.68 293.235 357 420.288 498.442>
VStem: 26 210<370.951 441.996> 42 83<-150.859 -110.074> 291 210<371.531 442.224>
DStem2: 174 369 115 333 0.351703 -0.936112<0 246.954> 234 -18 293 -55 0.301347 0.953515<-128.672 17.1921 173.198 406.076>
AnchorPoint: "affricate-below" 525 -222 basechar 0
AnchorPoint: "affricate-above" 525 611 basechar 0
AnchorPoint: "below" 264 -222 basechar 0
AnchorPoint: "above" 268 450 basechar 0
LayerCount: 2
Fore
SplineSet
26 406 m 0
 26 439 45 444 64 444 c 2
 196 444 l 2
 210 444 236 444 236 406 c 0
 236 370 212 369 196 369 c 2
 174 369 l 1
 238 192 l 1
 256 136 l 1
 269 91 l 1
 273 70 l 1
 276 117 336 299 357 369 c 1
 331 369 l 2
 314 369 291 371 291 407 c 0
 291 441 311 444 331 444 c 2
 463 444 l 2
 478 444 501 442 501 406 c 0
 501 372 474 369 464 369 c 2xe8
 427 369 l 1
 422 352 416 335 411 318 c 2
 293 -55 l 2
 273 -118 228 -226 126 -226 c 0
 68 -226 42 -179 42 -148 c 0
 42 -114 69 -105 84 -105 c 0
 104 -105 125 -120 125 -141 c 0xd8
 125 -144 125 -148 124 -151 c 1
 204 -148 218 -68 234 -18 c 0
 237 -10 238 -6 238 -1 c 0
 238 3 237 7 234 15 c 2
 115 333 l 2
 111 345 105 357 101 369 c 1
 66 369 l 2
 51 369 26 369 26 406 c 0
EndSplineSet
EndChar

StartChar: z
Encoding: 122 122 171
Width: 525
Flags: HW
TeX: 444 0
HStem: -0 154<392.285 472.879> -0 75<160 391> 301 143<50.0939 129.93> 369 75<132 344>
VStem: 48 84<303.518 369> 391 83<75 151.795>
DStem2: 49 80 160 75 0.714334 0.699805<75.792 412.972>
AnchorPoint: "affricate-below" 525 -222 basechar 0
AnchorPoint: "affricate-above" 525 611 basechar 0
AnchorPoint: "below" 253 0 basechar 0
AnchorPoint: "above" 253 450 basechar 0
LayerCount: 2
Fore
SplineSet
32 39 m 0
 32 65 37 68 49 80 c 2
 344 369 l 1
 132 369 l 1x5c
 132 341 l 2
 132 302 111 301 91 301 c 2
 88 301 l 2
 46 301 48 327 48 345 c 2
 48 399 l 2
 48 418 47 444 87 444 c 2x2c
 433 444 l 2
 470 444 471 421 471 405 c 0
 471 375 463 374 440 351 c 2
 160 75 l 1
 391 75 l 1x5c
 391 88 391 102 391 115 c 0
 391 135 392 154 433 154 c 0
 449 154 475 154 475 117 c 0
 475 114 474 112 474 109 c 2
 474 47 l 2
 474 44 475 41 475 38 c 0
 475 7 458 0 436 -0 c 2x8c
 68 -0 l 1
 31 1 32 29 32 39 c 0
EndSplineSet
EndChar

StartChar: braceleft
Encoding: 123 123 172
Width: 525
Flags: HW
TeX: 694 83
HStem: -83 75<313.447 472.629> 619 75<315.568 472.734>
VStem: 220 84<7.3577 243.052 367.175 603.871>
LayerCount: 2
Fore
SplineSet
49 305 m 0
 49 316 49 331 65 340 c 0
 79 348 193 336 216 386 c 0
 220 395 220 406 220 416 c 2
 220 569 l 2
 220 687 350 694 430 694 c 2
 438 694 l 2
 466 694 475 680 474 660 c 1
 475 636 470 619 439 619 c 2
 425 619 l 1
 303 617 304 594 304 566 c 2
 304 409 l 1
 306 348 270 321 243 306 c 1
 243 305 l 1
 283 284 304 251 304 201 c 2
 304 40 l 2
 304 15 307 -5 423 -8 c 1
 438 -8 l 2
 476 -8 474 -35 474 -45 c 0
 474 -57 475 -82 440 -83 c 0
 433 -83 426 -83 419 -83 c 0
 375 -83 237 -79 221 16 c 0
 219 25 220 34 220 43 c 2
 220 197 l 2
 220 216 222 236 184 252 c 0
 107 283 49 243 49 305 c 0
EndSplineSet
EndChar

StartChar: bar
Encoding: 124 124 173
Width: 525
Flags: HW
TeX: 694 83
VStem: 220 83<-78.0957 688.777>
LayerCount: 2
Fore
SplineSet
220 -32 m 2
 220 644 l 2
 220 690 252 694 262 694 c 0
 273 694 303 689 303 645 c 2
 303 -30 l 2
 303 -75 279 -83 262 -83 c 0
 248 -83 220 -77 220 -32 c 2
EndSplineSet
EndChar

StartChar: braceright
Encoding: 125 125 174
Width: 525
Flags: HW
TeX: 694 83
HStem: -83 75<50.4691 211.577> 271 84<331.86 466.208> 619 75<50.6281 210.723>
VStem: 220 84<5.46411 245.083 365.935 605.329>
LayerCount: 2
Fore
SplineSet
49 -45 m 0
 49 -35 48 -8 86 -8 c 2
 100 -8 l 1
 216 -5 220 15 220 40 c 2
 220 201 l 1
 218 262 253 290 280 305 c 1
 280 306 l 1
 243 326 220 356 220 409 c 2
 220 566 l 2
 220 594 221 617 98 619 c 1
 85 619 l 2
 56 619 49 634 49 654 c 2
 49 660 l 2
 49 692 73 694 87 694 c 0
 91 694 95 694 99 694 c 0
 254 694 304 644 304 569 c 2
 304 409 l 2
 304 390 306 369 349 355 c 0
 425 330 474 363 474 307 c 0
 474 296 475 280 458 271 c 0
 443 264 332 274 308 227 c 0
 303 218 304 207 304 197 c 2
 304 43 l 2
 304 -27 270 -82 95 -83 c 1
 83 -83 l 1
 47 -82 49 -55 49 -45 c 0
EndSplineSet
EndChar

StartChar: asciitilde
Encoding: 126 126 175
Width: 525
Flags: HW
TeX: 610 0
HStem: 468 85<282.627 362.519> 526 85<161.252 240.771>
LayerCount: 2
Fore
SplineSet
71 509 m 0
 71 528 136 611 201 611 c 0x40
 260 611 291 553 323 553 c 0
 359 553 381 610 410 610 c 0
 431 610 452 588 452 571 c 0
 452 549 383 468 322 468 c 0x80
 263 468 233 526 201 526 c 0x40
 165 526 141 469 112 469 c 0
 96 469 71 488 71 509 c 0
EndSplineSet
EndChar

StartChar: uni00AD
Encoding: 173 173 176
Width: 525
Flags: HW
TeX: 444 0
HStem: 185 75<176.793 347.933>
VStem: 175 175<187.503 257.388>
LayerCount: 2
Fore
SplineSet
175 219 m 0
 175 237 176 260 212 260 c 2
 311 260 l 2
 342 260 351 242 350 223 c 0
 350 207 347 185 310 185 c 2
 213 185 l 2
 193 185 175 191 175 219 c 0
EndSplineSet
EndChar

StartChar: Abreve
Encoding: 258 258 177
Width: 525
Flags: HW
TeX: 860 0
HStem: 0 75<28.8209 89 175 226.515 295.964 349 430.572 494.971> 150 75<207 317> 599 20<227.5 298.5> 657 78<184.513 318.984>
VStem: 27 202<2.82129 73.2827> 68 77<772.509 858.513> 294 203<2.48848 72.6686> 359 75<772.833 859.027>
DStem2: 89 75 175 75 0.214453 0.976734<18.4429 94.9148 171.816 419.076> 424 125 317 225 0.214453 -0.976734<-367.382 -120.62 -43.9336 32.7528>
AnchorPoint: "below" 262 0 basechar 0
AnchorPoint: "above" 264 841 basechar 0
LayerCount: 2
Fore
SplineSet
68 827 m 0
 68 842 76 861 105 861 c 0
 148 861 141 831 145 814 c 0
 155 765 204 735 251 735 c 0
 310 735 355 775 359 825 c 0
 360 838 361 861 396 861 c 2xf5
 399 861 l 2
 415 861 434 854 434 826 c 0
 434 745 362 657 251 657 c 0
 142 657 68 743 68 827 c 0
EndSplineSet
Refer: 114 65 S 1 0 0 1 -0 0 3
AlternateSubs2: "Stilistic set 01 subtable" Abreve.vn
AlternateSubs2: "Latin alternatives subtable" Abreve.vn
Substitution2: "Latin Vietnamese substitutions subtable" Abreve.vn
EndChar

StartChar: Aogonek
Encoding: 260 260 178
Width: 525
Flags: HW
TeX: 610 222
HStem: -230 71<373.735 445.048> 0 75<28.8209 89 175 226.515 295.885 349> 150 75<207 317> 599 20G<227.5 298.5>
VStem: 27 202<2.82129 73.2827> 294 203<2.29693 72.6686> 295 72<-153.219 -63.3202>
DStem2: 89 75 175 75 0.214453 0.976734<18.4429 94.9148 171.816 419.076> 424 125 317 225 0.214453 -0.976734<-367.382 -120.62 -43.9336 32.7528>
AnchorPoint: "above" 264 619 basechar 0
LayerCount: 2
Fore
SplineSet
27 38 m 1
 26 75 54 75 65 75 c 2
 89 75 l 1
 98 119 l 1
 199 576 l 2
 204 597 208 619 247 619 c 0
 258 619 269 619 280 619 c 0
 317 619 322 591 325 576 c 2
 424 125 l 2
 428 109 432 91 435 75 c 1
 457 75 l 2
 473 75 497 74 497 36 c 1xfc
 498 4 475 5 451 -10 c 0
 413 -34 367 -73 367 -115 c 0
 367 -140 386 -159 408 -159 c 0
 446 -159 450 -112 480 -112 c 0
 495 -112 522 -126 522 -149 c 0
 522 -172 479 -230 413 -230 c 0
 354 -230 295 -183 295 -113 c 0xfa
 295 -63 325 -26 350 0 c 1
 333 0 l 2
 313 0 294 7 294 35 c 0xfc
 294 46 292 75 333 75 c 2
 349 75 l 1
 333 150 l 1
 190 150 l 1
 175 75 l 1
 190 75 l 2
 203 75 229 75 229 38 c 0
 229 30 229 0 190 0 c 2
 65 0 l 2
 34 0 26 18 27 38 c 1
207 225 m 1
 317 225 l 1
 306 289 264 462 262 541 c 1xf8
 255 444 214 266 207 225 c 1
EndSplineSet
Ligature2: "Latin ligatures subtable" A uni0328
EndChar

StartChar: Ccaron
Encoding: 268 268 180
Width: 525
Flags: HW
TeX: 860 0
HStem: -8 75<219.78 361.716> 406 213<416.511 482.105> 544 75<219.684 355.041> 622 21G<288 303>
VStem: 40 84<180.657 432.774> 392 92<411.312 507.259> 400 84<105.907 193.525>
AnchorPoint: "below" 280 0 basechar 0
AnchorPoint: "above" 279 789 basechar 0
LayerCount: 2
Fore
SplineSet
153 778 m 0
 153 796 167 809 183 809 c 0
 199 809 202 803 297 713 c 1
 396 807 395 809 410 809 c 0x98
 425 809 440 796 440 778 c 0
 440 761 441 767 327 640 c 0
 318 630 310 622 296 622 c 0
 280 622 273 633 256 651 c 0
 153 765 153 762 153 778 c 0
EndSplineSet
Refer: 116 67 S 1 0 0 1 0 0 3
EndChar

StartChar: Dcaron
Encoding: 270 270 181
Width: 525
Flags: HW
TeX: 860 0
HStem: 0 75<16.7479 78 162 321> 535 76<17.1023 78 162 314.629> 622 21G<226 241>
VStem: 78 84<75 535> 402 84<175.328 433.372>
AnchorPoint: "below" 215 0 basechar 0
AnchorPoint: "above" 215 797 basechar 0
LayerCount: 2
Fore
SplineSet
91 778 m 0
 91 796 105 809 121 809 c 0
 137 809 140 803 235 713 c 1
 334 807 333 809 348 809 c 0
 363 809 378 796 378 778 c 0
 378 761 378 767 264 640 c 0
 255 630 248 622 234 622 c 0
 218 622 211 633 194 651 c 0
 91 765 91 762 91 778 c 0
EndSplineSet
Refer: 117 68 S 1 0 0 1 -0 0 3
EndChar

StartChar: Ecaron
Encoding: 282 282 182
Width: 525
Flags: HW
TeX: 860 0
HStem: 0 75<19.8928 89 173 419> 0 185<420.861 500.815> 279 75<173 290> 535 76<19.9012 89 173 397> 622 21G<235 250>
VStem: 89 84<75 279 354 535> 290 84<224.531 279 354 408.692> 397 83<443.426 535> 419 84<75 183.081>
AnchorPoint: "below" 260 0 basechar 0
AnchorPoint: "above" 260 797 basechar 0
LayerCount: 2
Fore
SplineSet
99 778 m 0
 99 796 114 809 130 809 c 0
 146 809 148 803 243 713 c 1
 342 807 341 809 356 809 c 0x3e
 371 809 386 796 386 778 c 0
 386 761 387 767 273 640 c 0
 264 630 257 622 243 622 c 0
 227 622 219 633 202 651 c 0
 99 765 99 762 99 778 c 0
EndSplineSet
Refer: 118 69 S 1 0 0 1 0 0 3
EndChar

StartChar: Eogonek
Encoding: 280 280 183
Width: 525
Flags: HW
TeX: 610 222
HStem: -230 71<349.06 420.424> 0 75<19.7479 89 173 325> 279 75<173 290> 535 76<20.1094 89 173 397>
VStem: 89 84<75 279 354 535> 271 72<-153.413 -63.468> 290 84<224.531 279 354 408.692> 397 83<443.358 535> 419 84<75 183.224>
AnchorPoint: "above" 250 619 basechar 0
LayerCount: 2
Fore
SplineSet
18 40 m 0
 18 73 44 75 55 75 c 2
 89 75 l 1
 89 535 l 1
 78 535 67 535 56 535 c 0
 42 535 18 537 18 572 c 0
 18 585 18 611 58 611 c 2
 442 611 l 2
 482 611 480 583 480 570 c 2
 480 478 l 1
 481 444 455 441 444 441 c 2
 440 441 l 2
 396 441 397 461 397 487 c 2
 397 535 l 1xfd
 173 535 l 1
 173 354 l 1
 290 354 l 1
 290 372 l 1
 289 409 313 411 327 411 c 0
 329 411 331 411 333 411 c 0
 371 411 374 391 374 371 c 2
 374 260 l 2
 374 224 350 222 335 222 c 2
 331 222 l 2
 289 222 290 248 290 262 c 2
 290 279 l 1
 173 279 l 1
 173 75 l 1
 419 75 l 1
 419 149 l 1
 420 185 442 185 460 185 c 2xfa80
 465 185 l 2
 479 185 503 184 503 147 c 2
 503 42 l 2xfa80
 503 28 503 0 468 -0 c 2
 460 -0 l 2
 444 0 443 -1 428 -10 c 0
 356 -55 343 -94 343 -115 c 0
 343 -140 362 -159 384 -159 c 0
 423 -159 423 -113 456 -113 c 0
 476 -113 498 -129 498 -149 c 0
 498 -170 457 -230 390 -230 c 0
 332 -230 271 -184 271 -113 c 0
 271 -68 294 -32 325 0 c 1
 56 0 l 2
 16 0 18 29 18 40 c 0
EndSplineSet
EndChar

StartChar: Gbreve
Encoding: 286 286 184
Width: 525
Flags: HW
TeX: 860 0
HStem: -8 75<203.909 319.55> -1 21G<395 431.5> 193 75<283.094 362 449 493.774> 517 102<382.469 447.309> 544 75<208.698 378.711> 657 78<192.513 327.045>
VStem: 37 84<171.217 438.488> 76 77<772.291 858.291> 362 87<118.701 193 769.116 856.596>
LayerCount: 2
Fore
SplineSet
37 306 m 0
 37 505 129 619 269 619 c 0xae80
 311 619 345 618 382 608 c 1
 392 613 402 619 416 619 c 0
 437 619 449 606 449 585 c 2
 449 556 l 2
 449 541 450 517 412 517 c 2
 404 517 l 2x3680
 350 517 410 544 287 544 c 0
 157 544 121 414 121 305 c 0
 121 120 210 67 269 67 c 0xae80
 344 67 358 170 362 193 c 1
 324 193 l 2
 323 193 321 192 320 192 c 0
 304 192 281 194 281 230 c 0
 281 263 299 268 319 268 c 2
 454 268 l 2
 477 268 496 267 496 227 c 0
 496 199 478 192 457 192 c 0
 454 192 452 193 449 193 c 1
 449 40 l 2
 449 26 451 -1 412 -1 c 2x6680
 402 -1 l 2x6680
 388 -1 368 2 365 31 c 1
 336 7 301 -8 259 -8 c 0
 170 -8 37 61 37 306 c 0
76 827 m 0
 76 843 84 861 113 861 c 0
 156 861 149 831 153 814 c 0
 163 765 212 735 259 735 c 0
 318 735 363 775 367 825 c 0
 368 838 369 861 404 861 c 2x2580
 408 861 l 2
 424 861 443 854 443 826 c 0
 443 745 370 657 259 657 c 0
 150 657 76 742 76 827 c 0
EndSplineSet
EndChar

StartChar: Lcaron
Encoding: 317 317 186
Width: 525
Flags: HW
TeX: 860 0
HStem: 0 75<25.6765 101 185 405> 535 76<26.3148 101 185 236>
VStem: 101 84<75 535> 222 164<612.543 696.748> 405 84<75 183.329>
LayerCount: 2
Fore
SplineSet
24 39 m 0
 22 74 49 75 66 75 c 2
 101 75 l 1
 101 535 l 1
 63 535 l 2
 41 535 24 542 24 570 c 0
 24 609 44 611 63 611 c 2
 236 611 l 1
 224 629 222 646 222 655 c 0
 222 696 252 730 297 730 c 0
 339 730 386 696 386 634 c 0
 386 539 302 488 280 488 c 0
 264 488 236 509 239 535 c 1
 185 535 l 1
 185 75 l 1
 405 75 l 1
 405 149 l 1
 406 184 426 185 443 185 c 2
 447 185 l 2
 466 185 489 185 489 149 c 2
 489 41 l 2
 489 20 486 0 449 0 c 2
 61 0 l 2
 22 0 24 30 24 39 c 0
281 572 m 1
 290 580 l 1
 282 582 l 1
 281 572 l 1
EndSplineSet
EndChar

StartChar: Lslash
Encoding: 321 321 187
Width: 525
Flags: HW
TeX: 610 0
HStem: 0 75<25.6765 101 185 405> 535 76<25.9953 101 185 279.791>
VStem: 101 84<75 238 398 535> 405 84<75 183.329>
LayerCount: 2
Fore
SplineSet
24 39 m 0
 22 74 49 75 66 75 c 2
 101 75 l 1
 101 238 l 1
 93 232 82 223 70 223 c 0
 50 223 32 248 32 265 c 0
 32 298 101 316 101 345 c 2
 101 535 l 1
 66 535 l 2
 48 535 24 536 24 573 c 0
 24 605 41 611 62 611 c 2
 242 611 l 2
 263 611 282 603 282 575 c 0
 282 536 261 535 240 535 c 2
 185 535 l 1
 185 398 l 1
 269 463 274 469 288 469 c 0
 307 469 327 447 327 427 c 0
 327 415 320 406 307 396 c 0
 209 321 198 312 185 303 c 1
 185 75 l 1
 405 75 l 1
 405 149 l 1
 406 184 426 185 443 185 c 2
 447 185 l 2
 466 185 489 185 489 149 c 2
 489 41 l 2
 489 20 486 0 449 0 c 2
 61 0 l 2
 22 0 24 30 24 39 c 0
EndSplineSet
EndChar

StartChar: Ncaron
Encoding: 327 327 189
Width: 525
Flags: HW
TeX: 860 0
HStem: 0 75<23.1094 86 154 217.752> 535 76<23.3071 86 305.185 369 437 499.891> 622 21G<254 269>
VStem: 21 199<2.70251 72.6349> 86 68<75 535> 303 199<537.406 608.604> 369 68<70 535>
DStem2: 203 569 205 374 0.325826 -0.94543<12.1215 523.485>
LayerCount: 2
Fore
SplineSet
118 778 m 0
 118 796 132 809 148 809 c 0
 164 809 167 803 262 713 c 1
 361 807 360 809 375 809 c 0xe0
 390 809 405 796 405 778 c 0
 405 761 406 767 292 640 c 0
 283 630 276 622 262 622 c 0
 246 622 238 633 221 651 c 0
 118 765 118 762 118 778 c 0
EndSplineSet
Refer: 127 78 S 1 0 0 1 -0 0 3
EndChar

StartChar: Eng
Encoding: 330 330 190
Width: 525
Flags: HW
TeX: 610 0
HStem: -8 76<332.34 394.531> 0 75<16.0494 75 159 234.952> 535 76<16.5077 75> 547 83<215.163 345.408>
VStem: 14 223<2.42472 72.772> 75 84<75 487.576> 244 85<72.4304 137.359> 403 84<72.7256 484.832>
LayerCount: 2
Fore
SplineSet
14 36 m 0x5b
 14 52 16 75 53 75 c 2
 75 75 l 1
 75 535 l 1x67
 53 535 l 2
 32 535 14 540 14 576 c 0
 14 594 22 611 53 611 c 2
 121 611 l 2x6b
 139 611 151 607 158 587 c 1
 206 625 256 630 280 630 c 0
 390 630 487 539 487 402 c 2
 487 137 l 2
 487 11 405 -8 365 -8 c 0
 294 -8 244 46 244 100 c 0
 244 128 264 143 286 143 c 0
 328 143 329 97 329 97 c 1
 332 80 348 68 365 68 c 0x9b
 380 68 403 77 403 134 c 2
 403 397 l 2
 403 508 330 547 281 547 c 0
 218 547 159 494 159 399 c 2
 159 75 l 1
 195 75 l 2x57
 212 75 238 74 237 38 c 1
 238 6 217 0 198 0 c 2
 53 0 l 2
 42 0 14 1 14 36 c 0x5b
EndSplineSet
EndChar

StartChar: Ohungarumlaut
Encoding: 336 336 191
Width: 525
Flags: HW
TeX: 771 0
HStem: -8 75<151.48 374.236> 544 75<149.545 374.179> 692 109<154.406 259.894 300.427 316.518 342.503 448.002>
VStem: 56 84<77.681 534.347> 384 84<77.6511 532.494>
AnchorPoint: "below" 256 0 basechar 0
AnchorPoint: "above" 261 781 basechar 0
LayerCount: 2
Fore
SplineSet
56 196 m 2
 56 415 l 1
 60 580 62 596 88 606 c 0
 116 616 166 619 243 619 c 2
 280 619 l 2
 373 619 436 616 451 596 c 0
 466 577 466 471 468 414 c 1
 468 196 l 1
 467 77 460 29 452 17 c 0
 438 -4 389 -8 262 -8 c 2
 255 -8 l 2
 169 -8 92 -6 74 15 c 0
 59 33 56 139 56 196 c 2
108 744 m 0
 108 777 133 775 265 800 c 0
 270 801 275 801 280 801 c 0
 303 801 314 785 319 775 c 1
 452 800 460 801 467 801 c 0
 492 801 509 782 509 760 c 0
 509 719 464 717 454 715 c 0
 413 707 335 692 330 692 c 0
 303 692 299 719 298 722 c 1
 284 717 148 692 143 692 c 0
 112 692 108 733 108 744 c 0
140 250 m 1
 141 195 140 155 144 114 c 0
 148 79 145 67 256 67 c 2
 264 67 l 2
 369 67 374 77 378 100 c 0
 383 133 384 218 384 268 c 2
 384 411 l 1
 380 527 386 535 334 541 c 0
 313 543 292 544 271 544 c 2
 251 544 l 2
 142 544 148 531 144 496 c 0
 141 468 140 432 140 411 c 2
 140 250 l 1
EndSplineSet
EndChar

StartChar: Rcaron
Encoding: 344 344 193
Width: 525
Flags: HW
TeX: 860 0
HStem: -8 21<410 461> 0 75<17.1052 80 164 227.752> 268 75<164 298.217> 535 76<17.3148 80 164 310.046> 622 21G<212 227>
VStem: 15 215<2.70251 72.6006> 80 84<75 268 343 535> 322 84<71.6243 244.702> 349 84<379.629 499.538> 432 90<67.6704 125.662>
AnchorPoint: "below" 214 0 basechar 0
AnchorPoint: "above" 214 797 basechar 0
LayerCount: 2
Fore
SplineSet
76 778 m 0
 76 796 91 809 107 809 c 0
 123 809 125 803 220 713 c 1
 319 807 318 809 333 809 c 0x38
 348 809 364 796 364 778 c 0
 364 761 364 767 250 640 c 0
 241 630 234 622 220 622 c 0
 204 622 197 633 180 651 c 0
 77 765 76 762 76 778 c 0
EndSplineSet
Refer: 131 82 S 1 0 0 1 0 0 3
EndChar

StartChar: Scaron
Encoding: 352 352 195
Width: 525
Flags: HW
TeX: 860 0
HStem: -8 75<186.966 356.459> 544 75<162.389 313.417> 622 21G<254 269>
VStem: 52 80<2.77856 32 406.145 513.617> 363 82<408.951 493.55> 372 73<578 613.968> 392 80<102.422 225.866>
AnchorPoint: "below" 285 0 basechar 0
AnchorPoint: "above" 236 789 basechar 0
LayerCount: 2
Fore
SplineSet
118 778 m 0
 118 796 133 809 149 809 c 0
 165 809 167 803 262 713 c 1
 357 803 359 809 375 809 c 0xf0
 390 809 405 796 405 778 c 0
 405 761 406 767 292 640 c 0
 283 630 276 622 262 622 c 0
 246 622 238 633 221 651 c 0
 118 765 118 762 118 778 c 0
EndSplineSet
Refer: 132 83 S 1 0 0 1 0 -0 3
EndChar

StartChar: Scedilla
Encoding: 350 350 196
Width: 525
Flags: HW
TeX: 610 194
HStem: -210 75<160.966 327.418> -8 21G<67 98.5> 544 75<164.655 313.417>
VStem: 52 80<2.77856 32 404.269 513.545> 333 84<-123.387 -71.9241> 363 82<408.951 493.55> 372 73<578 613.968> 392 80<100.842 224.969>
LayerCount: 2
Fore
SplineSet
52 30 m 2
 52 167 l 1
 53 203 78 203 90 203 c 0
 164 203 114 158 159 109 c 0
 191 75 245 67 284 67 c 0
 370 67 392 124 392 165 c 0xf1
 392 218 354 245 338 253 c 0
 308 269 198 285 159 301 c 0
 123 316 52 362 52 454 c 0
 52 533 107 619 236 619 c 0
 317 619 361 586 372 578 c 1
 382 602 387 619 413 619 c 0
 439 619 445 602 445 581 c 2xf2
 445 444 l 2
 445 429 444 407 407 407 c 2
 399 407 l 2
 388 407 369 410 363 429 c 0xf4
 359 441 358 544 235 544 c 0
 171 544 132 509 132 457 c 0
 132 362 266 367 347 340 c 0
 409 319 472 260 472 169 c 0xf1
 472 107 441 25 345 -1 c 1
 361 -10 417 -35 417 -100 c 0
 417 -129 405 -154 383 -173 c 0
 342 -208 266 -210 202 -210 c 2
 199 -210 l 2
 183 -210 159 -209 159 -173 c 0
 159 -160 160 -135 196 -135 c 2xf8
 219 -135 l 1
 307 -134 333 -120 333 -99 c 0xf8
 333 -84 317 -68 287 -64 c 0
 273 -62 247 -64 246 -29 c 0
 246 -21 247 -13 249 -7 c 1
 212 -3 168 5 126 32 c 1
 118 15 113 -8 84 -8 c 0
 50 -8 52 22 52 30 c 2
EndSplineSet
EndChar

StartChar: Tcaron
Encoding: 356 356 197
Width: 525
Flags: HW
TeX: 860 0
HStem: 0 75<129.942 220 304 394.041> 441 170<28.3862 107.856 415.654 495.813> 535 76<110 220 304 414> 622 21G<254 269>
VStem: 26 84<443.064 535> 220 84<75 535> 414 84<443.342 535>
CounterMasks: 1 0e
AnchorPoint: "below" 262 0 basechar 0
AnchorPoint: "above" 262 797 basechar 0
LayerCount: 2
Fore
SplineSet
118 778 m 0
 118 796 133 809 149 809 c 0
 165 809 167 803 262 713 c 1
 361 807 360 809 375 809 c 0x9e
 390 809 406 796 406 778 c 0
 406 761 406 767 292 640 c 0
 283 630 276 622 262 622 c 0
 246 622 239 633 222 651 c 0
 119 765 118 762 118 778 c 0
EndSplineSet
Refer: 133 84 S 1 0 0 1 0 0 3
EndChar

StartChar: Tcommaaccent
Encoding: 354 354 198
Width: 525
Flags: HW
TeX: 610 194
HStem: -210 75<135.033 301.621> 0 75<130.05 220 316 393.765> 441 170<28.3862 107.856 415.654 495.813> 535 76<110 220 304 414>
VStem: 26 84<443.064 535> 220 84<75 535> 307 84<-123.118 -72.3293> 414 84<443.342 535>
LayerCount: 2
Fore
SplineSet
26 480 m 2
 26 573 l 2
 26 603 43 611 64 611 c 2
 461 611 l 2
 500 611 498 581 498 568 c 2
 498 483 l 2
 498 470 499 441 461 441 c 0
 459 441 457 441 455 441 c 0xef
 416 441 414 461 414 481 c 0
 414 499 414 517 414 535 c 1
 304 535 l 1
 304 75 l 1xdf
 356 75 l 2
 373 75 396 74 396 40 c 0
 396 1 374 0 357 -0 c 2
 316 -0 l 1
 356 -15 391 -49 391 -100 c 0
 391 -151 358 -183 312 -197 c 0
 270 -210 226 -210 176 -210 c 2
 172 -210 l 2
 158 -210 133 -209 133 -173 c 0
 133 -152 140 -135 168 -135 c 2
 193 -135 l 1
 227 -134 307 -134 307 -100 c 0
 307 -86 293 -70 265 -65 c 0
 237 -61 220 -63 220 -21 c 2
 220 0 l 1
 167 0 l 2
 152 0 128 2 128 36 c 0
 128 73 149 75 166 75 c 0
 184 75 202 75 220 75 c 1
 220 535 l 1
 110 535 l 1xdf
 110 481 l 2
 110 444 92 441 66 441 c 2
 63 441 l 2
 51 441 26 442 26 480 c 2
EndSplineSet
EndChar

StartChar: Uring
Encoding: 366 366 200
Width: 525
Flags: HW
TeX: 860 0
HStem: -8 75<197.312 327.956> 535 76<-0.673096 68 152 186.685 339.703 374 457 525.528> 582 75<221.219 304.462> 791 75<219.251 306.344>
VStem: 68 84<119.042 535> 146 59<670.23 777.44> 321 58<669.496 777.186> 374 83<118.774 535>
LayerCount: 2
Fore
SplineSet
-3 572 m 0
 -3 609 21 611 35 611 c 2
 187 611 l 1
 174 625 146 656 146 724 c 0
 146 831 211 866 263 866 c 0
 333 866 379 811 379 725 c 0xd6
 379 657 354 627 339 611 c 1
 490 611 l 2
 505 611 528 609 528 572 c 0
 528 537 502 535 491 535 c 2
 457 535 l 1
 457 215 l 2
 457 28 334 -8 263 -8 c 0
 189 -8 68 30 68 214 c 2
 68 535 l 1xd9
 38 535 l 2
 21 535 -3 536 -3 572 c 0
152 212 m 2
 152 90 219 67 263 67 c 0
 307 67 374 89 374 212 c 2
 374 535 l 1xd9
 364 535 354 535 344 535 c 0xd9
 326 535 303 537 303 573 c 0
 303 578 304 584 305 590 c 1
 293 586 280 582 263 582 c 0xb9
 246 582 233 586 221 590 c 1
 222 584 222 578 222 572 c 0
 222 537 198 535 182 535 c 2
 152 535 l 1
 152 212 l 2
205 723 m 0
 205 683 228 657 263 657 c 0
 288 657 321 673 321 724 c 0
 321 764 297 791 262 791 c 0xb6
 237 791 205 774 205 723 c 0
EndSplineSet
EndChar

StartChar: Ydieresis
Encoding: 376 376 201
Width: 525
Flags: HW
TeX: 860 0
HStem: 0 75<157.105 220 304 367.125> 535 76<21.0119 86 178 216.786 306.643 346 439 502.894> 674 120<114.935 205.323 318.391 409.926>
VStem: 19 200<536.954 609.036> 100 120<688.004 779.286> 155 214<2.42921 72.6006> 220 84<75 244> 304 120<688.584 779.932> 305 200<537.571 608.988>
DStem2: 178 535 86 535 0.415686 -0.909508<0 185.455>
AnchorPoint: "below" 262 0 basechar 0
AnchorPoint: "above" 262 782 basechar 0
LayerCount: 2
Fore
SplineSet
100 734 m 0
 100 764 125 794 160 794 c 0
 191 794 220 768 220 734 c 0xe8
 220 701 193 674 160 674 c 0
 128 674 100 699 100 734 c 0
304 734 m 0
 304 766 330 794 364 794 c 0
 396 794 424 769 424 734 c 0
 424 698 393 674 364 674 c 0xe1
 333 674 304 700 304 734 c 0
EndSplineSet
Refer: 138 89 S 1 0 0 1 0 -0 3
EndChar

StartChar: Zcaron
Encoding: 381 381 203
Width: 525
Flags: HW
TeX: 860 0
HStem: -0 75<157 397> -0 189<399.234 478.807> 535 76<143 367> 622 21G<259 274>
VStem: 59 84<443.268 535> 397 84<75 186.693>
DStem2: 74 100 157 75 0.558019 0.829828<25.5699 524.475>
AnchorPoint: "below" 264 0 basechar 0
AnchorPoint: "above" 264 797 basechar 0
LayerCount: 2
Fore
SplineSet
123 778 m 0
 123 796 138 809 154 809 c 0
 170 809 172 803 267 713 c 1
 362 803 364 809 380 809 c 0x3c
 395 809 411 796 411 778 c 0
 411 761 411 767 297 640 c 0
 288 630 281 622 267 622 c 0
 251 622 244 633 227 651 c 0
 124 765 123 762 123 778 c 0
EndSplineSet
Refer: 139 90 S 1 0 0 1 0 -0 3
EndChar

StartChar: IJ
Encoding: 306 306 205
Width: 525
Flags: HW
TeX: 610 0
HStem: -8 76<309.917 363.519> 0 75<4.94458 63 146 204.154> 535 76<4.94897 63 146 203.62 299.268 371 454 494.686>
VStem: 3 203<2.57739 72.7061 537.283 608.652> 222 85<69.6096 137.237> 297 200<537.484 608.803> 371 83<74.1842 535>
LayerCount: 2
Fore
SplineSet
3 38 m 1
 2 58 12 75 41 75 c 2
 63 75 l 1x70
 63 535 l 1
 42 535 l 2
 26 535 2 538 3 573 c 1
 2 608 27 611 43 611 c 2
 168 611 l 2
 190 611 206 604 206 571 c 0
 206 552 197 535 168 535 c 2
 146 535 l 1
 146 75 l 1
 167 75 l 2
 188 75 206 68 206 40 c 0
 206 27 207 0 166 0 c 2
 41 0 l 2
 19 0 2 9 3 38 c 1
222 100 m 0
 222 124 239 143 264 143 c 0
 306 143 307 96 307 96 c 1
 311 78 325 68 337 68 c 0
 350 68 371 78 371 139 c 2
 371 535 l 1xba
 336 535 l 2
 324 535 297 537 297 571 c 0
 297 585 298 611 335 611 c 2
 460 611 l 2
 478 611 497 606 497 572 c 0xb4
 497 536 473 535 458 535 c 2
 454 535 l 1
 454 133 l 2
 454 20 384 -8 338 -8 c 0
 271 -8 222 45 222 100 c 0
EndSplineSet
Ligature2: "Latin Dutch ligatures subtable" I J
EndChar

StartChar: dcroat
Encoding: 273 273 207
Width: 525
Flags: HW
TeX: 610 0
HStem: -4 75<160.057 315.699 435 516.697> 289 76<160.733 340.249> 412 76<131.111 351 435 517.594> 535 76<267.989 351>
VStem: 31 84<112.946 246.756> 351 84<102.787 272.673 340 412 488 535>
LayerCount: 2
Fore
SplineSet
31 180 m 0
 31 281 95 365 218 365 c 0
 298 365 339 345 351 340 c 1
 351 412 l 1
 165 412 l 2
 125 412 129 449 129 451 c 0
 129 482 147 488 169 488 c 2
 351 488 l 1
 351 535 l 1
 302 535 l 2
 274 535 265 553 266 573 c 1
 265 607 290 611 306 611 c 2
 393 611 l 2
 411 611 435 609 435 574 c 2
 435 488 l 1
 479 488 l 2
 496 488 520 487 520 450 c 0
 520 414 495 412 480 412 c 0
 465 412 450 412 435 412 c 1
 435 75 l 1
 481 75 l 2
 519 75 520 50 520 35 c 0
 520 2 494 0 483 -0 c 2
 388 -0 l 1
 358 1 350 18 351 37 c 1
 313 12 272 -4 215 -4 c 0
 105 -4 31 71 31 180 c 0
115 180 m 0
 115 104 174 71 234 71 c 0
 295 71 351 105 351 140 c 2
 351 246 l 2
 351 260 352 266 338 273 c 0
 323 281 292 289 247 289 c 0
 136 287 115 224 115 180 c 0
EndSplineSet
AlternateSubs2: "Stilistic set 01 subtable" dcroat.vn
AlternateSubs2: "Latin alternatives subtable" dcroat.vn
Substitution2: "Latin Vietnamese substitutions subtable" dcroat.vn
EndChar

StartChar: section
Encoding: 167 167 208
Width: 525
Flags: HW
TeX: 610 222
HStem: -226 75<200.988 343.272> 540 75<182.928 324.732>
VStem: 82 59<157.27 248.068 412.162 502.698> 98 83<-131.066 -56.2546> 344 82<445.244 520.066> 384 58<-113.286 -23.5456 140.932 231.815>
LayerCount: 2
Fore
SplineSet
82 200 m 0
 82 224 89 285 154 328 c 1
 143 337 82 379 82 455 c 0
 82 552 171 615 263 615 c 0
 349 615 426 560 426 484 c 0xe8
 426 457 407 440 384 440 c 0xc4
 362 440 348 457 344 472 c 0
 343 478 344 540 260 540 c 0
 210 540 141 512 141 455 c 0xe8
 141 399 227 376 272 362 c 0
 392 326 442 258 442 189 c 0
 442 165 436 104 371 61 c 1
 382 52 442 10 442 -66 c 0
 442 -152 366 -226 262 -226 c 0
 171 -226 98 -168 98 -96 c 0
 98 -60 126 -51 140 -51 c 0
 162 -51 177 -68 181 -83 c 0
 182 -89 181 -151 265 -151 c 0
 324 -151 384 -117 384 -67 c 0xd4
 384 -11 297 13 252 27 c 0
 132 63 82 131 82 200 c 0
141 200 m 0
 141 131 281 106 282 106 c 0xe4
 312 106 384 132 384 189 c 0
 384 210 374 226 350 242 c 0
 317 264 254 283 244 283 c 0
 212 283 141 257 141 200 c 0
EndSplineSet
EndChar

StartChar: aogonek
Encoding: 261 261 210
Width: 525
Flags: HW
TeX: 444 222
HStem: -230 71<365.391 437.02> -4 75<155.569 308.467> -0 81<432.004 519.274> 211 64<187.992 347> 375 75<157.988 316.138>
VStem: 47 84<95.9225 171.706> 287 72<-152.345 -62.6542> 347 84<105.149 211 275 344.581>
AnchorPoint: "above" 234 450 basechar 0
LayerCount: 2
Fore
SplineSet
47 138 m 0
 47 247 215 275 347 275 c 1
 347 305 350 375 231 375 c 0
 159 375 170 370 159 355 c 0
 151 344 138 338 125 338 c 0
 102 338 83 356 83 380 c 0
 83 443 157 450 234 450 c 0
 327 450 431 416 431 277 c 2
 431 81 l 1
 476 67 524 93 524 36 c 0
 524 17 515 0 487 -0 c 2xbd
 473 -0 l 2xbd
 462 0 459 1 445 -8 c 0
 372 -53 359 -94 359 -115 c 0
 359 -139 378 -159 400 -159 c 0
 439 -159 441 -111 471 -111 c 0
 482 -111 514 -123 514 -149 c 0
 514 -171 471 -230 405 -230 c 0
 343 -230 287 -179 287 -113 c 0
 287 -59 323 -10 367 22 c 1
 362 29 356 35 352 43 c 1
 334 30 285 -4 203 -4 c 0xde
 103 -4 47 71 47 138 c 0
131 138 m 0
 131 100 174 71 225 71 c 0
 260 71 347 85 347 157 c 0xdd
 347 175 347 193 347 211 c 1
 217 209 131 182 131 138 c 0
EndSplineSet
EndChar

StartChar: dcaron
Encoding: 271 271 213
Width: 525
Flags: HW
TeX: 610 0
HStem: -4 75<149.861 246.588 369 436.887> 373 75<152.184 253.854> 535 76<217.509 286> 635 20G<434.5 479>
VStem: 26 84<116.531 322.188> 286 83<114.375 341.775 413 535> 383 163<527.6 621.748>
LayerCount: 2
Fore
SplineSet
26 221 m 0
 26 399 126 448 193 448 c 0
 233 448 259 434 286 413 c 1
 286 535 l 1
 256 535 l 2
 241 535 215 536 215 574 c 0
 215 594 222 611 251 611 c 2
 332 611 l 2
 367 611 369 588 369 573 c 2
 369 75 l 1
 393 75 l 2
 395 75 399 76 403 76 c 0
 433 76 441 55 441 38 c 0
 441 19 433 0 403 -0 c 2
 324 -0 l 2
 288 0 286 22 286 38 c 1
 263 16 229 -4 186 -4 c 0
 101 -4 26 70 26 221 c 0
110 221 m 0
 110 103 162 71 197 71 c 0
 258 71 286 150 286 181 c 2
 286 284 l 2
 286 332 244 373 203 373 c 0
 166 373 110 340 110 221 c 0
383 580 m 0
 383 621 412 655 457 655 c 0
 501 655 546 619 546 560 c 0
 546 469 468 414 441 414 c 0
 425 414 401 436 401 455 c 0
 401 480 424 478 451 506 c 1
 410 510 383 541 383 580 c 0
EndSplineSet
EndChar

StartChar: eogonek
Encoding: 281 281 215
Width: 525
Flags: HW
TeX: 444 222
HStem: -230 71<265.959 337.241> 183 69<135 378> 375 75<193.642 333.532>
VStem: 187 72<-153.105 -63.4022>
AnchorPoint: "above" 269 450 basechar 0
LayerCount: 2
Fore
SplineSet
47 224 m 0
 47 361 140 450 269 450 c 0
 347 450 464 413 464 221 c 0
 464 185 441 183 426 183 c 2
 135 183 l 1
 161 94 239 71 302 71 c 0
 318 71 352 74 374 111 c 0
 388 135 385 147 420 147 c 2
 424 147 l 2
 438 147 463 145 463 116 c 0
 463 89 431 39 359 -1 c 0
 275 -49 259 -92 259 -115 c 0
 259 -139 278 -159 300 -159 c 0
 337 -159 343 -112 372 -112 c 0
 384 -112 415 -124 415 -149 c 0
 415 -172 372 -230 305 -230 c 0
 239 -230 187 -176 187 -113 c 0
 187 -62 217 -24 240 -1 c 1
 121 18 47 101 47 224 c 0
133 252 m 1
 378 252 l 1
 373 320 343 375 269 375 c 0
 192 375 142 326 133 252 c 1
EndSplineSet
EndChar

StartChar: gbreve
Encoding: 287 287 216
Width: 525
Flags: HW
TeX: 694 222
HStem: -227 67<147.198 378.083> -3 70<140.855 395.033> 118 67<172.806 291.512> 353 99<431.314 495.765> 381 67<173.504 293.743> 514 78<183.719 337.907>
VStem: 29 70<-121.488 -23.2742> 60 84<214.724 350.794> 71 63<73.9923 140.763> 79 77<620.962 691.165> 322 84<215.189 351.738> 370 75<622.723 691.891> 425 70<-121.691 -29.7353>
LayerCount: 2
Fore
SplineSet
79 660 m 0
 79 675 86 694 115 694 c 0
 157 694 153 665 156 651 c 0
 167 609 220 592 262 592 c 0
 315 592 365 617 370 660 c 0
 371 672 374 694 407 694 c 2
 409 694 l 2
 438 694 445 676 445 660 c 0
 445 577 361 514 262 514 c 0xe450
 155 514 79 582 79 660 c 0
EndSplineSet
Refer: 152 103 S 1 0 0 1 -0 0 3
EndChar

StartChar: lcaron
Encoding: 318 318 218
Width: 525
Flags: HW
TeX: 610 0
HStem: 0 75<52.1489 220 304 471.779> 535 76<52.4885 220> 635 20G<430 476>
VStem: 220 84<75 535> 378 164<527.887 622.311>
LayerCount: 2
Fore
SplineSet
366 455 m 0
 366 494 402 471 444 506 c 1
 405 511 378 540 378 580 c 0
 378 620 407 655 453 655 c 0
 499 655 542 617 542 560 c 0
 542 470 462 414 408 414 c 0
 392 414 366 434 366 455 c 0
EndSplineSet
Refer: 157 108 S 1 0 0 1 0 -0 3
EndChar

StartChar: lslash
Encoding: 322 322 219
Width: 525
Flags: HW
TeX: 610 0
HStem: 0 75<52.1472 220 304 471.779> 535 76<51.9594 220>
VStem: 220 84<75 268 428 535>
DStem2: 104 275 220 268 0.792329 0.610094<-28.4693 87.6395 251.81 367.737>
AnchorPoint: "above" 198 611 basechar 0
LayerCount: 2
Fore
SplineSet
50 36 m 0
 50 72 68 75 90 75 c 2
 220 75 l 1
 220 268 l 1
 135 203 134 203 123 203 c 0
 102 203 85 229 85 244 c 0
 85 261 101 273 104 275 c 0
 197 346 208 355 220 363 c 1
 220 535 l 1
 89 535 l 2
 74 535 50 537 50 571 c 0
 50 586 50 611 90 611 c 2
 268 611 l 2
 306 611 304 579 304 570 c 2
 304 428 l 1
 389 493 389 494 400 494 c 0
 423 494 439 466 439 453 c 0
 439 436 423 424 420 422 c 0
 328 351 316 341 304 333 c 1
 304 75 l 1
 435 75 l 2
 449 75 474 75 474 38 c 0
 474 2 451 0 436 0 c 2
 88 0 l 2
 77 0 51 0 50 36 c 0
EndSplineSet
EndChar

StartChar: eng
Encoding: 331 331 222
Width: 525
Flags: HW
TeX: 444 222
HStem: -226 21G<334.5 393.5> -0 75<6.14233 89 173 255.894> 369 75<6.50524 89 219.721 342.74>
VStem: 89 84<75 318.656> 351 84<-111.691 362.586>
AnchorPoint: "affricate-below" 525 -222 basechar 0
AnchorPoint: "affricate-above" 525 611 basechar 0
AnchorPoint: "below" 262 -222 basechar 0
AnchorPoint: "above" 262 450 basechar 0
LayerCount: 2
Fore
SplineSet
4 36 m 0
 4 75 26 75 43 75 c 0
 58 75 74 75 89 75 c 1
 89 369 l 1
 44 369 l 2
 26 369 4 371 4 409 c 0
 4 425 11 444 40 444 c 2
 135 444 l 2
 149 444 173 441 173 408 c 2
 173 392 l 1
 209 427 252 448 304 448 c 0
 435 448 435 337 435 284 c 2
 435 -10 l 2
 435 -96 432 -226 355 -226 c 0
 314 -226 289 -188 289 -156 c 0
 289 -130 308 -112 331 -112 c 0
 336 -112 342 -113 348 -115 c 1
 351 -71 352 -24 352 23 c 0
 352 33 351 42 351 52 c 2
 351 270 l 2
 351 275 352 281 352 286 c 0
 352 337 347 373 289 373 c 0
 245 373 173 341 173 231 c 2
 173 75 l 1
 219 75 l 2
 232 75 258 74 258 38 c 0
 258 1 233 0 220 -0 c 2
 45 -0 l 2
 30 0 4 1 4 36 c 0
EndSplineSet
EndChar

StartChar: ohungarumlaut
Encoding: 337 337 223
Width: 525
Flags: HW
TeX: 610 0
HStem: -4 75<194.918 328.713> 375 75<191.546 331.967> 526 85<105.108 224.346> 555 86<382.02 513.359>
VStem: 52 84<134.833 317.678> 388 84<136.54 316.27>
AnchorPoint: "below" 261 0 basechar 0
AnchorPoint: "above" 262 621 basechar 0
LayerCount: 2
Fore
SplineSet
98 578 m 0
 98 605 127 609 135 611 c 0xec
 256 639 257 641 270 641 c 0
 280 641 312 636 311 592 c 1
 324 609 316 604 461 638 c 0
 467 639 473 641 479 641 c 0
 504 641 520 619 520 599 c 0
 520 561 478 556 473 555 c 0xdc
 357 528 349 526 343 526 c 0
 314 526 308 561 307 582 c 1
 294 559 290 562 151 529 c 0
 145 528 140 526 134 526 c 0xec
 101 526 98 574 98 578 c 0
EndSplineSet
Refer: 160 111 S 1 0 0 1 0 -0 3
EndChar

StartChar: sacute
Encoding: 347 347 226
Width: 525
Flags: HW
TeX: 610 0
HStem: -4 171<73.8735 137.806> -4 75<188.669 363.53> 305 145<365.42 428.353> 375 76<163.104 337.859> 526 115
VStem: 72 80<300.782 360.781> 168 212<563.99 606.547> 379 80<88.4259 164.243>
AnchorPoint: "below" 269 0 basechar 0
AnchorPoint: "above" 264 621 basechar 0
LayerCount: 2
Fore
SplineSet
72 32 m 2
 72 129 l 2
 72 163 87 167 119 167 c 0x8d
 131 167 144 165 152 151 c 0
 163 131 168 71 270 71 c 0
 317 71 379 76 379 129 c 0
 379 187 266 187 197 204 c 0
 139 218 72 252 72 324 c 0
 72 357 84 407 145 433 c 0
 187 451 237 451 261 451 c 2
 262 451 l 2x5d
 308 451 337 444 365 433 c 1
 374 444 380 450 395 450 c 0
 410 450 430 445 430 415 c 2
 430 346 l 2
 430 334 432 304 393 304 c 0
 389 304 386 305 385 305 c 2
 384 305 l 2x2d
 307 305 396 375 261 375 c 0
 229 375 152 375 152 329 c 0
 152 282 272 279 328 266 c 0
 386 253 459 212 459 133 c 0
 459 78 434 -4 270 -4 c 0x5d
 207 -4 177 9 144 28 c 1
 131 5 125 -4 104 -4 c 0
 89 -4 72 3 72 32 c 2
EndSplineSet
Refer: 51 180 S 1 0 0 1 -33 0 2
EndChar

StartChar: scaron
Encoding: 353 353 227
Width: 525
Flags: HW
TeX: 694 0
HStem: -4 171<73.8735 138.335> -4 75<188.669 363.53> 305 145<365.42 428.353> 375 76<161.924 337.914> 508 93<227.002 274.448>
VStem: 72 80<300.387 360.897> 379 80<88.4259 164.644>
AnchorPoint: "below" 269 0 basechar 0
AnchorPoint: "above" 264 674 basechar 0
LayerCount: 2
Fore
SplineSet
72 32 m 2
 72 129 l 2
 72 163 87 167 119 167 c 0x8e
 131 167 144 165 152 151 c 0
 163 131 168 71 270 71 c 0
 317 71 379 76 379 129 c 0
 379 187 265 189 198 204 c 0
 78 231 72 302 72 324 c 0
 72 368 94 410 145 432 c 0
 166 441 197 451 262 451 c 0x5e
 308 451 337 444 365 433 c 1
 374 444 380 450 395 450 c 0
 410 450 430 445 430 415 c 2
 430 346 l 2
 430 334 432 304 393 304 c 0
 389 304 386 305 385 305 c 2
 384 305 l 2x2e
 307 305 396 375 261 375 c 0x1e
 204 375 152 368 152 329 c 0
 152 262 353 302 431 208 c 0
 448 188 459 163 459 133 c 0
 459 78 434 -4 270 -4 c 0x5e
 207 -4 177 8 144 27 c 1
 131 4 125 -4 104 -4 c 0
 89 -4 72 3 72 32 c 2
107 664 m 0
 107 681 123 694 138 694 c 0
 154 694 161 683 227 622 c 0
 235 615 243 608 250 601 c 1
 252 601 l 1
 260 609 268 616 333 676 c 0
 343 685 351 694 364 694 c 0x0e
 380 694 395 681 395 664 c 0
 395 648 396 651 281 525 c 0
 272 515 265 508 251 508 c 0
 235 508 226 521 210 538 c 0
 108 650 107 648 107 664 c 0
EndSplineSet
EndChar

StartChar: scedilla
Encoding: 351 351 228
Width: 525
Flags: HW
TeX: 444 194
HStem: -210 75<127.043 311.983> -4 171<73.8735 137.806> 305 145<365.42 427.433> 375 76<163.733 338.744>
VStem: 72 80<301.036 360.788> 321 85<-120.694 -73.8502> 379 80<89.8082 163.439>
LayerCount: 2
Fore
SplineSet
72 32 m 2
 72 129 l 2
 72 163 87 167 119 167 c 0
 131 167 144 165 152 151 c 0
 163 131 168 71 270 71 c 0
 317 71 379 76 379 129 c 0
 379 188 256 190 197 204 c 0
 139 218 72 252 72 324 c 0
 72 357 85 407 146 433 c 0
 187 451 237 451 261 451 c 2
 262 451 l 2xda
 309 451 337 444 365 433 c 1
 374 444 380 450 395 450 c 0
 410 450 429 445 429 415 c 2
 429 346 l 2
 429 327 429 305 392 305 c 2xea
 384 305 l 2xea
 307 305 398 375 261 375 c 0
 227 375 153 375 152 329 c 1
 153 282 267 283 335 264 c 0
 390 249 459 210 459 133 c 0xda
 459 21 357 4 329 -1 c 1
 358 -13 406 -41 406 -100 c 0
 406 -209 256 -210 176 -210 c 2
 162 -210 l 2
 146 -210 125 -207 125 -173 c 0
 125 -162 125 -136 161 -135 c 1
 185 -135 l 1
 260 -134 321 -128 321 -99 c 0xdc
 321 -79 294 -68 268 -65 c 0
 246 -63 224 -66 224 -21 c 2
 224 -1 l 1
 175 7 151 24 144 28 c 1
 131 5 125 -4 104 -4 c 0
 89 -4 72 3 72 32 c 2
EndSplineSet
EndChar

StartChar: tcaron
Encoding: 357 357 229
Width: 525
Flags: HW
TeX: 610 0
HStem: -4 75<243.323 342.309> 369 75<27.265 145 229 425.119> 449 21G<356.5 383>
VStem: 145 84<83.8799 369 444 568.74> 325 161<561.643 656.992> 367 83<96.4062 179.282>
LayerCount: 2
Fore
SplineSet
25 404 m 0
 25 416 25 444 63 444 c 2
 145 444 l 1
 145 533 l 2
 145 569 167 571 187 571 c 0
 205 571 229 569 229 533 c 2
 229 444 l 1
 391 444 l 2
 420 444 428 423 428 406 c 0
 428 388 419 369 393 369 c 2
 229 369 l 1
 229 159 l 2
 229 111 234 71 295 71 c 0
 315 71 327 78 342 90 c 1
 372 129 361 140 367 159 c 0
 373 178 387 182 406 182 c 0
 428 182 450 178 450 145 c 0xf4
 450 85 394 -4 282 -4 c 0
 173 -4 145 68 145 156 c 2
 145 369 l 1
 63 369 l 2
 33 369 25 387 25 404 c 0
322 616 m 0
 322 656 351 690 397 690 c 0
 438 690 486 656 486 594 c 0
 486 503 401 449 365 449 c 0
 348 449 325 471 325 490 c 0xf8
 325 523 356 511 388 541 c 1
 349 545 322 577 322 616 c 0
EndSplineSet
EndChar

StartChar: tcommaaccent
Encoding: 355 355 230
Width: 525
Flags: HW
TeX: 570 194
HStem: -210 75<145.028 352.91> -64 135<257.266 341.299> 369 75<27.265 145 229 425.411>
VStem: 145 84<84.668 369 444 569.034> 367 85<-118.836 -75.1489 96.2133 178.75>
LayerCount: 2
Fore
SplineSet
25 404 m 0
 25 416 25 444 63 444 c 2
 145 444 l 1
 145 534 l 2
 145 571 170 571 187 571 c 2
 192 571 l 2
 205 571 229 570 229 534 c 2
 229 444 l 1
 392 444 l 2
 421 444 428 423 428 406 c 0
 428 388 419 369 393 369 c 2
 229 369 l 1
 229 159 l 2
 229 116 230 71 295 71 c 0
 315 71 327 78 342 90 c 1
 357 109 364 121 366 145 c 0
 368 163 369 182 405 182 c 2
 409 182 l 2
 423 182 449 180 449 148 c 0
 449 107 427 39 343 6 c 1
 443 -15 452 -75 452 -99 c 0
 452 -211 286 -210 197 -210 c 2
 181 -210 l 2
 168 -210 143 -209 143 -173 c 0
 143 -136 166 -135 181 -135 c 2
 213 -135 l 2
 239 -135 367 -134 367 -98 c 0
 367 -85 349 -67 292 -64 c 0
 261 -63 255 -48 255 -24 c 2
 255 -2 l 1
 168 10 145 73 145 155 c 2
 145 369 l 1
 63 369 l 2
 33 369 25 387 25 404 c 0
EndSplineSet
EndChar

StartChar: uhungarumlaut
Encoding: 369 369 231
Width: 525
Flags: HW
TeX: 610 0
HStem: -4 75<177.113 321.332 435 516.801> 369 75<6.3269 89 268.694 352> 526 85<105.108 224.346> 555 86<382.02 514.203>
VStem: 89 84<79.8359 369> 266 169<370.968 441.247> 352 83<99.2252 369>
AnchorPoint: "below" 262 0 basechar 0
AnchorPoint: "above" 262 627 basechar 0
LayerCount: 2
Fore
SplineSet
98 578 m 0
 98 605 127 609 135 611 c 0xe8
 256 639 257 641 270 641 c 0
 280 641 312 636 311 592 c 1
 324 609 316 604 461 638 c 0
 467 639 474 641 480 641 c 0
 505 641 521 619 521 599 c 0
 521 561 478 556 473 555 c 0xd8
 357 528 349 526 343 526 c 0
 314 526 308 561 307 582 c 1
 294 559 290 562 151 529 c 0
 145 528 140 526 134 526 c 0xe8
 101 526 98 574 98 578 c 0
EndSplineSet
Refer: 166 117 S 1 0 0 1 0 -0 3
EndChar

StartChar: uring
Encoding: 367 367 232
Width: 525
Flags: HW
TeX: 694 0
HStem: -4 75<177.113 321.332 435 516.801> 369 75<6.3269 89 268.694 352> 491 42<224.237 299.361> 657 43<224.072 300.824>
VStem: 89 84<79.8359 369> 154 59<543.113 647.74> 266 169<370.968 441.247> 311 59<542.44 647.579> 352 83<99.2252 369>
LayerCount: 2
Fore
SplineSet
154 595 m 0
 154 658 196 700 262 700 c 0
 326 700 370 657 370 595 c 0
 370 532 328 491 262 491 c 0
 195 491 154 534 154 595 c 0
213 596 m 0
 213 559 232 533 262 533 c 0
 295 533 311 564 311 595 c 0
 311 644 282 657 262 657 c 0xf5
 232 657 213 633 213 596 c 0
EndSplineSet
Refer: 166 117 S 1 0 0 1 0 0 3
EndChar

StartChar: ydieresis
Encoding: 255 255 233
Width: 525
Flags: HW
TeX: 610 222
HStem: -226 75<124 179.579> 369 75<28.1926 109.635 174 233.68 293.235 357 420.288 498.442> 491 120<114.584 205.416 318.584 409.065>
VStem: 26 210<370.951 441.996> 42 83<-150.859 -110.074> 100 120<505.391 596.286> 291 210<371.531 442.224> 304 120<505.714 596.996>
DStem2: 174 369 115 333 0.351703 -0.936112<0 246.954> 234 -18 293 -55 0.301347 0.953515<-128.672 17.1921 173.198 406.076>
AnchorPoint: "below" 264 -222 basechar 0
AnchorPoint: "above" 268 597 basechar 0
LayerCount: 2
Fore
SplineSet
100 551 m 0
 100 587 131 611 160 611 c 0
 196 611 220 581 220 551 c 0xe4
 220 518 193 491 160 491 c 0
 124 491 100 520 100 551 c 0
304 551 m 0
 304 584 331 611 364 611 c 0
 396 611 424 586 424 551 c 0
 424 521 399 491 364 491 c 0xe1
 328 491 304 521 304 551 c 0
EndSplineSet
Refer: 170 121 S 1 0 0 1 0 -0 3
EndChar

StartChar: ij
Encoding: 307 307 237
Width: 525
Flags: HW
TeX: 610 222
HStem: -226 114<311.604 365.97> -0 75<31.9557 136 220 313.492> 369 75<37.7109 136 302.304 389> 520 91<107.912 212.02 360.912 465.02>
VStem: 35 185<371.875 441.786> 100 120<528.79 601.681> 136 84<75 369> 300 173<371.017 441.759> 353 120<528.79 601.681> 389 84<-118 369>
LayerCount: 2
Fore
SplineSet
30 35 m 0
 30 49 30 74 67 75 c 1
 136 75 l 1
 136 369 l 1xf2
 72 369 l 1
 41 370 35 391 35 407 c 0
 35 442 59 444 76 444 c 2
 174 444 l 2
 194 444 220 446 220 407 c 2xf8
 220 75 l 1xf2
 270 75 l 2
 291 75 316 75 316 37 c 0
 316 19 308 0 277 -0 c 2
 68 -0 l 2
 38 0 30 17 30 35 c 0
100 565 m 0
 100 583 113 611 161 611 c 0
 196 611 220 592 220 565 c 0xf4
 220 547 207 520 159 520 c 0
 113 520 100 547 100 565 c 0
288 -155 m 0
 288 -127 308 -112 329 -112 c 0
 352 -112 368 -128 371 -150 c 1
 376 -147 l 1
 378 -145 l 1
 380 -142 l 1
 383 -133 l 1
 386 -118 l 1
 389 -79 l 1
 389 369 l 1xf040
 372 369 355 369 338 369 c 0
 317 369 300 376 300 406 c 0
 300 441 323 444 339 444 c 2
 435 444 l 2
 452 444 473 440 473 408 c 2xf1
 473 -57 l 1
 472 -137 454 -226 370 -226 c 0
 320 -226 288 -191 288 -155 c 0
353 565 m 0
 353 583 366 611 414 611 c 0
 449 611 473 592 473 565 c 0
 473 547 460 520 412 520 c 0xf080
 366 520 353 547 353 565 c 0
EndSplineSet
Ligature2: "Latin Dutch ligatures subtable" i j
EndChar

StartChar: exclamdown
Encoding: 161 161 238
Width: 525
Flags: HW
TeX: 388 222
HStem: -230 396<207.682 315.855> 239 150<210.25 313.395>
VStem: 187 149<-209.424 -23 262.25 367.048>
LayerCount: 2
Fore
SplineSet
187 -156 m 0
 187 -150 188 -144 188 -138 c 2
 202 131 l 2
 203 148 206 166 239 166 c 2
 283 166 l 2
 321 166 321 146 322 125 c 2
 336 -134 l 2
 336 -141 337 -149 337 -156 c 0
 337 -203 299 -230 262 -230 c 0
 224 -230 187 -203 187 -156 c 0
187 314 m 0
 187 359 224 389 262 389 c 0
 307 389 336 352 336 314 c 0
 336 276 306 239 262 239 c 0
 223 239 187 271 187 314 c 0
EndSplineSet
EndChar

StartChar: questiondown
Encoding: 191 191 239
Width: 525
Flags: HW
TeX: 388 222
HStem: -226 75<157.906 363.109> 269 120<200.935 291.065>
VStem: 61 84<-137.036 -67.1186> 186 120<283.714 374.286> 198 96<55.6117 186.607> 381 81<-130.827 -65.2437>
LayerCount: 2
Fore
SplineSet
61 -102 m 0
 61 -74 71 -44 94 -21 c 0
 116 1 143 7 173 50 c 0
 196 84 198 108 198 147 c 2
 198 153 l 2xec
 198 182 216 188 231 188 c 0
 241 188 251 188 261 188 c 0
 297 188 294 156 294 147 c 2
 294 134 l 2
 294 81 281 9 180 -58 c 0
 165 -68 145 -78 145 -102 c 0
 145 -146 205 -151 244 -151 c 0
 394 -151 375 -107 381 -89 c 0
 386 -72 402 -60 420 -60 c 0
 443 -60 462 -77 462 -104 c 0
 462 -153 430 -225 246 -226 c 0
 87 -226 61 -152 61 -102 c 0
186 329 m 0
 186 359 211 389 246 389 c 0
 278 389 306 364 306 329 c 0
 306 299 281 269 246 269 c 0xf4
 210 269 186 299 186 329 c 0
EndSplineSet
EndChar

StartChar: sterling
Encoding: 163 163 240
Width: 525
Flags: HW
TeX: 610 0
HStem: -4 126<68.6454 180.391> -4 77<281.224 412.681> 268 75<109.057 185 269 368.512> 548 75<291.906 376.124>
VStem: 185 84<119.668 268 343 525.534> 396 83<422.487 528.421>
LayerCount: 2
Fore
SplineSet
45 54 m 0
 45 81 67 122 143 122 c 0
 156 122 168 121 181 119 c 1
 184 132 185 147 185 163 c 2
 185 268 l 1
 144 268 l 2
 128 268 107 270 107 306 c 0
 107 343 128 343 146 343 c 2xbc
 185 343 l 1
 185 448 l 2
 185 588 278 623 340 623 c 0
 441 623 479 518 479 465 c 0
 479 423 448 417 436 417 c 0
 412 417 399 435 396 449 c 0
 395 456 396 548 339 548 c 0
 311 548 269 533 269 449 c 2
 269 343 l 1
 333 343 l 2
 349 343 371 341 371 305 c 0
 371 288 364 269 335 268 c 1
 269 268 l 1
 269 161 l 2
 269 138 269 125 262 100 c 1
 274 97 349 73 384 73 c 0
 435 73 399 140 440 150 c 0
 445 151 452 152 459 152 c 0
 479 152 501 148 501 118 c 0
 501 72 464 -4 379 -4 c 0x7c
 322 -4 237 25 217 31 c 1
 190 9 155 -4 115 -4 c 0
 75 -4 45 19 45 54 c 0
EndSplineSet
EndChar

StartChar: Acircumflex
Encoding: 194 194 243
Width: 525
Flags: HW
TeX: 860 0
HStem: 0 75<28.8209 89 175 226.515 295.964 349 430.572 494.971> 150 75<207 317> 599 20<227.5 298.5> 665 21G<117 137 365 385>
VStem: 27 202<2.82129 73.2827> 294 203<2.48848 72.6686>
DStem2: 89 75 175 75 0.214453 0.976734<18.4429 94.9148 171.816 419.076> 424 125 317 225 0.214453 -0.976734<-367.382 -120.62 -43.9336 32.7528>
AnchorPoint: "below" 262 0 basechar 0
AnchorPoint: "above" 264 845 basechar 0
LayerCount: 2
Fore
SplineSet
82 711 m 0
 82 729 82 726 223 851 c 0
 230 857 239 865 251 865 c 2
 254 865 l 2
 266 865 268 861 403 741 c 0
 409 735 420 726 420 711 c 0
 420 695 397 665 373 665 c 0
 357 665 350 676 251 773 c 1
 153 676 145 665 129 665 c 0
 105 665 82 695 82 711 c 0
EndSplineSet
Refer: 114 65 S 1 0 0 1 0 0 3
AlternateSubs2: "Stilistic set 01 subtable" Acircumflex.vn
AlternateSubs2: "Latin alternatives subtable" Acircumflex.vn
Substitution2: "Latin Vietnamese substitutions subtable" Acircumflex.vn
EndChar

StartChar: Atilde
Encoding: 195 195 244
Width: 525
Flags: HW
TeX: 860 0
HStem: 0 75<28.8209 89 175 226.515 295.964 349 430.572 494.971> 150 75<207 317> 599 20<227.5 298.5> 708 84<288.887 370.643> 777 84<151.799 235.509>
VStem: 27 202<2.82129 73.2827> 294 203<2.48848 72.6686>
DStem2: 89 75 175 75 0.214453 0.976734<18.4429 94.9148 171.816 419.076> 424 125 317 225 0.214453 -0.976734<-367.382 -120.62 -43.9336 32.7528>
AnchorPoint: "below" 262 0 basechar 0
AnchorPoint: "above" 264 841 basechar 0
LayerCount: 2
Fore
SplineSet
58 747 m 0
 58 763 115 861 188 861 c 0xee
 253 861 297 792 334 792 c 0
 375 792 391 860 424 860 c 0
 437 860 465 846 465 822 c 0xf6
 465 808 411 708 336 708 c 0xf6
 273 708 226 777 190 777 c 0
 164 777 136 737 131 730 c 0
 127 724 119 709 100 709 c 0
 86 709 58 724 58 747 c 0
EndSplineSet
Refer: 114 65 S 1 0 0 1 -0 0 3
AlternateSubs2: "Stilistic set 01 subtable" Atilde.vn
AlternateSubs2: "Latin alternatives subtable" Atilde.vn
Substitution2: "Latin Vietnamese substitutions subtable" Atilde.vn
EndChar

StartChar: Adieresis
Encoding: 196 196 245
Width: 525
Flags: HW
TeX: 860 0
HStem: 0 75<28.8209 89 175 226.515 295.964 349 430.572 494.971> 150 75<207 317> 599 20<227.5 298.5> 674 120<114.935 205.323 318.391 409.926>
VStem: 27 202<2.82129 73.2827> 100 120<688.004 779.286> 294 203<2.48848 72.6686> 304 120<688.584 779.932>
DStem2: 89 75 175 75 0.214453 0.976734<18.4429 94.9148 171.816 419.076> 424 125 317 225 0.214453 -0.976734<-367.382 -120.62 -43.9336 32.7528>
AnchorPoint: "below" 262 0 basechar 0
AnchorPoint: "above" 264 774 basechar 0
LayerCount: 2
Fore
SplineSet
100 734 m 0
 100 764 125 794 160 794 c 0
 191 794 220 768 220 734 c 0xf4
 220 701 193 674 160 674 c 0
 128 674 100 699 100 734 c 0
304 734 m 0
 304 766 330 794 364 794 c 0
 396 794 424 769 424 734 c 0
 424 698 393 674 364 674 c 0xf1
 333 674 304 700 304 734 c 0
EndSplineSet
Refer: 114 65 S 1 0 0 1 0 -0 3
EndChar

StartChar: AE
Encoding: 198 198 247
Width: 525
Flags: HW
TeX: 610 0
HStem: -0 75<24.3582 72 142 183.43 224.925 263 331 431> 169 75<174 263> 279 75<331 472.399> 535 76<129.306 162 231 263 331 423>
VStem: 22 164<2.42043 72.7375> 263 68<75 169 244 279 354 535> 423 68<442.964 535> 431 68<75 183.218>
DStem2: 73 76 142 75 0.189956 0.981793<12.1251 106.661 184.127 467.549>
AnchorPoint: "below" 260 0 basechar 0
AnchorPoint: "above" 297 619 basechar 0
LayerCount: 2
Fore
SplineSet
22 41 m 0
 22 58 31 75 59 75 c 2
 72 75 l 1
 73 76 l 1
 162 535 l 1
 140 535 127 548 127 571 c 0
 127 583 128 611 161 611 c 2
 454 611 l 2
 492 611 491 582 491 569 c 2
 491 486 l 2
 491 470 491 441 456 441 c 0
 442 441 424 447 423 476 c 1
 423 535 l 1xfe
 331 535 l 1
 331 354 l 1
 436 354 l 2
 450 354 475 352 474 317 c 0
 474 301 473 279 436 279 c 2
 331 279 l 1
 331 75 l 1
 431 75 l 1
 431 148 l 2
 431 178 450 185 465 185 c 0
 497 185 499 160 499 147 c 2
 499 39 l 2xfd
 499 25 498 0 462 -0 c 2
 261 -0 l 2
 227 0 223 19 223 39 c 0
 222 67 240 75 263 75 c 1
 263 169 l 1
 160 169 l 1
 159 168 l 1
 142 75 l 1
 147 75 l 2
 161 75 186 73 186 38 c 0
 186 20 179 0 148 0 c 2
 60 0 l 2
 30 0 22 15 22 41 c 0
174 244 m 1
 263 244 l 1xfc
 263 535 l 1
 231 535 l 1
 174 244 l 1
EndSplineSet
EndChar

StartChar: Ccedilla
Encoding: 199 199 248
Width: 525
Flags: HW
TeX: 610 194
HStem: -210 75<152.091 318.463> 407 212<416.401 482.471> 543 76<218.127 356.002>
VStem: 40 84<180.155 432.25> 325 84<-122.869 -72.0074> 391 93<412.566 507.984> 399 85<105.086 192.943>
AnchorPoint: "above" 279 619 basechar 0
LayerCount: 2
Fore
SplineSet
40 305 m 0
 40 550 184 619 280 619 c 0xb8
 305 619 354 615 404 578 c 1
 421 604 427 619 452 619 c 0
 488 619 484 583 484 580 c 2xd2
 484 449 l 2
 484 431 486 407 445 407 c 2
 436 407 l 2
 394 407 405 435 391 471 c 0xd4
 370 524 331 543 291 543 c 0
 224 543 124 489 124 305 c 0
 124 120 227 67 296 67 c 0
 352 67 392 107 399 151 c 0
 403 178 397 195 442 195 c 0
 460 195 484 194 484 161 c 0xb2
 484 111 453 32 337 -2 c 1
 370 -16 409 -47 409 -100 c 0
 409 -151 375 -176 358 -185 c 0
 331 -200 293 -210 196 -210 c 2
 189 -210 l 2
 165 -210 150 -202 150 -172 c 0
 150 -137 175 -135 188 -135 c 2xb8
 210 -135 l 1
 283 -134 325 -125 325 -100 c 0
 325 -86 311 -70 283 -65 c 0
 268 -63 238 -67 238 -25 c 0
 238 -17 239 -11 241 -5 c 1
 104 22 40 149 40 305 c 0
EndSplineSet
EndChar

StartChar: Egrave
Encoding: 200 200 249
Width: 525
Flags: HW
TeX: 771 0
HStem: 0 75<19.8928 89 173 419> 0 185<420.861 500.815> 279 75<173 290> 535 76<19.9012 89 173 397> 692 109<205.317 313.561>
VStem: 89 84<75 279 354 535> 290 84<224.531 279 354 408.692> 397 83<443.426 535> 419 84<75 183.081>
AnchorPoint: "below" 260 0 basechar 0
AnchorPoint: "above" 260 789 basechar 0
LayerCount: 2
Fore
SplineSet
146 760 m 0
 146 777 161 801 188 801 c 0
 194 801 279 786 325 777 c 0
 336 775 360 770 360 744 c 0x3e
 360 727 354 692 325 692 c 2
 324 692 l 2
 319 692 317 693 188 717 c 0
 177 719 146 725 146 760 c 0
EndSplineSet
Refer: 118 69 S 1 0 0 1 -0 0 3
AlternateSubs2: "Stilistic set 01 subtable" Egrave.vn
AlternateSubs2: "Latin alternatives subtable" Egrave.vn
Substitution2: "Latin Vietnamese substitutions subtable" Egrave.vn
EndChar

StartChar: Ecircumflex
Encoding: 202 202 251
Width: 525
Flags: HW
TeX: 860 0
HStem: 0 75<19.8928 89 173 419> 0 185<420.861 500.815> 279 75<173 290> 535 76<19.9012 89 173 397> 665 21G<128 148 376 396>
VStem: 89 84<75 279 354 535> 290 84<224.531 279 354 408.692> 397 83<443.426 535> 419 84<75 183.081>
AnchorPoint: "below" 260 0 basechar 0
AnchorPoint: "above" 260 853 basechar 0
LayerCount: 2
Fore
SplineSet
93 711 m 0
 93 729 93 726 234 851 c 0
 241 857 250 865 262 865 c 2
 265 865 l 2
 277 865 279 861 414 741 c 0
 420 735 431 726 431 711 c 0
 431 695 408 665 384 665 c 0
 368 665 361 676 262 773 c 1
 164 676 156 665 140 665 c 0x3e
 116 665 93 695 93 711 c 0
EndSplineSet
Refer: 118 69 S 1 0 0 1 0 0 3
AlternateSubs2: "Stilistic set 01 subtable" Ecircumflex.vn
AlternateSubs2: "Latin alternatives subtable" Ecircumflex.vn
Substitution2: "Latin Vietnamese substitutions subtable" Ecircumflex.vn
EndChar

StartChar: Edieresis
Encoding: 203 203 252
Width: 525
Flags: HW
TeX: 860 0
HStem: 0 75<19.8928 89 173 419> 0 185<420.861 500.815> 279 75<173 290> 535 76<19.9012 89 173 397> 674 120<114.935 205.609 318.391 409.065>
VStem: 89 84<75 279 354 535> 100 120<688.004 779.286> 290 84<224.531 279 354 408.692> 304 120<688.714 779.065> 397 83<443.426 535> 419 84<75 183.081>
AnchorPoint: "below" 260 0 basechar 0
AnchorPoint: "above" 260 782 basechar 0
LayerCount: 2
Fore
SplineSet
100 734 m 0
 100 764 125 794 160 794 c 0
 191 794 220 769 220 734 c 0x3a
 220 701 193 674 160 674 c 0
 128 674 100 699 100 734 c 0
304 734 m 0
 304 766 330 794 364 794 c 0
 394 794 424 769 424 734 c 0
 424 704 399 674 364 674 c 0x3880
 333 674 304 700 304 734 c 0
EndSplineSet
Refer: 118 69 S 1 0 0 1 0 0 3
EndChar

StartChar: Igrave
Encoding: 204 204 253
Width: 525
Flags: HW
TeX: 771 0
HStem: 0 75<73.228 220 304 449.95> 535 76<73.0494 220 304 449.825> 692 109<248.317 357.544>
VStem: 220 84<75 535>
AnchorPoint: "below" 262 0 basechar 0
AnchorPoint: "above" 262 789 basechar 0
LayerCount: 2
Fore
SplineSet
190 760 m 0
 190 777 204 801 231 801 c 0
 237 801 323 786 369 777 c 0
 380 775 403 770 403 744 c 0
 403 727 397 692 368 692 c 2
 367 692 l 2
 362 692 360 693 231 717 c 0
 220 719 190 725 190 760 c 0
EndSplineSet
Refer: 122 73 S 1 0 0 1 -0 0 3
AlternateSubs2: "Stilistic set 01 subtable" Igrave.vn
AlternateSubs2: "Latin alternatives subtable" Igrave.vn
Substitution2: "Latin Vietnamese substitutions subtable" Igrave.vn
EndChar

StartChar: Icircumflex
Encoding: 206 206 255
Width: 525
Flags: HW
TeX: 860 0
HStem: 0 75<73.228 220 304 449.95> 535 76<73.0494 220 304 449.825> 665 21G<128 148 375 395>
VStem: 220 84<75 535>
AnchorPoint: "below" 262 0 basechar 0
AnchorPoint: "above" 262 853 basechar 0
LayerCount: 2
Fore
SplineSet
93 711 m 0
 93 729 92 726 233 851 c 0
 240 857 249 865 261 865 c 2
 264 865 l 2
 276 865 278 861 413 741 c 0
 419 735 431 726 431 711 c 0
 431 695 407 665 383 665 c 0
 367 665 360 676 261 773 c 1
 163 676 156 665 140 665 c 0
 116 665 93 695 93 711 c 0
EndSplineSet
Refer: 122 73 S 1 0 0 1 -0 0 3
EndChar

StartChar: Idieresis
Encoding: 207 207 256
Width: 525
Flags: HW
TeX: 860 0
HStem: 0 75<73.228 220 304 449.95> 535 76<73.0494 220 304 449.825> 674 120<114.935 204.869 318.391 408.519>
VStem: 100 119<688.004 779.286> 220 84<75 535> 304 119<688.004 779.932>
AnchorPoint: "below" 262 0 basechar 0
AnchorPoint: "above" 262 782 basechar 0
LayerCount: 2
Fore
SplineSet
100 734 m 0
 100 764 125 794 160 794 c 0
 196 794 219 764 219 734 c 0
 219 701 193 674 160 674 c 0
 128 674 100 699 100 734 c 0
304 734 m 0
 304 766 330 794 364 794 c 0
 394 794 423 769 423 734 c 0
 423 704 399 674 364 674 c 0
 333 674 304 699 304 734 c 0
EndSplineSet
Refer: 122 73 S 1 0 0 1 0 0 3
EndChar

StartChar: Eth
Encoding: 208 208 257
Width: 525
Flags: HW
TeX: 610 0
HStem: -0 75<16.7479 78 162 321> 262 76<16.9745 78 162 300.004> 535 76<17.1023 78 162 314.629>
VStem: 78 84<75 262 338 535> 402 84<175.328 433.372>
LayerCount: 2
Fore
SplineSet
15 40 m 0
 15 72 41 76 52 76 c 0
 54 76 55 75 56 75 c 2
 78 75 l 1
 78 262 l 1
 54 262 l 2
 23 262 15 275 15 302 c 0
 15 338 43 338 54 338 c 2
 78 338 l 1
 78 535 l 1
 54 535 l 2
 33 535 15 543 15 571 c 0
 15 585 15 611 54 611 c 2
 260 611 l 2
 441 611 486 435 486 302 c 0
 486 166 439 0 260 -0 c 2
 53 -0 l 2
 14 0 15 27 15 40 c 0
162 75 m 1
 242 75 l 2
 370 75 402 202 402 302 c 0
 402 403 370 535 242 535 c 2
 162 535 l 1
 162 338 l 1
 263 338 l 2
 298 338 302 319 302 300 c 1
 303 283 296 262 264 262 c 2
 162 262 l 1
 162 75 l 1
EndSplineSet
EndChar

StartChar: Ntilde
Encoding: 209 209 258
Width: 525
Flags: HW
TeX: 860 0
HStem: 0 75<23.1094 86 154 217.752> 535 76<23.3071 86 305.185 369 437 499.891> 708 84<287.99 371.599> 777 84<152.065 234.844>
VStem: 21 199<2.70251 72.6349> 86 68<75 535> 303 199<537.406 608.604> 369 68<70 535>
DStem2: 203 569 205 374 0.325826 -0.94543<12.1215 523.485>
LayerCount: 2
Fore
SplineSet
58 747 m 0
 58 757 59 762 87 799 c 0
 130 856 168 861 188 861 c 0xd0
 251 861 296 792 334 792 c 0
 375 792 390 860 423 860 c 0
 436 860 465 846 465 822 c 0xe0
 465 808 410 708 335 708 c 0xe0
 272 708 226 777 190 777 c 0
 164 777 136 737 131 730 c 0
 127 724 119 709 100 709 c 0
 86 709 58 724 58 747 c 0
EndSplineSet
Refer: 127 78 S 1 0 0 1 -0 0 3
EndChar

StartChar: Ograve
Encoding: 210 210 259
Width: 525
Flags: HW
TeX: 771 0
HStem: -8 75<151.48 374.236> 544 75<149.545 374.179> 692 84<200.731 344.294> 692 109<189.726 299.628>
VStem: 56 84<77.681 534.347> 136 214<723.324 773.083> 384 84<77.6511 532.494>
AnchorPoint: "below" 256 0 basechar 0
AnchorPoint: "above" 261 781 basechar 0
LayerCount: 2
Fore
SplineSet
56 196 m 2
 56 415 l 1
 60 580 62 596 88 606 c 0
 116 616 166 619 243 619 c 2
 280 619 l 2
 373 619 436 616 451 596 c 0
 466 577 466 471 468 414 c 1
 468 196 l 1
 467 77 460 29 452 17 c 0
 438 -4 389 -8 262 -8 c 2
 255 -8 l 2
 169 -8 92 -6 74 15 c 0
 59 33 56 139 56 196 c 2
140 250 m 1
 141 195 140 155 144 114 c 0
 148 79 145 67 256 67 c 2
 264 67 l 2
 369 67 374 77 378 100 c 0
 383 133 384 218 384 268 c 2
 384 411 l 1
 380 527 386 535 334 541 c 0
 313 543 292 544 271 544 c 2
 251 544 l 2
 142 544 148 531 144 496 c 0
 141 468 140 432 140 411 c 2xca
 140 250 l 1
EndSplineSet
Refer: 305 -1 S 1 0 0 1 12 166 2
AlternateSubs2: "Stilistic set 01 subtable" Ograve.vn
AlternateSubs2: "Latin alternatives subtable" Ograve.vn
Substitution2: "Latin Vietnamese substitutions subtable" Ograve.vn
EndChar

StartChar: Oacute
Encoding: 211 211 260
Width: 525
Flags: HW
TeX: 771 0
HStem: -8 75<151.48 374.236> 544 75<150.022 374.179> 716 85<225.996 381.273>
VStem: 56 84<77.681 534.347> 173 214<723.152 772.008> 384 84<77.6511 532.494>
AnchorPoint: "below" 256 0 basechar 0
AnchorPoint: "above" 261 781 basechar 0
LayerCount: 2
Fore
SplineSet
56 196 m 2
 56 415 l 1
 60 580 63 596 89 606 c 0
 117 616 166 619 243 619 c 2
 280 619 l 2
 373 619 436 616 451 596 c 0
 466 577 466 471 468 414 c 1
 468 196 l 1
 467 77 460 29 452 17 c 0
 438 -4 389 -8 262 -8 c 2
 255 -8 l 2
 169 -8 92 -6 74 15 c 0
 59 33 56 139 56 196 c 2
140 250 m 1
 141 195 140 155 144 114 c 0
 148 79 145 67 256 67 c 2
 264 67 l 2
 369 67 374 77 378 100 c 0
 383 133 384 217 384 267 c 2
 384 411 l 1
 380 527 386 535 334 541 c 0
 313 543 292 544 271 544 c 2
 251 544 l 2
 142 544 148 531 144 496 c 0
 141 468 140 432 140 411 c 2xf4
 140 250 l 1
EndSplineSet
Refer: 306 -1 S 1 0 0 1 -13 166 2
AlternateSubs2: "Stilistic set 01 subtable" Oacute.vn
AlternateSubs2: "Latin alternatives subtable" Oacute.vn
Substitution2: "Latin Vietnamese substitutions subtable" Oacute.vn
EndChar

StartChar: Ocircumflex
Encoding: 212 212 261
Width: 525
Flags: HW
TeX: 860 0
HStem: -8 75<171.348 352.525> 544 75<169.579 351.625> 665 21G<128 148 376 396>
VStem: 56 84<99.8753 514.706> 384 84<102.572 512.269>
AnchorPoint: "below" 256 0 basechar 0
AnchorPoint: "above" 261 845 basechar 0
LayerCount: 2
Fore
SplineSet
93 711 m 0
 93 729 93 726 234 851 c 0
 241 857 250 865 262 865 c 2
 265 865 l 2
 277 865 279 861 414 741 c 0
 420 735 431 726 431 711 c 0
 431 695 408 665 384 665 c 0
 368 665 361 676 262 773 c 1
 164 676 156 665 140 665 c 0
 116 665 93 695 93 711 c 0
EndSplineSet
Refer: 128 79 S 1 0 0 1 -0 0 3
AlternateSubs2: "Stilistic set 01 subtable" Ocircumflex.vn
AlternateSubs2: "Latin alternatives subtable" Ocircumflex.vn
Substitution2: "Latin Vietnamese substitutions subtable" Ocircumflex.vn
EndChar

StartChar: Otilde
Encoding: 213 213 262
Width: 525
Flags: HW
TeX: 860 0
HStem: -8 75<171.348 352.525> 544 75<169.579 351.625> 708 84<288.403 370.529> 777 84<152.53 235.002>
VStem: 56 84<99.8753 514.706> 384 84<102.572 512.269>
AnchorPoint: "below" 256 0 basechar 0
AnchorPoint: "above" 261 841 basechar 0
LayerCount: 2
Fore
SplineSet
59 747 m 0
 59 757 60 762 88 799 c 0
 131 856 168 861 188 861 c 0xdc
 251 861 296 792 334 792 c 0
 359 792 387 832 392 839 c 0
 396 845 405 860 424 860 c 0
 437 860 466 846 466 822 c 0xec
 466 808 411 708 336 708 c 0xec
 273 708 226 777 190 777 c 0
 164 777 137 737 132 730 c 0
 128 724 119 709 100 709 c 0
 86 709 59 724 59 747 c 0
EndSplineSet
Refer: 128 79 S 1 0 0 1 -0 -0 3
AlternateSubs2: "Stilistic set 01 subtable" Otilde.vn
AlternateSubs2: "Latin alternatives subtable" Otilde.vn
Substitution2: "Latin Vietnamese substitutions subtable" Otilde.vn
EndChar

StartChar: Odieresis
Encoding: 214 214 263
Width: 525
Flags: HW
TeX: 860 0
HStem: -8 75<171.348 352.525> 544 75<169.579 351.625> 674 120<114.935 205.609 318.584 409.065>
VStem: 56 84<99.8753 514.706> 100 120<688.004 779.286> 304 120<688.714 779.932> 384 84<102.572 512.269>
AnchorPoint: "below" 256 0 basechar 0
AnchorPoint: "above" 261 774 basechar 0
LayerCount: 2
Fore
SplineSet
100 734 m 0
 100 764 125 794 160 794 c 0
 191 794 220 769 220 734 c 0xe8
 220 701 193 674 160 674 c 0
 128 674 100 699 100 734 c 0
304 734 m 0
 304 766 330 794 364 794 c 0
 396 794 424 769 424 734 c 0
 424 704 399 674 364 674 c 0xe4
 328 674 304 704 304 734 c 0
EndSplineSet
Refer: 128 79 S 1 0 0 1 0 -0 3
EndChar

StartChar: OE
Encoding: 338 338 264
Width: 525
Flags: HW
TeX: 610 0
HStem: -8 75<124.804 249.053> -0 75<330 435> 279 75<330 479.134> 535 76<330 427> 544 75<122.776 248.818>
VStem: 29 68<96.0392 516.227> 262 68<78.0114 279 354 533.311> 427 68<442.734 535> 435 68<75 183.207>
AnchorPoint: "above" 296 619 basechar 0
LayerCount: 2
Fore
SplineSet
29 275 m 2
 29 310 l 2
 29 477 36 559 68 589 c 0
 100 619 157 619 192 619 c 0xae80
 244 619 258 611 304 611 c 2
 456 611 l 2
 468 611 495 610 495 573 c 2
 495 479 l 2
 495 449 477 441 461 441 c 0
 444 441 427 449 427 480 c 2
 427 535 l 1
 330 535 l 1x37
 330 354 l 1
 443 354 l 2
 472 354 482 337 481 317 c 1
 481 286 468 279 442 279 c 2
 330 279 l 1
 330 75 l 1
 435 75 l 1
 435 147 l 2
 435 167 442 185 469 185 c 0
 485 185 504 177 503 147 c 1
 503 36 l 2
 503 2 477 0 466 -0 c 2
 307 -0 l 2x7680
 254 0 256 -8 190 -8 c 0
 79 -8 53 18 41 80 c 0
 30 134 29 222 29 275 c 2
97 299 m 2
 97 109 98 67 200 67 c 0
 254 67 260 96 262 172 c 1
 262 426 l 2
 262 523 250 544 200 544 c 0
 99 544 97 509 97 318 c 2xae
 97 299 l 2
EndSplineSet
EndChar

StartChar: Oslash
Encoding: 216 216 265
Width: 525
Flags: HW
TeX: 666 55
HStem: -8 75<237 366.91> 544 75<158.613 287>
VStem: 56 68<100.373 505.596> 400 68<104.754 508.54>
DStem2: 141 2 217 -8 0.259805 0.965661<-56.6929 1.42576 87.7093 561.32 646.285 706.731>
LayerCount: 2
Fore
SplineSet
56 289 m 1
 56 317 l 2
 56 455 62 543 90 578 c 0
 124 621 205 619 262 619 c 2
 307 619 l 1
 321 672 322 699 352 699 c 0
 362 699 395 692 395 666 c 0
 395 656 391 639 382 609 c 1
 453 586 463 548 468 353 c 1
 468 294 l 2
 468 156 461 67 433 32 c 0
 399 -10 319 -8 262 -8 c 2
 217 -8 l 1
 202 -73 196 -88 172 -88 c 0
 162 -88 129 -81 129 -54 c 0
 129 -43 134 -28 141 2 c 1
 71 22 57 66 56 289 c 1
124 265 m 1
 127 157 128 105 163 83 c 1
 287 544 l 1
 262 544 l 2
 136 544 124 527 124 313 c 2
 124 265 l 1
237 67 m 1
 249 67 261 67 273 67 c 0
 390 67 400 90 400 310 c 2
 400 346 l 1
 397 474 392 503 361 528 c 1
 237 67 l 1
EndSplineSet
EndChar

StartChar: Ucircumflex
Encoding: 219 219 268
Width: 525
Flags: HW
TeX: 860 0
HStem: -8 75<197.312 327.956> 535 76<-0.807129 68 152 219.891 305.399 374 457 525.607> 665 21G<129 149 376 396.5>
VStem: -3 225<537.268 608.571> 68 84<119.042 535> 303 225<537.012 608.732> 374 83<118.774 535>
AnchorPoint: "below" 263 0 basechar 0
AnchorPoint: "above" 262 853 basechar 0
LayerCount: 2
Fore
SplineSet
94 711 m 0
 94 729 93 726 234 851 c 0
 241 857 250 865 262 865 c 2
 265 865 l 2
 277 865 279 861 414 741 c 0
 420 735 432 726 432 711 c 0
 432 696 409 665 384 665 c 0
 368 665 365 672 262 773 c 1
 164 677 157 665 141 665 c 0xe0
 117 665 94 695 94 711 c 0
EndSplineSet
Refer: 134 85 S 1 0 0 1 0 0 3
EndChar

StartChar: Udieresis
Encoding: 220 220 269
Width: 525
Flags: HW
TeX: 860 0
HStem: -8 75<197.312 327.956> 535 76<-0.807129 68 152 219.891 305.399 374 457 525.607> 674 120<115.584 205.519 319.584 409.416>
VStem: -3 225<537.268 608.571> 68 84<119.042 535> 101 119<687.766 779.416> 303 225<537.012 608.732> 305 119<687.766 780.234> 374 83<118.774 535>
AnchorPoint: "below" 263 0 basechar 0
AnchorPoint: "above" 262 782 basechar 0
LayerCount: 2
Fore
SplineSet
101 734 m 0
 101 770 131 794 160 794 c 0
 191 794 220 769 220 734 c 0xe4
 220 704 196 674 161 674 c 0
 125 674 101 704 101 734 c 0
305 734 m 0
 305 764 329 794 364 794 c 0
 400 794 424 764 424 734 c 0
 424 704 400 674 365 674 c 0xe1
 329 674 305 704 305 734 c 0
EndSplineSet
Refer: 134 85 S 1 0 0 1 0 0 3
EndChar

StartChar: Thorn
Encoding: 222 222 271
Width: 525
Flags: HW
TeX: 610 0
HStem: -0 75<26.3137 101 185 259.864> 159 75<185 350.19> 439 75<185 356.794> 535 76<26.2682 101 185 259.68>
VStem: 24 238<2.00391 73.2235 537.086 608.988> 101 84<75 159 234 439 514 535> 393 84<272.414 401.146>
LayerCount: 2
Fore
SplineSet
24 38 m 0xfa
 24 75 48 75 63 75 c 2
 101 75 l 1
 101 535 l 1xf6
 66 535 l 2
 52 535 24 535 24 570 c 0
 24 603 37 611 64 611 c 2
 221 611 l 2
 239 611 262 609 262 573 c 0xfa
 262 536 238 535 222 535 c 2
 185 535 l 1
 185 514 l 1
 289 514 l 2
 439 514 477 412 477 336 c 0
 477 259 439 159 287 159 c 2
 185 159 l 1
 185 75 l 1
 224 75 l 2
 240 75 262 73 262 37 c 0
 262 1 237 0 223 -0 c 2
 64 -0 l 2
 50 0 24 0 24 38 c 0xfa
185 234 m 1
 265 234 l 2xf6
 379 234 393 303 393 337 c 0
 393 376 374 439 279 439 c 2
 185 439 l 1
 185 234 l 1
EndSplineSet
EndChar

StartChar: Germandbls
Encoding: 61699 61699 272
Width: 525
Flags: HW
TeX: 610 0
HStem: -8 21G<48 75 136 180.5 311 337 399 433.5> 407 212<127.253 151.347 152.282 207.37 389.637 413.347 414.283 470.37>
VStem: 34 84<69.4243 201.587> 34 77<363.802 520.92> 118 91<412.802 522> 152 76<72.7429 271.901> 297 84<69.4243 201.375> 297 76<364.063 520.92> 381 91<412.125 522> 414 76<70.9343 274.239>
LayerCount: 2
Fore
SplineSet
34 31 m 2xd4
 34 163 l 2
 34 203 52 203 78 203 c 2
 81 203 l 2
 96 203 118 202 118 167 c 2
 118 155 l 2xe0
 118 90 127 78 138 69 c 1
 147 105 152 245 152 245 c 1
 152 308 34 235 34 414 c 2
 34 430 l 2
 34 494 38 619 115 619 c 0
 129 619 138 616 152 610 c 1xd4
 158 615 165 619 175 619 c 2
 177 619 l 2
 213 619 209 583 209 581 c 2
 209 445 l 2
 209 408 191 407 170 407 c 0
 168 407 167 408 165 408 c 0
 106 408 135 447 118 522 c 1xc8
 115 499 114 474 114 448 c 1
 113 425 111 413 111 395 c 0
 111 365 115 368 157 353 c 0
 219 331 228 280 228 224 c 0
 228 87 215 -8 146 -8 c 0
 126 -8 109 -2 95 5 c 1
 89 -2 81 -8 69 -8 c 2
 66 -8 l 2
 30 -8 34 29 34 31 c 2xd4
297 31 m 2xc140
 297 163 l 2
 297 203 315 203 341 203 c 2
 343 203 l 2
 358 203 381 202 381 167 c 2
 381 155 l 2xc2
 381 90 389 78 400 69 c 1
 409 106 414 246 414 246 c 1
 414 308 297 236 297 414 c 2
 297 430 l 2
 297 494 300 619 377 619 c 0
 391 619 400 616 414 610 c 1xc140
 420 615 428 619 438 619 c 2
 440 619 l 2
 476 619 472 583 472 581 c 2
 472 445 l 2
 472 408 453 407 432 407 c 0
 430 407 429 408 427 408 c 0xc080
 368 408 398 447 381 522 c 1xc080
 378 499 376 474 376 448 c 1
 375 425 373 413 373 395 c 0
 373 365 378 368 420 353 c 0
 482 331 490 280 490 224 c 0
 490 209 489 194 489 179 c 0
 489 42 458 -8 409 -8 c 0
 389 -8 371 -2 358 5 c 1
 352 -2 343 -8 331 -8 c 2
 329 -8 l 2
 293 -8 297 29 297 31 c 2xc140
EndSplineSet
EndChar

StartChar: acircumflex
Encoding: 226 226 275
Width: 525
Flags: HW
TeX: 694 0
HStem: -4 75<155.746 308.102> 0 81<432.429 519.781> 211 64<187.992 347> 375 75<157.748 316.138>
VStem: 47 84<95.9225 171.706> 347 84<104.706 211 275 344.581>
AnchorPoint: "below" 234 0 basechar 0
AnchorPoint: "above" 234 678 basechar 0
LayerCount: 2
Fore
SplineSet
72 585 m 0
 72 604 90 613 96 617 c 0
 228 697 227 698 239 698 c 0
 251 698 248 697 383 616 c 0
 389 612 406 604 406 585 c 0x3c
 406 572 388 535 364 535 c 0
 351 535 347 540 239 612 c 1
 126 536 125 536 113 536 c 0
 89 536 72 572 72 585 c 0
EndSplineSet
Refer: 146 97 S 1 0 0 1 -0 0 3
AlternateSubs2: "Stilistic set 01 subtable" acircumflex.vn
AlternateSubs2: "Latin alternatives subtable" acircumflex.vn
Substitution2: "Latin Vietnamese substitutions subtable" acircumflex.vn
EndChar

StartChar: atilde
Encoding: 227 227 276
Width: 525
Flags: HW
TeX: 694 0
HStem: -4 75<155.746 308.102> 0 81<432.429 519.781> 211 64<187.992 347> 375 75<157.748 316.138> 468 85<291.974 347.91> 525 86<188.312 246.131>
VStem: 47 84<95.9225 171.706> 347 84<104.706 211 275 344.581>
AnchorPoint: "below" 234 0 basechar 0
AnchorPoint: "above" 234 591 basechar 0
LayerCount: 2
Fore
SplineSet
95 509 m 0
 95 523 103 530 118 544 c 0
 142 566 191 611 234 611 c 0x37
 288 611 294 553 311 553 c 0x3b
 334 553 381 611 404 611 c 0x37
 420 611 443 590 443 570 c 0
 443 556 435 548 420 534 c 0
 360 479 327 468 304 468 c 0x3b
 250 468 243 525 226 525 c 0x37
 201 525 159 468 134 468 c 0x3b
 118 468 95 489 95 509 c 0
EndSplineSet
Refer: 146 97 S 1 0 0 1 0 0 3
AlternateSubs2: "Stilistic set 01 subtable" atilde.vn
AlternateSubs2: "Latin alternatives subtable" atilde.vn
Substitution2: "Latin Vietnamese substitutions subtable" atilde.vn
EndChar

StartChar: aring
Encoding: 229 229 278
Width: 525
Flags: HW
TeX: 694 0
HStem: -4 75<155.746 308.102> -0 81<432.429 519.781> 211 64<187.992 347> 375 75<157.748 316.138> 491 42<192.643 285.484> 657 43<191.568 285.517>
VStem: 47 84<95.9225 171.706> 120 58<546.877 643.001> 299 59<545.288 643.667> 347 84<104.706 211 275 344.581>
LayerCount: 2
Fore
SplineSet
120 595 m 0
 120 657 165 700 239 700 c 0
 310 700 358 658 358 595 c 0
 358 532 312 491 239 491 c 0
 168 491 120 532 120 595 c 0
178 595 m 0
 178 558 203 533 239 533 c 0
 275 533 299 558 299 595 c 0
 299 632 275 657 239 657 c 0x3d80
 203 657 178 632 178 595 c 0
EndSplineSet
Refer: 146 97 S 1 0 0 1 -0 -0 3
EndChar

StartChar: ae
Encoding: 230 230 279
Width: 525
Flags: HW
TeX: 444 0
HStem: -4 76<106.998 214.807 341.331 426.39> 183 69<126.892 227 298 435> 375 75<117.085 207.931 331.974 409.842>
VStem: 26 68<84.9234 155.897> 228 68<124.701 178 252 332.666> 435 69<252 348.873>
AnchorPoint: "below" 265 0 basechar 0
AnchorPoint: "above" 254 450 basechar 0
LayerCount: 2
Fore
SplineSet
26 127 m 0
 26 184 71 211 94 221 c 0
 135 239 176 245 228 247 c 1
 228 259 228 271 228 283 c 0
 228 353 198 375 153 375 c 0
 144 375 135 374 126 374 c 1
 123 355 107 338 84 338 c 0
 65 338 42 352 42 381 c 0
 42 409 60 450 157 450 c 0
 225 450 254 413 270 391 c 1
 294 427 334 450 376 450 c 0
 419 450 460 423 483 365 c 0
 499 324 504 277 504 223 c 0
 504 185 481 183 466 183 c 2
 298 183 l 1
 317 79 376 72 395 72 c 0
 445 72 420 147 470 147 c 0
 488 147 503 135 503 116 c 0
 503 86 468 -4 385 -4 c 0
 369 -4 317 0 275 53 c 1
 238 11 182 -4 130 -4 c 0
 47 -4 26 84 26 127 c 0
94 126 m 0
 94 104 112 72 155 72 c 0
 174 72 226 77 226 126 c 2
 226 135 l 2
 226 149 227 164 227 178 c 1
 147 177 94 157 94 126 c 0
296 252 m 1
 435 252 l 1
 432 326 411 375 375 375 c 0
 344 375 306 347 296 252 c 1
EndSplineSet
EndChar

StartChar: ccedilla
Encoding: 231 231 280
Width: 525
Flags: HW
TeX: 444 194
HStem: -210 75<163.167 328.719> 375 75<211.305 374.19>
VStem: 65 84<140.746 311.929> 336 84<-122.973 -72.1928>
AnchorPoint: "above" 295 450 basechar 0
LayerCount: 2
Fore
SplineSet
65 222 m 0
 65 350 145 450 295 450 c 0
 393 450 453 436 453 380 c 0
 453 356 436 338 412 338 c 0
 398 338 378 346 371 370 c 1
 349 375 317 375 298 375 c 0
 178 375 149 289 149 223 c 0
 149 102 249 71 310 71 c 0
 375 71 377 124 391 138 c 0
 399 146 407 147 418 147 c 2
 424 147 l 2
 434 147 444 147 451 142 c 0
 459 137 465 128 465 119 c 0
 465 103 444 28 341 1 c 1
 382 -14 420 -47 420 -100 c 0
 420 -152 386 -183 340 -197 c 0
 300 -209 259 -210 211 -210 c 2
 196 -210 l 2
 180 -210 161 -203 161 -173 c 0
 161 -142 176 -135 200 -135 c 2
 221 -135 l 1
 283 -134 336 -127 336 -99 c 0
 336 -84 317 -69 293 -65 c 0
 266 -61 249 -64 249 -22 c 2
 249 -1 l 1
 145 14 65 95 65 222 c 0
EndSplineSet
EndChar

StartChar: edieresis
Encoding: 235 235 284
Width: 525
Flags: HW
TeX: 610 0
HStem: -4 75<208.379 359.454> 183 69<135 378> 375 75<193.449 336.19> 491 120<106.584 197.323 310.677 401.065>
VStem: 92 120<505.391 596.416> 296 120<505.714 596.996>
AnchorPoint: "below" 283 0 basechar 0
AnchorPoint: "above" 269 591 basechar 0
LayerCount: 2
Fore
SplineSet
92 551 m 0
 92 587 123 611 152 611 c 0
 183 611 212 585 212 551 c 0
 212 518 185 491 152 491 c 0
 116 491 92 520 92 551 c 0
296 551 m 0
 296 584 323 611 356 611 c 0
 388 611 416 586 416 551 c 0
 416 521 391 491 356 491 c 0
 325 491 296 517 296 551 c 0
EndSplineSet
Refer: 150 101 S 1 0 0 1 0 0 3
EndChar

StartChar: idieresis
Encoding: 239 239 288
Width: 525
Flags: HW
TeX: 610 0
HStem: 0 75<96.8457 231 315 435.26> 369 75<104.505 231> 491 120<125.935 215.869 329.391 419.519>
VStem: 111 119<504.745 596.286> 231 84<75 369> 315 119<505.004 596.932>
AnchorPoint: "above" 273 591 basechar 0
LayerCount: 2
Fore
SplineSet
95 35 m 0
 95 51 95 75 133 75 c 2
 231 75 l 1
 231 369 l 1
 140 369 l 2
 127 369 102 370 102 408 c 0
 102 443 124 444 142 444 c 2
 278 444 l 2
 308 444 315 427 315 407 c 2
 315 75 l 1
 399 75 l 2
 438 75 437 49 437 36 c 0
 437 7 421 0 400 0 c 2
 128 0 l 2
 114 0 95 7 95 35 c 0
111 551 m 0
 111 581 136 611 171 611 c 0
 207 611 230 581 230 551 c 0
 230 518 204 491 171 491 c 0
 135 491 111 520 111 551 c 0
315 551 m 0
 315 583 341 611 375 611 c 0
 407 611 434 586 434 551 c 0
 434 521 410 491 375 491 c 0
 344 491 315 516 315 551 c 0
EndSplineSet
Ligature2: "Latin ligatures excepting Turkic subtable" i uni0308
EndChar

StartChar: eth
Encoding: 240 240 289
Width: 525
Flags: HW
TeX: 610 0
HStem: -4 75<193.071 330.508> 375 75<191.023 298.734> 478 133<155.758 218.621> 497 113<207.308 285.5> 532 79<74.7031 148>
VStem: 52 84<133.488 318.367> 388 84<138.676 311.804>
LayerCount: 2
Fore
SplineSet
52 222 m 0
 52 364 141 450 262 450 c 0
 275 450 288 449 300 447 c 1
 293 454 246 497 233 497 c 0xd6
 221 497 204 478 186 478 c 0xe6
 168 478 145 505 148 532 c 1
 106 541 66 532 65 567 c 0
 65 587 92 611 114 611 c 0xce
 131 611 173 607 226 587 c 1
 245 598 261 610 275 610 c 0xd6
 296 610 313 576 313 563 c 0
 313 556 311 552 307 545 c 1
 387 489 472 387 472 240 c 2
 472 235 l 2
 472 35 338 -4 262 -4 c 0
 139 -4 52 84 52 222 c 0
136 231 m 0
 136 138 181 71 262 71 c 0
 349 71 388 149 388 226 c 0
 388 305 347 375 261 375 c 0xc6
 205 375 136 341 136 231 c 0
EndSplineSet
EndChar

StartChar: ntilde
Encoding: 241 241 290
Width: 525
Flags: HW
TeX: 694 0
HStem: 0 75<6.31372 89 173 255.894 285.879 352 435 517.972> 369 75<6.50524 89 219.953 342.182> 468 85<284.983 340.994> 525 86<181.832 239.439>
VStem: 89 84<75 319.1> 284 236<2.26758 72.594> 352 83<75 360.145>
LayerCount: 2
Fore
SplineSet
88 509 m 0
 88 523 96 531 111 544 c 0
 135 566 184 611 227 611 c 0xd8
 281 611 287 553 304 553 c 0xe8
 327 553 374 611 397 611 c 0xd8
 413 611 436 590 436 570 c 0
 436 552 421 542 414 535 c 0
 394 517 340 468 297 468 c 0xe8
 243 468 237 525 220 525 c 0xd8
 196 525 152 468 127 468 c 0xe8
 111 468 88 490 88 509 c 0
EndSplineSet
Refer: 159 110 S 1 0 0 1 0 0 3
EndChar

StartChar: otilde
Encoding: 245 245 294
Width: 525
Flags: HW
TeX: 694 0
HStem: -4 75<194.918 328.713> 375 75<191.546 331.967> 468 85<284.974 340.867> 525 86<181.312 239.131>
VStem: 52 84<134.833 317.678> 388 84<136.54 316.27>
AnchorPoint: "below" 261 0 basechar 0
AnchorPoint: "above" 262 591 basechar 0
LayerCount: 2
Fore
SplineSet
87 509 m 0
 87 523 96 530 111 544 c 0
 135 566 184 611 227 611 c 0xdc
 281 611 287 553 304 553 c 0xec
 327 553 374 611 397 611 c 0xdc
 413 611 436 590 436 570 c 0
 436 556 428 548 413 534 c 0
 393 516 340 468 297 468 c 0xec
 243 468 236 525 219 525 c 0xdc
 194 525 152 468 127 468 c 0xec
 111 468 87 489 87 509 c 0
EndSplineSet
Refer: 160 111 S 1 0 0 1 0 0 3
AlternateSubs2: "Stilistic set 01 subtable" otilde.vn
AlternateSubs2: "Latin alternatives subtable" otilde.vn
Substitution2: "Latin Vietnamese substitutions subtable" otilde.vn
EndChar

StartChar: odieresis
Encoding: 246 246 295
Width: 525
Flags: HW
TeX: 610 0
HStem: -4 75<194.918 328.713> 375 75<191.546 331.967> 491 120<114.584 205.323 318.677 409.065>
VStem: 52 84<134.833 317.678> 100 120<505.391 596.416> 304 120<505.714 596.996> 388 84<136.54 316.27>
AnchorPoint: "below" 261 0 basechar 0
AnchorPoint: "above" 262 591 basechar 0
LayerCount: 2
Fore
SplineSet
100 551 m 0
 100 587 131 611 160 611 c 0
 191 611 220 585 220 551 c 0xe8
 220 518 193 491 160 491 c 0
 124 491 100 520 100 551 c 0
304 551 m 0
 304 584 331 611 364 611 c 0
 396 611 424 586 424 551 c 0
 424 521 399 491 364 491 c 0xe4
 333 491 304 517 304 551 c 0
EndSplineSet
Refer: 160 111 S 1 0 0 1 0 0 3
EndChar

StartChar: oe
Encoding: 339 339 296
Width: 525
Flags: HW
TeX: 444 0
HStem: -4 76<123.795 208.893 355.941 427.889> 183 69<317 436> 375 75<121.433 210.588 346.865 413.051>
VStem: 18 68<117.8 333.812> 246 71<117.951 183 252 334.062> 436 69<252 352.781>
AnchorPoint: "below" 262 0 basechar 0
AnchorPoint: "above" 272 450 basechar 0
LayerCount: 2
Fore
SplineSet
18 223 m 0
 18 401 107 450 166 450 c 0
 234 450 269 395 279 380 c 1
 304 424 343 450 385 450 c 0
 443 450 474 400 486 365 c 0
 501 324 505 278 505 225 c 0
 505 205 504 183 468 183 c 2
 317 183 l 1
 329 87 385 72 402 72 c 0
 446 72 420 147 471 147 c 0
 487 147 504 137 504 116 c 0
 504 83 472 -4 394 -4 c 0
 366 -4 319 6 280 68 c 1
 271 52 235 -4 166 -4 c 0
 107 -4 18 45 18 223 c 0
86 231 m 0
 86 107 134 72 166 72 c 0
 198 72 246 108 246 231 c 0
 246 344 198 375 166 375 c 0
 134 375 86 344 86 231 c 0
315 252 m 1
 436 252 l 1
 434 324 415 374 384 374 c 0
 356 374 323 344 315 252 c 1
EndSplineSet
EndChar

StartChar: oslash
Encoding: 248 248 297
Width: 525
Flags: HW
TeX: 555 111
HStem: -4 75<222.426 347.099> 375 75<175.595 301.324>
VStem: 38 68<139.051 306.376> 417 68<141.267 305.063>
DStem2: 116 42 112 -116 0.494153 0.869375<-169.417 4.00062 81.0696 377.937 453.303 625.896>
LayerCount: 2
Fore
SplineSet
36 -108 m 0
 36 -95 37 -96 116 42 c 1
 69 79 38 141 38 222 c 0
 38 362 128 450 262 450 c 0
 292 450 317 445 341 438 c 1
 411 561 l 2
 417 571 424 589 445 589 c 0
 458 589 487 574 487 552 c 0
 487 533 445 472 408 402 c 1
 462 359 485 291 485 223 c 0
 485 77 388 -4 262 -4 c 0
 232 -4 206 0 182 7 c 1
 176 -6 168 -17 112 -116 c 0
 106 -126 98 -145 78 -145 c 0
 63 -145 36 -130 36 -108 c 0
106 223 m 0
 106 173 124 133 153 108 c 1
 302 371 l 1
 288 374 276 375 261 375 c 0
 164 375 106 311 106 223 c 0
222 75 m 1
 235 73 248 71 262 71 c 0
 356 71 417 131 417 222 c 0
 417 291 383 325 371 337 c 1
 370 337 l 1
 222 75 l 1
EndSplineSet
EndChar

StartChar: ucircumflex
Encoding: 251 251 300
Width: 525
Flags: HW
TeX: 694 0
HStem: -4 75<177.113 321.332 435 516.801> 369 75<6.3269 89 268.694 352>
VStem: 89 84<79.8359 369> 266 169<370.968 441.247> 352 83<99.2252 369>
AnchorPoint: "below" 262 0 basechar 0
AnchorPoint: "above" 262 684 basechar 0
LayerCount: 2
Fore
SplineSet
95 585 m 0
 95 605 113 614 120 618 c 0
 251 697 250 698 262 698 c 0
 274 698 271 697 406 616 c 0
 412 612 429 604 429 585 c 0xe0
 429 572 411 535 387 535 c 0
 374 535 370 540 262 612 c 1
 149 536 149 536 137 536 c 0
 113 536 95 572 95 585 c 0
EndSplineSet
Refer: 166 117 S 1 0 0 1 0 0 3
EndChar

StartChar: thorn
Encoding: 254 254 303
Width: 525
Flags: HW
TeX: 610 222
HStem: -222 75<6.32031 89 173 255.894> -4 75<221.172 350.655> 373 75<221.292 356.272> 535 76<5.9889 89>
VStem: 89 84<-147 48 123.716 327.134 397 535> 409 84<134.493 314.886>
LayerCount: 2
Fore
SplineSet
4 -187 m 0
 4 -148 26 -147 43 -147 c 0
 58 -147 74 -147 89 -147 c 1
 89 535 l 1
 40 535 l 2
 12 535 3 553 4 573 c 1
 3 607 28 611 44 611 c 2
 135 611 l 2
 175 611 173 583 173 570 c 2
 173 397 l 1
 206 425 247 448 304 448 c 0
 412 448 493 364 493 223 c 0
 493 60 385 -4 292 -4 c 0
 239 -4 203 18 173 48 c 1
 173 -147 l 1
 219 -147 l 2
 232 -147 258 -148 258 -184 c 0
 258 -214 243 -222 219 -222 c 2
 44 -222 l 2
 28 -222 4 -220 4 -187 c 0
173 187 m 2
 173 154 206 71 279 71 c 0
 357 71 409 129 409 222 c 0
 409 337 343 373 289 373 c 0
 223 373 173 317 173 278 c 2
 173 187 l 2
EndSplineSet
EndChar

StartChar: germandbls
Encoding: 223 223 304
Width: 525
Flags: HW
TeX: 610 0
HStem: -4 76<12.3577 103 336.278 401.174> 369 75<11.1423 103> 540 75<191.39 374.464>
VStem: 9 178<2.00879 73.4405 370.741 442.224> 103 84<75 369 444 528.457> 245 80<281.126 373.426> 382 83<452.028 529.088> 409 80<79.3579 178.31>
LayerCount: 2
Fore
SplineSet
9 37 m 0xf4
 9 74 31 75 49 75 c 2
 103 75 l 1
 103 369 l 1xec
 48 369 l 2
 31 369 9 371 9 406 c 0xf4
 9 442 30 444 49 444 c 2
 103 444 l 1
 103 504 l 2
 103 598 197 615 281 615 c 2
 287 615 l 2
 341 615 465 611 465 504 c 0xee
 465 428 427 379 359 375 c 0
 337 374 325 368 325 328 c 0
 325 245 392 303 456 227 c 0
 474 205 489 174 489 133 c 0
 489 42 434 -4 357 -4 c 0
 333 -4 320 1 306 8 c 1
 298 -1 290 -4 277 -4 c 0
 261 -4 245 4 245 32 c 2
 245 123 l 2
 245 137 246 162 280 162 c 2xe5
 296 162 l 2
 352 162 314 72 360 72 c 0
 385 72 409 85 409 128 c 0xe5
 409 157 395 177 376 186 c 0
 359 193 245 194 245 324 c 0
 245 391 274 441 339 449 c 0
 356 451 382 445 382 503 c 0
 382 525 365 540 281 540 c 2
 280 540 l 2
 187 540 187 515 187 501 c 2xee
 187 38 l 2
 187 2 165 0 148 -0 c 2
 45 -0 l 2
 8 0 9 30 9 37 c 0xf4
EndSplineSet
EndChar

StartChar: grave.uc
Encoding: 65542 -1 305
Width: 525
Flags: HW
TeX: 607 0
HStem: 526 109<177.726 287.628> 526 84<188.731 332.294>
VStem: 124 214<557.324 607.083>
LayerCount: 2
Fore
SplineSet
124 593 m 0
 124 613 141 635 166 635 c 0xa0
 172 635 258 619 304 610 c 0
 315 608 338 604 338 578 c 0x60
 338 561 332 526 303 526 c 2
 302 526 l 2x60
 297 526 295 526 166 550 c 0
 163 551 124 555 124 593 c 0
EndSplineSet
EndChar

StartChar: acute.uc
Encoding: 65543 -1 306
Width: 525
Flags: HW
TeX: 607 0
HStem: 550 85<238.996 394.273>
VStem: 186 214<557.152 606.008>
LayerCount: 2
Fore
SplineSet
186 578 m 0
 186 604 210 608 221 610 c 0
 263 618 351 635 358 635 c 0
 382 635 400 615 400 593 c 0
 400 555 359 550 357 550 c 0
 236 527 228 526 222 526 c 0
 190 526 186 568 186 578 c 0
EndSplineSet
EndChar

StartChar: tilde.uc
Encoding: 65544 -1 307
Width: 525
Flags: HW
TeX: 652 0
HStem: 542 84<288.843 370.643> 610 84<152.53 235.157>
LayerCount: 2
Fore
SplineSet
58 580 m 0
 58 590 60 595 88 632 c 0
 131 689 168 694 188 694 c 0x40
 251 694 298 626 334 626 c 0x80
 375 626 391 694 424 694 c 0
 437 694 465 679 465 655 c 0x40
 465 641 411 542 336 542 c 0x80
 273 542 226 610 190 610 c 0x40
 164 610 137 570 132 563 c 0
 128 557 119 542 100 542 c 0x80
 86 542 58 557 58 580 c 0
EndSplineSet
EndChar

StartChar: ring.uc
Encoding: 65546 -1 310
Width: 525
Flags: HW
TeX: 652 0
HStem: 415 76<216.727 305.682> 624 75<217.08 306.354>
VStem: 145 58<504.361 609.865> 320 58<505.091 609.795>
LayerCount: 2
Fore
SplineSet
145 557 m 0
 145 662 208 699 261 699 c 0
 325 699 378 651 378 557 c 0
 378 464 326 415 262 415 c 0
 192 415 145 470 145 557 c 0
203 557 m 0
 203 517 227 491 262 491 c 0
 297 491 320 518 320 558 c 0
 320 598 296 624 261 624 c 0
 226 624 203 597 203 557 c 0
EndSplineSet
EndChar

StartChar: threequartersemdash
Encoding: 63198 63198 312
Width: 525
Flags: HW
TeX: 444 0
HStem: 237 75<1.70708 522.864>
LayerCount: 2
Fore
SplineSet
-0 271 m 0
 0 284 -2 312 38 312 c 2
 486 312 l 2
 519 312 525 295 525 273 c 0
 525 255 517 237 488 237 c 2
 38 237 l 2
 7 237 0 253 -0 271 c 0
EndSplineSet
EndChar

StartChar: arrowleft
Encoding: 8592 8592 313
Width: 525
Flags: HW
TeX: 424 -186
HStem: 264 83<157 490.286>
VStem: 104 84<130.274 226.872 383.654 480.583>
LayerCount: 2
Fore
SplineSet
29 305 m 0
 29 318 36 325 50 339 c 0
 101 391 104 452 107 461 c 0
 114 482 130 483 149 483 c 2
 152 483 l 2
 168 483 188 476 188 450 c 0
 188 427 174 381 157 347 c 1
 444 347 l 2
 489 347 495 319 495 305 c 0
 495 291 489 264 444 264 c 2
 157 264 l 1
 177 223 188 180 188 160 c 0
 188 144 179 128 153 128 c 2
 142 128 l 2
 109 128 107 148 104 164 c 0
 88 258 29 274 29 305 c 0
EndSplineSet
EndChar

StartChar: arrowright
Encoding: 8594 8594 314
Width: 525
Flags: HW
TeX: 424 -186
HStem: 264 83<33.7552 367>
LayerCount: 2
Fore
SplineSet
29 305 m 0
 29 319 35 347 80 347 c 2
 367 347 l 1
 347 388 336 431 336 451 c 0
 336 466 346 483 372 483 c 2
 381 483 l 2
 445 483 393 425 475 339 c 0
 489 325 495 318 495 305 c 0
 495 292 489 286 475 272 c 0
 395 190 443 128 382 128 c 2
 372 128 l 2
 347 128 336 140 336 161 c 0
 336 182 348 226 367 264 c 1
 78 264 l 2
 34 264 29 293 29 305 c 0
EndSplineSet
EndChar

StartChar: uni0361.alt
Encoding: 61701 61701 315
Width: 525
Flags: HW
TeX: 607 0
HStem: 515 78<305.597 613.797>
LayerCount: 2
Fore
SplineSet
220 520 m 0
 220 564 277 593 456 593 c 0
 624 593 682 564 682 520 c 0
 682 509 677 489 647 489 c 0
 643 489 639 489 635 489 c 0
 593 489 639 515 457 515 c 2
 446 515 l 2
 376 515 317 509 305 504 c 0
 293 499 294 489 267 489 c 2
 256 489 l 2
 225 489 220 509 220 520 c 0
EndSplineSet
EndChar

StartChar: uni0361
Encoding: 865 865 316
Width: 525
Flags: HW
TeX: 777 0
HStem: 617 77<363.38 550.422>
VStem: 220 84<462.725 559.844>
AnchorPoint: "affricate-above" 458 450 mark 0
LayerCount: 2
Fore
SplineSet
220 495 m 0
 220 575 279 694 459 694 c 0
 638 694 697 575 697 495 c 0
 697 468 680 461 661 461 c 2
 650 461 l 2
 583 461 644 525 570 584 c 0
 536 611 492 617 459 617 c 0
 369 617 309 575 304 497 c 0
 303 480 300 461 268 461 c 2
 255 461 l 2
 236 461 220 468 220 495 c 0
EndSplineSet
EndChar

StartChar: uni2040.alt
Encoding: 61702 61702 317
Width: 525
Flags: HW
TeX: 607 0
HStem: 515 77<199.273 324.148>
VStem: 123 277<516.097 561.328>
LayerCount: 2
Fore
SplineSet
123 520 m 0
 123 549 150 592 262 592 c 0
 374 592 400 549 400 520 c 0
 400 510 395 489 365 489 c 2
 353 489 l 2
 339 489 327 490 318 508 c 1
 307 511 295 515 261 515 c 0
 227 515 216 511 205 508 c 1
 194 490 186 489 170 489 c 2
 159 489 l 2
 149 489 123 491 123 520 c 0
EndSplineSet
EndChar

StartChar: uni2040
Encoding: 8256 8256 318
Width: 525
Flags: HW
TeX: 607 0
HStem: 617 77<204.691 318.74>
VStem: 83 84<462.891 573.344> 350 91<464.368 583.06>
LayerCount: 2
Fore
SplineSet
83 495 m 0
 83 607 153 694 262 694 c 0
 369 694 441 609 441 495 c 0
 441 468 424 461 405 461 c 2
 392 461 l 2
 344 461 364 494 350 543 c 0
 335 596 297 617 262 617 c 0
 224 617 173 593 167 503 c 0
 166 489 170 461 130 461 c 2
 119 461 l 2
 100 461 83 468 83 495 c 0
EndSplineSet
EndChar

StartChar: uni2422
Encoding: 9250 9250 319
Width: 525
Flags: HW
TeX: 607 0
HStem: -4 75<221.172 350.655> 373 75<221.292 356.096> 535 76<6.20774 89> 637 20G<283.5 299.5>
VStem: 89 84<1.89801 48 123.716 327.134 397 414> 409 84<134.687 315.298>
LayerCount: 2
Fore
SplineSet
4 573 m 1
 2 609 31 611 42 611 c 2
 136 611 l 2
 165 611 172 594 173 574 c 1
 278 655 276 657 291 657 c 0
 308 657 330 636 330 615 c 0
 330 594 323 594 188 490 c 0
 177 482 173 481 173 467 c 2
 173 397 l 1
 206 425 247 448 304 448 c 0
 411 448 493 366 493 223 c 0
 493 61 385 -4 292 -4 c 0
 239 -4 203 18 173 48 c 1
 173 41 l 2
 173 21 171 0 136 -0 c 2
 133 -0 l 2
 107 0 89 1 89 41 c 2
 89 414 l 1
 77 404 64 394 51 394 c 0
 31 394 13 421 13 436 c 0
 13 447 14 456 89 509 c 1
 89 535 l 1
 41 535 l 2
 16 535 3 549 4 573 c 1
173 187 m 2
 173 154 206 71 279 71 c 0
 357 71 409 129 409 222 c 0
 409 337 343 373 289 373 c 0
 223 373 173 317 173 278 c 2
 173 187 l 2
EndSplineSet
EndChar

StartChar: quotesingle
Encoding: 39 39 320
Width: 525
Flags: HW
TeX: 607 0
HStem: 336 275<226.921 297.614>
VStem: 220 84<339.421 605.27>
LayerCount: 2
Fore
SplineSet
220 565 m 0
 220 601 248 611 262 611 c 0
 276 611 304 602 304 565 c 0
 304 546 303 527 300 373 c 0
 299 337 275 336 261 336 c 0
 223 336 225 362 224 384 c 0
 221 529 220 547 220 565 c 0
EndSplineSet
EndChar

StartChar: uniFE66
Encoding: 65126 65126 322
Width: 525
Flags: HW
TeX: 424 -186
HStem: 104 76<89.1555 434.685> 260 75<89.2131 434.998>
LayerCount: 2
Fore
SplineSet
87 142 m 0
 87 178 109 180 128 180 c 2
 393 180 l 2
 421 180 437 174 437 140 c 0
 437 111 420 104 398 104 c 2
 126 104 l 2
 88 104 87 130 87 142 c 0
87 297 m 0
 87 328 103 335 127 335 c 2
 396 335 l 2
 432 335 437 318 437 294 c 0
 437 278 430 261 402 260 c 1
 122 260 l 1
 89 261 87 286 87 297 c 0
EndSplineSet
EndChar

StartChar: fraction
Encoding: 8260 8260 323
Width: 525
Flags: HW
TeX: 694 83
DStem2: 66 -15 144 -46 0.422812 0.906218<-27.3829 774.052>
LayerCount: 2
Fore
SplineSet
58 -42 m 0
 58 -31 63 -22 66 -15 c 2
 379 655 l 2
 386 669 395 694 424 694 c 0
 449 694 466 674 466 653 c 0
 466 643 461 634 458 627 c 2
 144 -46 l 2
 137 -61 127 -83 100 -83 c 0
 75 -83 58 -63 58 -42 c 0
EndSplineSet
EndChar

StartChar: zerooldstyle
Encoding: 63280 63280 324
Width: 525
Flags: HW
TeX: 444 0
HStem: -8 75<190.504 335.075> 377 76<186.034 336.657>
VStem: 42 84<136.321 313.774> 398 84<135.978 314.812>
LayerCount: 2
Fore
SplineSet
42 222 m 0
 42 364 130 453 262 453 c 0
 392 453 482 363 482 223 c 0
 482 78 390 -8 261 -8 c 0
 130 -8 42 82 42 222 c 0
126 230 m 0
 126 131 181 67 262 67 c 0
 344 67 398 132 398 230 c 0
 398 322 342 377 262 377 c 0
 184 377 126 324 126 230 c 0
EndSplineSet
EndChar

StartChar: oneoldstyle
Encoding: 63281 63281 325
Width: 525
Flags: HW
TeX: 444 0
HStem: -0 75<104.749 234 318 446.959> 429 20G<267.5 292>
VStem: 234 84<75 315>
LayerCount: 2
Fore
SplineSet
97 322 m 0
 97 330 98 336 100 342 c 0
 116 377 152 344 213 388 c 0
 257 420 251 449 284 449 c 0
 300 449 318 442 318 412 c 2
 318 75 l 1
 411 75 l 2
 441 75 450 57 449 38 c 0
 449 21 445 0 412 -0 c 2
 136 -0 l 1
 112 1 102 19 102 37 c 0
 102 54 109 75 141 75 c 2
 234 75 l 1
 234 315 l 1
 199 294 162 285 137 285 c 0
 116 285 97 291 97 322 c 0
EndSplineSet
EndChar

